<?xml version="1.0" encoding="utf-8"?>
<!-- Generator: Adobe Illustrator 25.2.3, SVG Export Plug-In . SVG Version: 6.00 Build 0)  -->
<svg version="1.1" id="Layer_1" xmlns="http://www.w3.org/2000/svg" xmlns:xlink="http://www.w3.org/1999/xlink" x="0px" y="0px"
	 viewBox="0 0 101.45 33.98" style="enable-background:new 0 0 101.45 33.98;" xml:space="preserve">
<style type="text/css">
	.st0{fill:#FFFFFF;}
</style>
<g>
	<path class="st0" d="M2.99,4.54c0.19,0.01,0.37,0.02,0.56,0.02c3.59,0,7.18-0.01,10.77,0.01c1.79,0.01,3.47,0.45,4.97,1.46
		c2.28,1.53,3.33,4.21,2.62,6.7c-0.45,1.59-1.49,2.72-2.9,3.54c-0.17,0.1-0.34,0.19-0.57,0.32c0.24,0.12,0.42,0.21,0.6,0.31
		c2.16,1.17,3.47,2.93,3.49,5.45c0.02,2.61-1.2,4.54-3.45,5.82c-1.19,0.68-2.49,1.06-3.85,1.07c-4.04,0.03-8.08,0.02-12.12,0.02
		c-0.04,0-0.09-0.01-0.13-0.02C2.99,21,2.99,12.77,2.99,4.54z M8.98,24.79c1.76-0.04,3.5,0.02,5.22-0.17
		c1.5-0.17,2.4-1.32,2.42-2.68c0.02-1.44-0.85-2.56-2.3-2.92c-0.33-0.08-0.69-0.12-1.03-0.13c-1.3-0.01-2.6-0.01-3.91,0
		c-0.13,0-0.25,0.02-0.4,0.02C8.98,20.86,8.98,22.78,8.98,24.79z M8.98,14.63c1.15,0,2.26,0.01,3.37,0
		c0.49-0.01,0.99-0.01,1.47-0.09c1.38-0.25,2.29-1.33,2.3-2.69c0.02-1.34-0.85-2.4-2.24-2.69c-0.31-0.07-0.63-0.1-0.95-0.1
		c-1.19-0.01-2.37-0.01-3.56,0c-0.13,0-0.25,0.02-0.4,0.03C8.98,10.92,8.98,12.74,8.98,14.63z"/>
	<path class="st0" d="M50.85,6.46c0,2.32,0,4.48,0,6.77c3.68-2.6,7.28-5.15,10.97-7.76c0,1.6,0,3.08,0,4.61c0.7,0,1.35,0,1.99,0
		c0.49,0,0.99,0.01,1.48-0.03c0.42-0.04,0.51,0.13,0.5,0.51c-0.03,0.91-0.03,1.82,0,2.74c0.01,0.41-0.09,0.56-0.52,0.54
		c-0.97-0.03-1.94-0.01-2.91-0.01c-0.16,0-0.31,0-0.51,0c-0.01,0.2-0.03,0.35-0.03,0.51c0,2.91,0,5.82,0,8.73
		c0,1.48,0.82,2.23,2.29,2.05c0.57-0.07,1.12-0.27,1.71-0.42c0.01,0.07,0.03,0.19,0.03,0.31c0,1.06-0.01,2.11,0.01,3.17
		c0.01,0.31-0.11,0.47-0.38,0.6c-1.59,0.78-3.26,0.83-4.97,0.59c-1.06-0.15-2.04-0.55-2.86-1.27c-1.19-1.05-1.58-2.42-1.58-3.94
		c0-3.27-0.01-6.55,0.01-9.82c0-0.42-0.11-0.54-0.53-0.53c-1.43,0.03-2.87,0.02-4.3,0c-0.35,0-0.44,0.1-0.44,0.44
		c0.01,3.03,0,6.05,0.01,9.08c0,1.08,0.52,1.66,1.6,1.78c0.77,0.09,1.49-0.12,2.22-0.48c0.02,0.14,0.05,0.24,0.05,0.34
		c0,1.09,0.01,2.17-0.01,3.26c0,0.16-0.13,0.4-0.27,0.47c-2.33,1.07-4.68,1.14-6.98-0.05c-1.51-0.78-2.25-2.15-2.32-3.83
		c-0.06-1.43-0.03-2.87-0.03-4.3c0-2.04,0-4.08,0-6.13c0-0.58,0-0.58-0.6-0.58c-0.8,0-1.59,0.01-2.39-0.01
		c-0.15,0-0.31-0.08-0.46-0.13c0.09-0.17,0.13-0.39,0.26-0.49c2.41-1.83,4.82-3.65,7.24-5.47C49.69,7.33,50.22,6.94,50.85,6.46z"/>
	<path class="st0" d="M72.13,21.88c0.85,1.67,2.09,2.66,3.85,2.91c2,0.29,3.84-0.28,5.59-1.2c0.61-0.32,1.18-0.73,1.81-1.12
		c0.01,0.12,0.03,0.24,0.03,0.36c0,1.43,0.01,2.87-0.01,4.3c0,0.17-0.09,0.42-0.22,0.5c-3.81,2.54-10.73,3.08-14.83-1.7
		c-2.53-2.95-2.93-6.38-1.65-9.95c1.28-3.56,3.95-5.6,7.64-6.26c2.26-0.41,4.45-0.15,6.46,1.05c2.12,1.27,3.06,3.38,2.48,5.55
		c-0.32,1.21-1.06,2.15-2.04,2.89c-1.51,1.14-3.26,1.74-5.09,2.1c-1.13,0.23-2.29,0.34-3.43,0.51
		C72.56,21.83,72.39,21.85,72.13,21.88z M71.66,19.12c1.06-0.19,2.09-0.33,3.1-0.56c0.7-0.16,1.39-0.41,2.06-0.65
		c0.31-0.11,0.6-0.29,0.87-0.48c0.68-0.47,1.08-1.11,0.94-1.96c-0.14-0.86-0.77-1.32-1.56-1.51C73.53,13.1,71.43,16.46,71.66,19.12z
		"/>
	<path class="st0" d="M29.93,21.87c0.85,1.67,2.09,2.67,3.86,2.91c2.18,0.3,4.15-0.37,6.01-1.43c0.46-0.26,0.89-0.59,1.38-0.91
		c0.02,0.12,0.04,0.22,0.04,0.32c0,1.46,0.01,2.93-0.01,4.39c0,0.16-0.09,0.38-0.22,0.46c-3.62,2.42-10.3,3.13-14.51-1.34
		c-2.75-2.92-3.3-6.42-2.03-10.14c1.24-3.65,3.93-5.74,7.69-6.43c2.24-0.41,4.42-0.17,6.42,1.02c1.49,0.89,2.52,2.13,2.67,3.93
		c0.13,1.5-0.39,2.79-1.44,3.86c-1.2,1.23-2.7,1.97-4.33,2.37c-1.6,0.39-3.24,0.61-4.86,0.9C30.42,21.84,30.23,21.84,29.93,21.87z
		 M29.46,19.1c0.8-0.13,1.6-0.21,2.38-0.39c0.93-0.21,1.84-0.49,2.75-0.78c0.32-0.1,0.63-0.3,0.91-0.5
		c0.68-0.47,1.07-1.11,0.93-1.96c-0.14-0.84-0.75-1.3-1.52-1.49C31.44,13.08,29.23,16.34,29.46,19.1z"/>
	<path class="st0" d="M85.48,29.25c0-6.44,0-12.81,0-19.21c0.14-0.01,0.27-0.03,0.39-0.03c1.65,0,3.3,0.01,4.95-0.01
		c0.37,0,0.46,0.12,0.45,0.47c-0.02,1.33-0.01,2.66,0.03,4.02c1.29-2.9,3.35-4.71,6.65-4.88c0,1.9,0,3.73,0,5.61
		c-0.34-0.05-0.67-0.1-0.99-0.13c-1.48-0.15-2.9,0.03-4.17,0.85c-0.37,0.24-0.7,0.56-1,0.89c-0.38,0.42-0.55,0.92-0.55,1.51
		c0.02,3.47,0,6.95,0.02,10.42c0,0.4-0.11,0.51-0.51,0.51c-1.61-0.02-3.21-0.01-4.82-0.01C85.81,29.25,85.67,29.25,85.48,29.25z"/>
</g>
</svg>
