<svg xmlns="http://www.w3.org/2000/svg" viewBox="0 0 78.1 389.8"><defs><style>.cls-1{fill:none;stroke:#fff;stroke-linecap:round;stroke-linejoin:round;stroke-width:0.5px;}</style></defs><g id="Layer_2" data-name="Layer 2"><g id="Layer_1-2" data-name="Layer 1"><line class="cls-1" x1="53.75" y1="42.65" x2="43.95" y2="25.55"/><line class="cls-1" x1="53.75" y1="42.65" x2="73.45" y2="42.65"/><line class="cls-1" x1="53.75" y1="42.65" x2="43.95" y2="59.65"/><line class="cls-1" x1="67.95" y1="68.15" x2="48.25" y2="68.05"/><line class="cls-1" x1="67.95" y1="68.15" x2="77.85" y2="51.15"/><line class="cls-1" x1="67.95" y1="68.25" x2="77.75" y2="85.15"/><line class="cls-1" x1="10.15" y1="68.15" x2="29.85" y2="68.25"/><line class="cls-1" x1="10.15" y1="68.15" x2="0.25" y2="85.15"/><line class="cls-1" x1="10.15" y1="68.15" x2="0.25" y2="51.15"/><line class="cls-1" x1="67.95" y1="17.35" x2="48.25" y2="17.25"/><line class="cls-1" x1="67.95" y1="17.35" x2="77.85" y2="0.25"/><line class="cls-1" x1="67.95" y1="17.35" x2="77.75" y2="34.35"/><line class="cls-1" x1="10.15" y1="17.25" x2="29.85" y2="17.35"/><line class="cls-1" x1="10.15" y1="17.25" x2="0.25" y2="34.35"/><line class="cls-1" x1="10.15" y1="17.25" x2="0.25" y2="0.25"/><line class="cls-1" x1="24.55" y1="42.65" x2="34.25" y2="59.65"/><line class="cls-1" x1="24.55" y1="42.55" x2="4.75" y2="42.55"/><line class="cls-1" x1="24.55" y1="42.55" x2="34.25" y2="25.55"/><line class="cls-1" x1="53.75" y1="93.35" x2="43.95" y2="76.25"/><line class="cls-1" x1="53.75" y1="93.35" x2="73.45" y2="93.35"/><line class="cls-1" x1="53.75" y1="93.35" x2="43.95" y2="110.45"/><line class="cls-1" x1="67.95" y1="118.95" x2="48.25" y2="118.75"/><line class="cls-1" x1="67.95" y1="118.95" x2="77.85" y2="101.85"/><line class="cls-1" x1="67.95" y1="118.95" x2="77.75" y2="135.95"/><line class="cls-1" x1="10.15" y1="118.85" x2="29.85" y2="118.95"/><line class="cls-1" x1="10.15" y1="118.85" x2="0.25" y2="135.95"/><line class="cls-1" x1="10.15" y1="118.85" x2="0.25" y2="101.85"/><line class="cls-1" x1="24.55" y1="93.35" x2="34.25" y2="110.45"/><line class="cls-1" x1="24.55" y1="93.35" x2="4.75" y2="93.35"/><line class="cls-1" x1="24.55" y1="93.35" x2="34.25" y2="76.25"/><line class="cls-1" x1="53.75" y1="144.05" x2="43.95" y2="127.05"/><line class="cls-1" x1="53.75" y1="144.15" x2="73.45" y2="144.15"/><line class="cls-1" x1="53.75" y1="144.15" x2="43.95" y2="161.15"/><line class="cls-1" x1="67.95" y1="169.65" x2="48.25" y2="169.55"/><line class="cls-1" x1="67.95" y1="169.65" x2="77.85" y2="152.55"/><line class="cls-1" x1="67.95" y1="169.65" x2="77.75" y2="186.65"/><line class="cls-1" x1="10.15" y1="169.55" x2="29.85" y2="169.65"/><line class="cls-1" x1="10.15" y1="169.55" x2="0.25" y2="186.65"/><line class="cls-1" x1="10.15" y1="169.55" x2="0.25" y2="152.55"/><line class="cls-1" x1="24.55" y1="144.05" x2="34.25" y2="161.15"/><line class="cls-1" x1="24.55" y1="144.05" x2="4.75" y2="144.05"/><line class="cls-1" x1="24.55" y1="144.05" x2="34.25" y2="127.05"/><line class="cls-1" x1="53.75" y1="194.85" x2="43.95" y2="177.75"/><line class="cls-1" x1="53.75" y1="194.85" x2="73.45" y2="194.85"/><line class="cls-1" x1="53.75" y1="194.85" x2="43.95" y2="211.85"/><line class="cls-1" x1="67.95" y1="220.35" x2="48.25" y2="220.25"/><line class="cls-1" x1="67.95" y1="220.35" x2="77.85" y2="203.25"/><line class="cls-1" x1="67.95" y1="220.35" x2="77.75" y2="237.35"/><line class="cls-1" x1="10.15" y1="220.25" x2="29.85" y2="220.45"/><line class="cls-1" x1="10.15" y1="220.35" x2="0.25" y2="237.35"/><line class="cls-1" x1="10.15" y1="220.25" x2="0.25" y2="203.25"/><line class="cls-1" x1="24.55" y1="194.75" x2="34.25" y2="211.85"/><line class="cls-1" x1="24.55" y1="194.75" x2="4.75" y2="194.75"/><line class="cls-1" x1="24.55" y1="194.75" x2="34.25" y2="177.75"/><line class="cls-1" x1="53.75" y1="245.55" x2="43.95" y2="228.45"/><line class="cls-1" x1="53.75" y1="245.55" x2="73.45" y2="245.55"/><line class="cls-1" x1="53.75" y1="245.55" x2="43.95" y2="262.55"/><line class="cls-1" x1="67.95" y1="271.05" x2="48.25" y2="270.95"/><line class="cls-1" x1="67.95" y1="271.05" x2="77.85" y2="254.05"/><line class="cls-1" x1="67.95" y1="271.05" x2="77.75" y2="288.05"/><line class="cls-1" x1="10.15" y1="271.05" x2="29.85" y2="271.15"/><line class="cls-1" x1="10.15" y1="271.05" x2="0.25" y2="288.05"/><line class="cls-1" x1="10.15" y1="271.05" x2="0.25" y2="254.05"/><line class="cls-1" x1="24.55" y1="245.45" x2="34.25" y2="262.55"/><line class="cls-1" x1="24.55" y1="245.45" x2="4.75" y2="245.45"/><line class="cls-1" x1="24.55" y1="245.45" x2="34.25" y2="228.45"/><line class="cls-1" x1="53.75" y1="296.25" x2="43.95" y2="279.15"/><line class="cls-1" x1="53.75" y1="296.25" x2="73.45" y2="296.25"/><line class="cls-1" x1="53.75" y1="296.25" x2="43.95" y2="313.35"/><line class="cls-1" x1="67.95" y1="321.85" x2="48.25" y2="321.65"/><line class="cls-1" x1="67.95" y1="321.75" x2="77.85" y2="304.75"/><line class="cls-1" x1="67.95" y1="321.85" x2="77.75" y2="338.85"/><line class="cls-1" x1="10.15" y1="321.75" x2="29.85" y2="321.85"/><line class="cls-1" x1="10.15" y1="321.75" x2="0.25" y2="338.85"/><line class="cls-1" x1="10.15" y1="321.75" x2="0.25" y2="304.75"/><line class="cls-1" x1="24.55" y1="296.25" x2="34.25" y2="313.35"/><line class="cls-1" x1="24.55" y1="296.25" x2="4.75" y2="296.25"/><line class="cls-1" x1="24.55" y1="296.15" x2="34.25" y2="279.15"/><line class="cls-1" x1="53.75" y1="346.95" x2="43.95" y2="329.85"/><line class="cls-1" x1="53.75" y1="346.95" x2="73.45" y2="346.95"/><line class="cls-1" x1="53.75" y1="347.05" x2="43.95" y2="364.05"/><line class="cls-1" x1="67.95" y1="372.55" x2="48.25" y2="372.45"/><line class="cls-1" x1="67.95" y1="372.55" x2="77.85" y2="355.45"/><line class="cls-1" x1="67.95" y1="372.55" x2="77.75" y2="389.55"/><line class="cls-1" x1="10.15" y1="372.45" x2="29.85" y2="372.55"/><line class="cls-1" x1="10.15" y1="372.45" x2="0.25" y2="389.55"/><line class="cls-1" x1="10.15" y1="372.45" x2="0.25" y2="355.45"/><line class="cls-1" x1="24.55" y1="346.95" x2="34.25" y2="364.05"/><line class="cls-1" x1="24.55" y1="346.95" x2="4.75" y2="346.95"/><line class="cls-1" x1="24.55" y1="346.95" x2="34.25" y2="329.85"/></g></g></svg>