<?xml version="1.0" encoding="UTF-8"?>
<svg version="1.1" xmlns="http://www.w3.org/2000/svg" width="800" height="200">
<path d="M0 0 C0.74185547 -0.00773437 1.48371094 -0.01546875 2.24804688 -0.0234375 C6.37228242 -0.00874744 9.79039444 0.12198762 13.4375 2.25 C17.46461636 6.49499461 19.27216898 11.21395079 21.3359375 16.58203125 C21.8721019 17.94614388 21.8721019 17.94614388 22.4190979 19.33781433 C23.55848916 22.24289104 24.68552194 25.15258856 25.8125 28.0625 C26.56171927 29.9762173 27.31171231 31.88963186 28.0625 33.80273438 C32.28360598 44.58270947 36.41008159 55.39623403 40.4375 66.25 C41.0975 66.25 41.7575 66.25 42.4375 66.25 C42.64746109 65.72398697 42.85742218 65.19797394 43.07374573 64.65602112 C45.29586744 59.0894959 47.5192903 53.5234916 49.7434082 47.95776367 C50.56892494 45.89148581 51.39412993 43.82508336 52.21899414 41.75854492 C54.20240284 36.78977456 56.19014297 31.82284819 58.18798828 26.85986328 C59.62962208 23.27767517 61.04943577 19.68827691 62.44873047 16.08935547 C63.05808207 14.54777796 63.66760813 13.00626941 64.27734375 11.46484375 C64.54132462 10.76992325 64.80530548 10.07500275 65.07728577 9.35902405 C66.58228346 5.59582906 67.85568049 3.25073908 71.4375 1.25 C75.22936081 -0.0139536 78.8000172 0.06585598 82.75 0.0625 C83.49701172 0.05025391 84.24402344 0.03800781 85.01367188 0.02539062 C89.48704427 0.01360826 93.38115716 0.15891632 97.4375 2.25 C100.83061358 7.39149204 100.861259 11.86552604 100.80981445 17.80371094 C100.81346512 18.74747086 100.81711578 19.69123077 100.82087708 20.66358948 C100.82895754 23.77070321 100.81539715 26.87729152 100.80078125 29.984375 C100.80026252 32.14577229 100.80078073 34.30717007 100.80229187 36.46856689 C100.80220227 40.99099804 100.79179438 45.51325046 100.77368164 50.03564453 C100.75094064 55.84214609 100.75046149 61.64838783 100.75719929 67.45492172 C100.76053387 71.91404546 100.75391973 76.37310955 100.74407005 80.83222198 C100.74021302 82.97412047 100.73907191 85.11602557 100.7406559 87.25792694 C100.74102519 90.24337012 100.72844657 93.2284747 100.7121582 96.21386719 C100.71463562 97.104272 100.71711304 97.99467682 100.71966553 98.9120636 C100.66624699 105.02125301 100.66624699 105.02125301 98.4375 107.25 C95.89520841 107.42201285 93.47600004 107.48257617 90.9375 107.4375 C90.24785156 107.43685547 89.55820312 107.43621094 88.84765625 107.43554688 C83.71861049 107.39055525 83.71861049 107.39055525 81.4375 106.25 C80.29284162 102.81602485 80.27770593 100.10638646 80.23217773 96.48364258 C80.22227814 95.80045456 80.21237854 95.11726654 80.20217896 94.41337585 C80.17061321 92.15712947 80.1458261 89.90086203 80.12109375 87.64453125 C80.10051996 86.07939611 80.07952338 84.51426648 80.05812073 82.94914246 C80.00294391 78.83102884 79.95351529 74.71286544 79.90527344 70.59466553 C79.85502635 66.39184136 79.79935703 62.18908942 79.74414062 57.98632812 C79.63661274 49.7409465 79.53515587 41.49550442 79.4375 33.25 C77.7362741 37.41898342 76.03589789 41.58831293 74.3359375 45.7578125 C74.08389935 46.3758588 73.83186119 46.99390511 73.57218552 47.63068008 C70.92045659 54.13434487 68.27104298 60.6386942 65.66925049 67.16253662 C64.47552643 70.15345552 63.26727387 73.1385183 62.0625 76.125 C61.58167969 77.34445313 61.10085937 78.56390625 60.60546875 79.8203125 C59.89197266 81.57601562 59.89197266 81.57601562 59.1640625 83.3671875 C58.75752441 84.38409668 58.35098633 85.40100586 57.93212891 86.44873047 C55.90580154 90.24652208 53.33036435 93.30356782 49.4375 95.25 C46.854335 95.48110989 44.33754983 95.61983639 41.75 95.6875 C40.70682617 95.75614258 40.70682617 95.75614258 39.64257812 95.82617188 C35.75031782 95.90975916 32.99282486 95.40101288 29.80078125 93.1015625 C24.81619818 88.28462395 22.7517578 81.52237246 20.3125 75.1875 C19.81038501 73.92701935 19.30648822 72.66724697 18.80078125 71.40820312 C15.9658994 64.31530158 13.25335935 57.1744527 10.51806641 50.04272461 C9.28705195 46.86116691 8.00898164 43.70745469 6.6875 40.5625 C6.28015625 39.58925781 5.8728125 38.61601563 5.453125 37.61328125 C4.82055292 36.14133468 4.15398784 34.68297569 3.4375 33.25 C3.4220388 34.55545525 3.4220388 34.55545525 3.40626526 35.88728333 C3.30834609 44.08330844 3.20583955 52.27926052 3.09816074 60.47516346 C3.04296249 64.68890076 2.98954741 68.90264504 2.94018555 73.11645508 C2.89249634 77.18190764 2.84015184 81.24727589 2.78455925 85.31262779 C2.76415636 86.86476229 2.74543986 88.41691989 2.72842598 89.96909523 C2.70433622 92.14069605 2.67428801 94.31213787 2.64282227 96.48364258 C2.62727798 97.72052322 2.6117337 98.95740387 2.59571838 100.23176575 C2.4375 103.25 2.4375 103.25 1.4375 106.25 C-1.59679677 107.76714839 -4.73851667 107.39363916 -8.0625 107.375 C-8.75214844 107.37886719 -9.44179687 107.38273437 -10.15234375 107.38671875 C-15.30916707 107.37666646 -15.30916707 107.37666646 -17.5625 106.25 C-17.63198997 93.42839154 -17.68530629 80.60682784 -17.71793652 67.78506947 C-17.73359685 61.83149886 -17.75484211 55.87805703 -17.78881836 49.92456055 C-17.82139828 44.17982911 -17.83935025 38.43522159 -17.84713173 32.69040489 C-17.85267766 30.4979323 -17.8635074 28.30546653 -17.87969017 26.11304665 C-17.90144594 23.04372082 -17.90446766 19.97490802 -17.90307617 16.90551758 C-17.913862 15.99777084 -17.92464783 15.09002411 -17.9357605 14.1547699 C-17.91235069 9.38722957 -17.74499057 6.07712113 -14.5625 2.25 C-9.81828258 -0.06970572 -5.16764834 -0.05415876 0 0 Z " fill="#EBFA96" transform="translate(187.5625,83.75)"/>
<path d="M0 0 C0.69416016 -0.00322266 1.38832031 -0.00644531 2.10351562 -0.00976562 C7.83589215 0.05011675 11.24824489 0.62324489 15.33984375 4.71484375 C18.96949592 9.39648705 21.66855947 14.69091627 24.5 19.875 C25.74920257 22.13455563 26.99921511 24.39366364 28.25 26.65234375 C28.87132812 27.77753418 29.49265625 28.90272461 30.1328125 30.06201172 C33.15094855 35.49808631 36.24974622 40.88716783 39.34413147 46.28004456 C43.1912081 52.99262043 47.00474154 59.72379049 50.80859375 66.4609375 C51.40184448 67.51112061 51.99509521 68.56130371 52.60632324 69.64331055 C54.05030677 72.19956149 55.49402823 74.75596005 56.9375 77.3125 C56.94629936 75.9318763 56.94629936 75.9318763 56.95527649 74.52336121 C57.01314037 65.85631399 57.0851806 57.18952621 57.17321491 48.52273083 C57.21797428 44.06684865 57.25721793 39.61105908 57.28393555 35.1550293 C57.30991328 30.85602801 57.35027588 26.55738204 57.40068626 22.25860023 C57.41739255 20.61717454 57.42888336 18.97568734 57.43511391 17.33418846 C57.44471446 15.03776019 57.47272314 12.74224869 57.50512695 10.44604492 C57.51623001 9.13810471 57.52733307 7.83016449 57.53877258 6.48258972 C57.9375 3.3125 57.9375 3.3125 59.26139832 1.38935852 C62.03483008 -0.39251047 64.70206434 -0.04381319 67.9375 0 C69.175 0.00386719 70.4125 0.00773437 71.6875 0.01171875 C74.9375 0.3125 74.9375 0.3125 77.9375 2.3125 C78.24479739 5.39009416 78.35712974 8.26757415 78.34155273 11.34863281 C78.34841599 12.28538345 78.35527924 13.22213409 78.36235046 14.18727112 C78.38071298 17.29687488 78.37676624 20.40597843 78.37109375 23.515625 C78.37565229 25.67315842 78.38095687 27.83069038 78.38697815 29.98822021 C78.39592877 34.51776005 78.39346543 39.04712378 78.38354492 43.57666016 C78.37207572 49.37855283 78.39222567 55.17983505 78.42146206 60.98164749 C78.4398234 65.44095724 78.4395313 69.90012086 78.43382454 74.35945892 C78.43367119 76.49806319 78.43972639 78.63667728 78.45211601 80.77524567 C78.46701577 83.77014678 78.45635446 86.76392282 78.43920898 89.75878906 C78.44887695 90.64109695 78.45854492 91.52340485 78.46850586 92.43244934 C78.40345536 97.86668073 77.59397314 101.02559867 73.9375 105.3125 C69.78991407 108.07755729 66.43448182 107.64328822 61.5625 107.625 C60.28632813 107.64916992 60.28632813 107.64916992 58.984375 107.67382812 C54.15266726 107.67759114 50.79297401 107.53006831 46.9375 104.3125 C43.94050467 100.82516357 41.66055694 97.25473197 39.46875 93.21875 C39.15185715 92.63915024 38.83496429 92.05955048 38.50846863 91.46238708 C37.83159243 90.22350747 37.156814 88.98347975 36.48397827 87.74240112 C34.70382841 84.45947275 32.90791424 81.18518295 31.11328125 77.91015625 C30.57668633 76.9296505 30.57668633 76.9296505 30.0292511 75.92933655 C26.55624554 69.59352395 22.98255389 63.3175081 19.359375 57.06640625 C14.06836489 47.89961062 9.02300197 38.59427319 3.9375 29.3125 C3.92941315 30.26019257 3.92132629 31.20788513 3.91299438 32.18429565 C3.83561484 41.10177695 3.74789662 50.01910413 3.64997292 58.9363842 C3.59996007 63.52119782 3.55363067 68.10598784 3.515625 72.69091797 C3.47883496 77.11303679 3.43249254 81.53496046 3.37943649 85.95691299 C3.36085902 87.64662387 3.34576354 89.33637662 3.33415604 91.02614975 C3.31735058 93.38726674 3.28833042 95.74793351 3.25634766 98.10888672 C3.25418747 98.81235229 3.25202728 99.51581787 3.24980164 100.24060059 C3.16560432 105.08439568 3.16560432 105.08439568 0.9375 107.3125 C-1.77172801 107.51102102 -4.35553179 107.59089477 -7.0625 107.5625 C-7.79984375 107.57023437 -8.5371875 107.57796875 -9.296875 107.5859375 C-14.8091804 107.5658196 -14.8091804 107.5658196 -17.0625 105.3125 C-17.266699 102.30103985 -17.34563041 99.3811697 -17.3371582 96.36816406 C-17.34226913 95.44116699 -17.34738007 94.51416992 -17.35264587 93.55908203 C-17.36659175 90.48203139 -17.36558085 87.40520357 -17.36328125 84.328125 C-17.36716647 82.19301266 -17.37150078 80.05790109 -17.37626648 77.92279053 C-17.38374019 73.44036356 -17.38342984 68.95801533 -17.37817383 64.47558594 C-17.37238873 58.73433196 -17.38928152 52.99340158 -17.4125185 47.25220108 C-17.4272626 42.8392346 -17.42812642 38.42634582 -17.42500877 34.01335907 C-17.42552201 31.89708568 -17.43076015 29.78080795 -17.44082069 27.66455841 C-17.45317569 24.70096464 -17.44639794 21.73799802 -17.43481445 18.77441406 C-17.44245819 17.90145691 -17.45010193 17.02849976 -17.45797729 16.12908936 C-17.41479109 11.12283794 -16.87645118 7.63252905 -14.0625 3.3125 C-9.54120551 0.18642302 -5.34848429 -0.12484791 0 0 Z " fill="#EBFB95" transform="translate(354.0625,83.6875)"/>
<path d="M0 0 C0.85184875 -0.0033284 1.70369751 -0.0066568 2.58135986 -0.01008606 C4.37650009 -0.01512582 6.17164959 -0.0174953 7.96679688 -0.01733398 C10.68115078 -0.0195136 13.39509317 -0.03768202 16.109375 -0.05664062 C41.73085907 -0.14322656 41.73085907 -0.14322656 50.953125 8.16796875 C60.99127779 19.18484144 59.42461861 36.51298312 59.34423828 50.31469727 C59.32817632 53.59498801 59.3441401 56.87404382 59.36328125 60.15429688 C59.39589207 90.60414057 59.39589207 90.60414057 49.953125 100.16796875 C49.210625 100.93109375 48.468125 101.69421875 47.703125 102.48046875 C40.39001579 106.96805849 32.44268773 107.62035403 24.046875 107.56640625 C22.53885315 107.57071152 22.53885315 107.57071152 21.00036621 107.57510376 C18.88939852 107.57713172 16.77841148 107.57169136 14.66748047 107.55908203 C11.46148105 107.54301064 8.2567421 107.55897467 5.05078125 107.578125 C2.98697642 107.57614234 0.92317237 107.57229821 -1.140625 107.56640625 C-2.08570923 107.57247894 -3.03079346 107.57855164 -4.0045166 107.58480835 C-13.45994096 107.48632746 -21.43152679 105.70709324 -28.359375 99.05859375 C-38.91559383 87.23171894 -37.2337763 69.81762831 -37.23217773 54.94775391 C-37.23437236 52.67071029 -37.25263619 50.39414665 -37.27148438 48.1171875 C-37.32586697 33.90388765 -37.36839033 17.80093435 -27.0703125 6.89453125 C-19.32741875 0.28766052 -9.72639184 0.01345712 0 0 Z M-13.046875 24.16796875 C-16.08701606 30.12153369 -16.48345137 36.1664669 -16.41015625 42.734375 C-16.41065475 43.61270493 -16.41115326 44.49103485 -16.41166687 45.39598083 C-16.4093428 47.23886395 -16.39971389 49.08175125 -16.38305664 50.92456055 C-16.35940688 53.72669173 -16.36251602 56.52787195 -16.36914062 59.33007812 C-16.36356416 61.13151602 -16.35645448 62.93294996 -16.34765625 64.734375 C-16.34856766 65.56167618 -16.34947906 66.38897736 -16.35041809 67.24134827 C-16.27236842 73.71980097 -15.72688998 79.64794628 -12.046875 85.16796875 C-9.37095708 86.05994139 -7.77074213 86.30667637 -5.02197266 86.3449707 C-4.21748688 86.35780594 -3.4130011 86.37064117 -2.58413696 86.38386536 C-1.28565323 86.39494576 -1.28565323 86.39494576 0.0390625 86.40625 C0.93299713 86.41432175 1.82693176 86.42239349 2.74795532 86.43070984 C4.63924222 86.44453645 6.53055393 86.45526497 8.421875 86.46313477 C11.31037684 86.48036289 14.19773837 86.52426285 17.0859375 86.56835938 C18.92447076 86.57848542 20.76301374 86.5870018 22.6015625 86.59375 C23.89397354 86.62001213 23.89397354 86.62001213 25.2124939 86.64680481 C29.28308576 86.63211692 31.42531905 86.48918076 34.97509766 84.32885742 C37.90788165 81.12494837 38.08125 78.50701009 38.11425781 74.33276367 C38.12386536 73.35131882 38.1334729 72.36987396 38.14337158 71.35868835 C38.14762146 70.29930557 38.15187134 69.23992279 38.15625 68.1484375 C38.16480011 66.51144646 38.16480011 66.51144646 38.17352295 64.84138489 C38.18297364 62.53057831 38.1895072 60.21975824 38.19335938 57.90893555 C38.20305812 54.37980527 38.23407872 50.85125903 38.265625 47.32226562 C38.27215585 45.07682637 38.277406 42.83138296 38.28125 40.5859375 C38.2935968 39.53262741 38.3059436 38.47931732 38.31866455 37.39408875 C38.30222395 31.96574019 38.23511895 27.74395043 34.953125 23.16796875 C31.38243827 20.21674649 26.62159441 20.86226129 22.20703125 20.8671875 C21.35890366 20.86290237 20.51077606 20.85861725 19.63694763 20.85420227 C17.8457834 20.8484674 16.05459588 20.8479525 14.26342773 20.85229492 C11.52872834 20.85545362 8.79511249 20.8319903 6.06054688 20.80664062 C4.31770969 20.80436735 2.57486961 20.80366426 0.83203125 20.8046875 C-0.39005287 20.79087288 -0.39005287 20.79087288 -1.63682556 20.77677917 C-6.18234754 20.81366821 -9.61120566 20.88176185 -13.046875 24.16796875 Z " fill="#EBFA96" transform="translate(62.046875,83.83203125)"/>
<path d="M0 0 C2.02694293 1.21257825 3.88760804 2.36551779 5.64453125 3.9453125 C5.64453125 4.6053125 5.64453125 5.2653125 5.64453125 5.9453125 C6.30453125 5.9453125 6.96453125 5.9453125 7.64453125 5.9453125 C9.26417571 9.83640483 10.88147896 13.7284603 12.49682617 17.62133789 C13.04407022 18.93929864 13.59190031 20.25701624 14.14038086 21.57446289 C17.29688719 29.15760046 20.36360321 36.76113851 23.28881836 44.43725586 C25.81619066 50.97711047 28.46352423 57.4689525 31.10083008 63.96508789 C32.07888117 66.37505056 33.05419786 68.78610724 34.02929688 71.19726562 C34.67044717 72.77869682 35.31172191 74.36007757 35.953125 75.94140625 C36.26389984 76.71052338 36.57467468 77.4796405 36.89486694 78.27206421 C38.3563475 81.86893797 39.84963743 85.44116978 41.45361328 88.97705078 C41.73487564 89.60354019 42.016138 90.2300296 42.30592346 90.87550354 C43.05894377 92.53928085 43.82777467 94.19587762 44.59790039 95.85180664 C45.7958655 99.3926081 45.9028161 102.23121647 45.64453125 105.9453125 C44.64453125 106.9453125 44.64453125 106.9453125 42.78686523 107.05883789 C41.60072632 107.05098267 41.60072632 107.05098267 40.390625 107.04296875 C39.53662109 107.03974609 38.68261719 107.03652344 37.80273438 107.03320312 C36.45598633 107.02063477 36.45598633 107.02063477 35.08203125 107.0078125 C34.18033203 107.00330078 33.27863281 106.99878906 32.34960938 106.99414062 C30.11451811 106.98231475 27.87955688 106.9658347 25.64453125 106.9453125 C21.11604125 98.46480223 17.60220568 89.62316637 14.08203125 80.6953125 C13.47085055 79.15532979 12.85918995 77.61553747 12.24707031 76.07592773 C10.99515217 72.92562524 9.7453805 69.77448581 8.49755859 66.62255859 C5.90163442 60.06705546 3.29209671 53.51700477 0.67703247 46.96911621 C-0.09146324 45.04291667 -0.85751055 43.1157569 -1.62329102 41.18847656 C-2.08662842 40.02670898 -2.54996582 38.86494141 -3.02734375 37.66796875 C-3.43049805 36.65484619 -3.83365234 35.64172363 -4.24902344 34.59790039 C-5.19833515 32.32202402 -6.2178904 30.1317381 -7.35546875 27.9453125 C-7.63745117 28.65026855 -7.91943359 29.35522461 -8.20996094 30.08154297 C-14.77734375 46.5 -14.77734375 46.5 -16.09179688 49.78417969 C-16.91001249 51.83098336 -17.72652988 53.87846705 -18.54101562 55.92675781 C-18.89744141 56.82233398 -19.25386719 57.71791016 -19.62109375 58.640625 C-19.93336914 59.42711426 -20.24564453 60.21360352 -20.56738281 61.02392578 C-21.35546875 62.9453125 -21.35546875 62.9453125 -22.35546875 64.9453125 C-21.16308594 64.88730469 -19.97070312 64.82929688 -18.7421875 64.76953125 C-17.17582034 64.72263403 -15.60941091 64.67713382 -14.04296875 64.6328125 C-13.25728516 64.59091797 -12.47160156 64.54902344 -11.66210938 64.50585938 C-9.4594527 64.45899434 -7.51012016 64.48056688 -5.35546875 64.9453125 C-3.453125 67.1875 -3.453125 67.1875 -2.35546875 69.9453125 C-1.9584375 70.68652344 -1.56140625 71.42773438 -1.15234375 72.19140625 C1.03214353 76.76415761 2.41137991 79.89717348 0.64453125 84.9453125 C-2.27744565 86.40630095 -4.8544035 86.05666151 -8.11328125 86.04296875 C-9.10785843 86.04084633 -9.10785843 86.04084633 -10.12252808 86.03868103 C-12.24188738 86.03308004 -14.36114134 86.0205275 -16.48046875 86.0078125 C-17.91666514 86.00279762 -19.35286319 85.99823469 -20.7890625 85.99414062 C-24.3112322 85.98311032 -27.8333402 85.96584509 -31.35546875 85.9453125 C-31.49807129 86.87126221 -31.64067383 87.79721191 -31.78759766 88.7512207 C-32.38942838 92.13632449 -33.4053288 94.96452334 -34.73046875 98.1328125 C-35.15070312 99.15761719 -35.5709375 100.18242187 -36.00390625 101.23828125 C-37.29211892 103.81842975 -38.134709 105.17107676 -40.35546875 106.9453125 C-42.42431641 107.30175781 -42.42431641 107.30175781 -44.76953125 107.2734375 C-45.61257813 107.26828125 -46.455625 107.263125 -47.32421875 107.2578125 C-48.20078125 107.2371875 -49.07734375 107.2165625 -49.98046875 107.1953125 C-50.86476563 107.19015625 -51.7490625 107.185 -52.66015625 107.1796875 C-59.20135384 107.09942741 -59.20135384 107.09942741 -60.35546875 105.9453125 C-60.01683441 98.89375043 -57.09715741 92.67077198 -54.48046875 86.1953125 C-53.9802343 84.9421993 -53.48057052 83.68885816 -52.98144531 82.43530273 C-51.45110264 78.60057211 -49.90511998 74.77227397 -48.35546875 70.9453125 C-47.90848633 69.84010254 -47.46150391 68.73489258 -47.00097656 67.59619141 C-45.26822893 63.31924714 -43.53134269 59.04415794 -41.77734375 54.77587891 C-39.31381 48.7797143 -36.88437886 42.77321373 -34.50720215 36.74235535 C-33.17021881 33.35339377 -31.82345357 29.96835374 -30.47619629 26.58346558 C-29.81751838 24.92100437 -29.16338775 23.2567336 -28.51403809 21.59060669 C-27.60055365 19.24826096 -26.67110671 16.91282312 -25.73828125 14.578125 C-25.47091156 13.88034439 -25.20354187 13.18256378 -24.92807007 12.46363831 C-22.65659429 6.85223201 -19.62429957 3.44067827 -14.60546875 0.1328125 C-9.54393197 -1.71659517 -5.02186244 -2.24859512 0 0 Z " fill="#EBFA96" transform="translate(678.35546875,84.0546875)"/>
<path d="M0 0 C1.22589844 -0.01933594 2.45179688 -0.03867188 3.71484375 -0.05859375 C7.0625 0.4375 7.0625 0.4375 9.2403717 1.86936951 C12.00544731 5.76650177 11.61349573 9.35407087 11.56420898 14.02368164 C11.56961197 14.99480392 11.57501495 15.96592621 11.58058167 16.96647644 C11.59309143 20.17717949 11.57656374 23.38698987 11.55859375 26.59765625 C11.55874867 28.82677762 11.56023653 31.05589926 11.56300354 33.28501892 C11.5643885 37.95649117 11.55181188 42.62765676 11.52905273 47.29907227 C11.50065164 53.29394251 11.50340872 59.2883037 11.51614285 65.28321171 C11.52308937 69.88565945 11.51532273 74.48798902 11.50288582 79.09042168 C11.4983625 81.30126938 11.49804217 83.51212972 11.50195122 85.72297859 C11.50485375 88.80915578 11.48840259 91.89462504 11.46655273 94.98071289 C11.47105438 95.89871674 11.47555603 96.81672058 11.48019409 97.76254272 C11.47028946 98.60230148 11.46038483 99.44206024 11.45018005 100.30726624 C11.44775016 101.03673997 11.44532026 101.7662137 11.44281673 102.5177927 C10.94356399 105.03784781 10.11274764 105.91992934 8.0625 107.4375 C5.28473238 107.70857281 2.76912166 107.81120959 0 107.75 C-1.09924805 107.75483398 -1.09924805 107.75483398 -2.22070312 107.75976562 C-7.67028061 107.70471939 -7.67028061 107.70471939 -9.9375 105.4375 C-10.19197559 103.60681248 -10.19197559 103.60681248 -10.19819641 101.34486389 C-10.20528122 100.48820633 -10.21236603 99.63154877 -10.21966553 98.74893188 C-10.21718811 97.80706024 -10.21471069 96.8651886 -10.2121582 95.89477539 C-10.21726913 94.90443802 -10.22238007 93.91410065 -10.22764587 92.89375305 C-10.24158982 89.6074933 -10.24058149 86.32144214 -10.23828125 83.03515625 C-10.24216555 80.75833558 -10.24649967 78.48151564 -10.25126648 76.20469666 C-10.25873904 71.42721205 -10.25842992 66.64980133 -10.25317383 61.87231445 C-10.24737803 55.74066417 -10.26430805 49.60931583 -10.2875185 43.47771549 C-10.30222835 38.77406537 -10.30313129 34.07048843 -10.30000877 29.36681938 C-10.30052338 27.10572143 -10.305787 24.84461953 -10.31582069 22.58354378 C-10.32811438 19.42536756 -10.32143579 16.26778537 -10.30981445 13.10961914 C-10.31745819 12.16977173 -10.32510193 11.22992432 -10.33297729 10.26159668 C-10.32596298 9.40211929 -10.31894867 8.54264191 -10.3117218 7.65711975 C-10.31188954 6.91029969 -10.31205729 6.16347963 -10.31223011 5.39402866 C-9.2427513 -0.1898993 -4.86522721 0.00510517 0 0 Z " fill="#EAFA95" transform="translate(782.9375,83.5625)"/>
<path d="M0 0 C1.23492187 -0.03738281 2.46984375 -0.07476562 3.7421875 -0.11328125 C7.125 0.3125 7.125 0.3125 9.3117981 1.73324585 C12.08096005 5.67233969 11.62347802 9.30493158 11.51904297 14.00634766 C11.51308609 14.9888298 11.50712921 15.97131195 11.50099182 16.98356628 C11.47611402 20.23175857 11.42216753 23.478751 11.3671875 26.7265625 C11.34236348 28.98048347 11.31903744 31.2344214 11.29714966 33.4883728 C11.24704995 38.21125155 11.18339682 42.93368671 11.109375 47.65625 C11.01475729 53.72044081 10.94661981 59.78456035 10.88766289 65.84919167 C10.84074808 70.50227942 10.78349188 75.15519161 10.72269058 79.80811691 C10.69402863 82.044886 10.66776963 84.28168718 10.64391708 86.51851273 C10.60837961 89.63839852 10.55981057 92.7578008 10.50732422 95.87744141 C10.49887985 96.80839127 10.49043549 97.73934113 10.48173523 98.69850159 C10.46479111 99.54529984 10.44784698 100.39209808 10.4303894 101.26455688 C10.41966337 102.00232676 10.40893734 102.74009663 10.39788628 103.50022316 C10.125 105.3125 10.125 105.3125 8.125 107.3125 C5.41868306 107.4845611 2.8278606 107.54489017 0.125 107.5 C-0.61234375 107.49935547 -1.3496875 107.49871094 -2.109375 107.49804688 C-7.59398191 107.45300904 -7.59398191 107.45300904 -9.875 106.3125 C-10.05191875 93.21295273 -10.21787788 80.11331714 -10.36977577 67.01345444 C-10.44065096 60.93092328 -10.51532658 54.84848789 -10.59863281 48.76611328 C-10.67886158 42.89828852 -10.74917891 37.03042162 -10.81257248 31.16239166 C-10.83853217 28.92161927 -10.8680868 26.68088559 -10.90126419 24.44020844 C-10.94706011 21.30619351 -10.98016925 18.17228551 -11.01025391 15.03808594 C-11.0267952 14.10804245 -11.04333649 13.17799896 -11.06037903 12.21977234 C-11.06604385 11.36444412 -11.07170868 10.50911591 -11.07754517 9.62786865 C-11.0867631 8.88674709 -11.09598103 8.14562553 -11.10547829 7.38204575 C-10.83553534 4.95813288 -10.15706062 3.3788312 -8.875 1.3125 C-5.93776222 -0.15611889 -3.26907643 0.06456596 0 0 Z " fill="#EBFA96" transform="translate(490.875,83.6875)"/>
<path d="M0 0 C1.85625 -0.01160156 1.85625 -0.01160156 3.75 -0.0234375 C7 0.375 7 0.375 8.91015625 1.49609375 C10.52791883 4.28513963 10.43386619 6.61111769 10.4375 9.8125 C10.46650391 11.51212891 10.46650391 11.51212891 10.49609375 13.24609375 C10 16.375 10 16.375 8.3828125 18.7578125 C5.25042323 20.88372915 3.19811324 20.87667429 -0.5625 20.8125 C-2.26599609 20.81056641 -2.26599609 20.81056641 -4.00390625 20.80859375 C-7 20.375 -7 20.375 -8.87890625 19.28515625 C-10.6076283 16.339703 -10.39612601 13.75516172 -10.375 10.375 C-10.38273438 9.1375 -10.39046875 7.9 -10.3984375 6.625 C-10 3.375 -10 3.375 -8.9140625 1.4609375 C-5.95963156 -0.21524985 -3.3641303 -0.02102581 0 0 Z " fill="#EBFB93" transform="translate(560,170.625)"/>
<path d="M0 0 C0.33 0.66 0.66 1.32 1 2 C0.0409375 2.804375 0.0409375 2.804375 -0.9375 3.625 C-5.06287348 8.37543006 -4.1151869 15.04755159 -4.02172852 21.03466797 C-4.01212097 21.92311905 -4.00251343 22.81157013 -3.99261475 23.72694397 C-3.9597671 26.64877608 -3.91938098 29.57045194 -3.87890625 32.4921875 C-3.85459121 34.52384906 -3.83074835 36.55551631 -3.80735779 38.58718872 C-3.74465459 43.92356888 -3.67554918 49.25984756 -3.60510254 54.59613037 C-3.53429453 60.04581091 -3.46955226 65.49556315 -3.40429688 70.9453125 C-3.27546203 81.63028715 -3.13986237 92.3151644 -3 103 C-1.04174127 103.02694851 0.91662226 103.04637218 2.875 103.0625 C3.96554687 103.07410156 5.05609375 103.08570313 6.1796875 103.09765625 C8.95177546 103.19744303 8.95177546 103.19744303 11 102 C11.66 102.33 12.32 102.66 13 103 C13 76.93 13 50.86 13 24 C13.66 24 14.32 24 15 24 C14.91574178 34.39628941 14.82091559 44.79242297 14.71247292 55.18848991 C14.66245714 60.01544172 14.61612775 64.84237107 14.578125 69.66943359 C14.54133868 74.32496522 14.49499725 78.98031136 14.44193649 83.63568497 C14.42335704 85.41471234 14.40826231 87.19377953 14.39665604 88.97286606 C14.37985402 91.45850505 14.35083452 93.9437159 14.31884766 96.42919922 C14.31668747 97.17006775 14.31452728 97.91093628 14.31230164 98.67425537 C14.22810432 103.77189568 14.22810432 103.77189568 12 106 C9.29077199 106.19852102 6.70696821 106.27839477 4 106.25 C3.26265625 106.25773437 2.5253125 106.26546875 1.765625 106.2734375 C-3.7466804 106.2533196 -3.7466804 106.2533196 -6 104 C-6.204199 100.98853985 -6.28313041 98.0686697 -6.2746582 95.05566406 C-6.27976913 94.12866699 -6.28488007 93.20166992 -6.29014587 92.24658203 C-6.30409175 89.16953139 -6.30308085 86.09270357 -6.30078125 83.015625 C-6.30466647 80.88051266 -6.30900078 78.74540109 -6.31376648 76.61029053 C-6.32124019 72.12786356 -6.32092984 67.64551533 -6.31567383 63.16308594 C-6.30988873 57.42183196 -6.32678152 51.68090158 -6.3500185 45.93970108 C-6.3647626 41.5267346 -6.36562642 37.11384582 -6.36250877 32.70085907 C-6.36302201 30.58458568 -6.36826015 28.46830795 -6.37832069 26.35205841 C-6.39067569 23.38846464 -6.38389794 20.42549802 -6.37231445 17.46191406 C-6.37995819 16.58895691 -6.38760193 15.71599976 -6.39547729 14.81658936 C-6.35232581 9.81436295 -5.8291919 6.30717211 -3 2 C-2.01 1.34 -1.02 0.68 0 0 Z " fill="#E7EFA8" transform="translate(343,85)"/>
<path d="M0 0 C0.66 0.33 1.32 0.66 2 1 C2 33.67 2 66.34 2 100 C2.99 100.33 3.98 100.66 5 101 C6.4000248 101.7000124 7.79551976 102.40912445 9.1875 103.125 C12.75685908 104.23546727 15.37168038 103.71143522 19 103 C19 103.66 19 104.32 19 105 C15.84044583 106.57977708 12.46536183 106.18447084 9 106.1875 C8.26265625 106.19974609 7.5253125 106.21199219 6.765625 106.22460938 C4.84229942 106.22987395 2.91945737 106.12203447 1 106 C-1 104 -1 104 -1.24888897 102.16651917 C-1.2483442 101.41877731 -1.24779943 100.67103546 -1.24723816 99.90063477 C-1.25143265 99.04253204 -1.25562714 98.18442932 -1.25994873 97.30032349 C-1.25432922 96.3568808 -1.24870972 95.41343811 -1.24291992 94.44140625 C-1.24481827 93.44946259 -1.24671661 92.45751892 -1.24867249 91.43551636 C-1.25238843 88.14443145 -1.24166437 84.85356542 -1.23046875 81.5625 C-1.2292773 79.28328477 -1.22882371 77.00406904 -1.2290802 74.72485352 C-1.22751392 69.94316544 -1.2192132 65.16155209 -1.20581055 60.37988281 C-1.18882053 54.23926276 -1.18499613 48.09872491 -1.18575573 41.95808411 C-1.18548427 37.25019541 -1.18000694 32.54232482 -1.17275429 27.83444214 C-1.16956382 25.56973406 -1.16759933 23.30502392 -1.16686058 21.04031372 C-1.16470103 17.87970458 -1.15596508 14.71918398 -1.14526367 11.55859375 C-1.14571686 10.61515106 -1.14617004 9.67170837 -1.14663696 8.69967651 C-1.14237198 7.84157379 -1.13810699 6.98347107 -1.13371277 6.09936523 C-1.13203692 5.35162338 -1.13036108 4.60388153 -1.12863445 3.83348083 C-1 2 -1 2 0 0 Z " fill="#ECF6AA" transform="translate(774,85)"/>
<path d="M0 0 C0.81700882 0.0028299 1.63401764 0.00565979 2.4757843 0.00857544 C5.08426584 0.01976709 7.69240355 0.0448696 10.30078125 0.0703125 C12.0696565 0.08034362 13.83853713 0.08946924 15.60742188 0.09765625 C19.94284074 0.11970308 24.2780027 0.1542258 28.61328125 0.1953125 C29.10828125 1.6803125 29.10828125 1.6803125 29.61328125 3.1953125 C30.60328125 3.5253125 31.59328125 3.8553125 32.61328125 4.1953125 C34.74617381 10.37110446 34.86751256 16.16292495 34.7734375 22.64453125 C34.76823593 23.62017532 34.76303436 24.5958194 34.75767517 25.60102844 C34.73997858 28.69511359 34.70881624 31.78885619 34.67578125 34.8828125 C34.64809785 37.98744603 34.62340029 41.0920312 34.604599 44.19673157 C34.5924094 46.12222055 34.57487286 48.04768515 34.55128479 49.97306824 C34.51948543 54.23219633 34.72286332 58.01649428 35.61328125 62.1953125 C34.29229088 64.76390488 33.13349578 65.91144422 30.60351562 67.29199219 C26.35075192 68.57671016 22.31372878 68.48083666 17.89453125 68.4609375 C16.95903442 68.46285095 16.0235376 68.4647644 15.05969238 68.46673584 C13.0861789 68.46809393 11.11265636 68.46442378 9.13916016 68.45605469 C6.1238187 68.44534991 3.109073 68.45596279 0.09375 68.46875 C-1.82682423 68.46742834 -3.74739809 68.46486581 -5.66796875 68.4609375 C-6.56704956 68.46498596 -7.46613037 68.46903442 -8.39245605 68.47320557 C-16.62554462 68.41173529 -16.62554462 68.41173529 -20.38671875 66.1953125 C-23.1195701 60.1650387 -22.61678383 53.76780667 -22.51171875 47.2578125 C-22.50269531 46.19240234 -22.49367187 45.12699219 -22.484375 44.02929688 C-22.46095289 41.41773216 -22.42815327 38.80664313 -22.38671875 36.1953125 C-22.05671875 36.1953125 -21.72671875 36.1953125 -21.38671875 36.1953125 C-21.33773437 37.4740625 -21.28875 38.7528125 -21.23828125 40.0703125 C-21.16318884 41.77866472 -21.08764388 43.48699709 -21.01171875 45.1953125 C-20.98078125 46.03449219 -20.94984375 46.87367188 -20.91796875 47.73828125 C-20.63819027 53.7535185 -20.12253281 59.72368438 -17.38671875 65.1953125 C-14.69796621 66.09156335 -13.10764105 66.32987266 -10.34594727 66.35644531 C-9.5382338 66.36605286 -8.73052032 66.3756604 -7.89833069 66.38555908 C-7.02953781 66.38980896 -6.16074493 66.39405884 -5.265625 66.3984375 C-4.3693187 66.40413757 -3.47301239 66.40983765 -2.54954529 66.41571045 C-0.65405455 66.42515414 1.24145255 66.43169193 3.13696289 66.43554688 C6.03626059 66.44526383 8.9348527 66.47629752 11.83398438 66.5078125 C13.67577704 66.51434166 15.51757477 66.51959247 17.359375 66.5234375 C18.22614365 66.5357843 19.09291229 66.5481311 19.98594666 66.56085205 C24.74662919 66.54769755 24.74662919 66.54769755 29.12915039 64.86230469 C31.73210282 61.93863974 31.74485945 59.09765492 31.77441406 55.36010742 C31.78402161 54.37866257 31.79362915 53.39721771 31.80352783 52.3860321 C31.80777771 51.32664932 31.81202759 50.26726654 31.81640625 49.17578125 C31.82495636 47.53879021 31.82495636 47.53879021 31.8336792 45.86872864 C31.84312989 43.55792206 31.84966345 41.24710199 31.85351562 38.9362793 C31.86321437 35.40714902 31.89423497 31.87860278 31.92578125 28.34960938 C31.9323121 26.10417012 31.93756225 23.85872671 31.94140625 21.61328125 C31.95375305 20.55997116 31.96609985 19.50666107 31.9788208 18.4214325 C31.96237311 12.99074284 31.87530486 8.79167002 28.61328125 4.1953125 C24.81451854 2.92905826 21.18906199 2.96232703 17.2265625 2.87890625 C16.40955368 2.85812515 15.59254486 2.83734406 14.7507782 2.81593323 C12.14253091 2.75058171 9.5341835 2.69161977 6.92578125 2.6328125 C5.15689071 2.58961358 3.38801028 2.54599885 1.61914062 2.50195312 C-2.71604338 2.39491507 -7.05132804 2.29360706 -11.38671875 2.1953125 C-7.54999592 -0.36250272 -4.44135888 -0.05775206 0 0 Z " fill="#E3EDA2" transform="translate(67.38671875,102.8046875)"/>
<path d="M0 0 C0.66 0 1.32 0 2 0 C0.66875874 5.49137021 -3.34110349 9.10874364 -8 12 C-14.98116187 14.71746599 -21.46771086 15.44623426 -28.90625 15.3984375 C-29.9115979 15.40130768 -30.9169458 15.40417786 -31.95275879 15.40713501 C-34.06372648 15.40916297 -36.17471352 15.40372261 -38.28564453 15.39111328 C-41.49164395 15.37504189 -44.6963829 15.39100592 -47.90234375 15.41015625 C-49.96614858 15.40817359 -52.02995263 15.40432946 -54.09375 15.3984375 C-55.03883423 15.40451019 -55.98391846 15.41058289 -56.9576416 15.4168396 C-65.07174017 15.33232899 -73.52462362 14.24917544 -79.625 8.4375 C-80.27726562 7.83808594 -80.92953125 7.23867187 -81.6015625 6.62109375 C-83 5 -83 5 -83 3 C-80.03 3.495 -80.03 3.495 -77 4 C-77.33 5.32 -77.66 6.64 -78 8 C-77.34 8 -76.68 8 -76 8 C-76 8.66 -76 9.32 -76 10 C-75.2575 9.979375 -74.515 9.95875 -73.75 9.9375 C-71.28279043 9.99357294 -69.35838469 10.34941112 -67 11 C-66.34 11 -65.68 11 -65 11 C-65 11.66 -65 12.32 -65 13 C-58.37959004 12.88233269 -51.75934295 12.75750252 -45.13916016 12.62768555 C-42.88691268 12.58436686 -40.63463301 12.54268958 -38.38232422 12.50268555 C-35.14540911 12.44490897 -31.90865558 12.38123548 -28.671875 12.31640625 C-27.16074127 12.29133751 -27.16074127 12.29133751 -25.61907959 12.26576233 C-24.67840637 12.24581711 -23.73773315 12.22587189 -22.76855469 12.20532227 C-21.94248718 12.18977798 -21.11641968 12.1742337 -20.26531982 12.15821838 C-12.87687782 11.64218204 -6.86277207 8.5574538 -2 3 C-1.34 2.01 -0.68 1.02 0 0 Z " fill="#EBF6AA" transform="translate(115,176)"/>
<path d="M0 0 C0.66 0 1.32 0 2 0 C2.1768084 10.00483711 2.34277456 20.00978905 2.49477577 30.01503563 C2.56569415 34.66052344 2.64039202 39.30588723 2.72363281 43.95117188 C2.80377871 48.43141773 2.87412026 52.91171869 2.93757248 57.39223099 C2.96356069 59.10436328 2.99312332 60.81644505 3.02626419 62.52845383 C3.07196678 64.92046537 3.10512771 67.31233868 3.13525391 69.70458984 C3.1517952 70.41740616 3.16833649 71.13022247 3.18537903 71.86463928 C3.20029194 73.57747622 3.10943776 75.29059772 3 77 C2.01 77.99 2.01 77.99 1 79 C-0.87124497 77.12875503 -0.1740499 73.95801522 -0.20532227 71.46069336 C-0.21522186 70.77779739 -0.22512146 70.09490143 -0.23532104 69.39131165 C-0.26701935 67.12419147 -0.29172613 64.85705031 -0.31640625 62.58984375 C-0.3369686 61.02184999 -0.35796488 59.45386187 -0.37937927 57.88587952 C-0.43467424 53.75129752 -0.48405062 49.61666489 -0.53222656 45.48199463 C-0.58238753 41.26594517 -0.63810174 37.04996957 -0.69335938 32.83398438 C-0.8010317 24.55605197 -0.90245635 16.27805792 -1 8 C-1.99 9.32 -2.98 10.64 -4 12 C-3.33501617 7.61110675 -1.81242323 4.0188515 0 0 Z " fill="#E4EC97" transform="translate(268,109)"/>
<path d="M0 0 C0.66 0.33 1.32 0.66 2 1 C1.67 1.66 1.34 2.32 1 3 C0.90858216 4.3431213 0.87805848 5.69066798 0.87974548 7.03689575 C0.87837082 7.88106049 0.87699615 8.72522522 0.87557983 9.5949707 C0.87917511 10.522854 0.88277039 11.4507373 0.88647461 12.40673828 C0.88632858 13.38238739 0.88618256 14.3580365 0.8860321 15.36325073 C0.88673065 18.59896034 0.89452034 21.8346129 0.90234375 25.0703125 C0.90420814 27.30947844 0.90563194 29.54864479 0.90663147 31.78781128 C0.91045502 37.68972901 0.92028393 43.59162224 0.93133545 49.49353027 C0.94155306 55.51261056 0.94612984 61.5316948 0.95117188 67.55078125 C0.96190633 79.36719828 0.97898082 91.18359711 1 103 C4.96 103.33 8.92 103.66 13 104 C13.495 103.01 13.495 103.01 14 102 C15.32 102.99 16.64 103.98 18 105 C16.18812158 106.81187842 13.7302249 106.13234462 11.32226562 106.13671875 C10.57654297 106.13285156 9.83082031 106.12898438 9.0625 106.125 C7.9497168 106.13080078 7.9497168 106.13080078 6.81445312 106.13671875 C1.25327002 106.12663501 1.25327002 106.12663501 -1 105 C-1.17691875 91.90045273 -1.34287788 78.80081714 -1.49477577 65.70095444 C-1.56565096 59.61842328 -1.64032658 53.53598789 -1.72363281 47.45361328 C-1.80386158 41.58578852 -1.87417891 35.71792162 -1.93757248 29.84989166 C-1.96353217 27.60911927 -1.9930868 25.36838559 -2.02626419 23.12770844 C-2.07206011 19.99369351 -2.10516925 16.85978551 -2.13525391 13.72558594 C-2.1517952 12.79554245 -2.16833649 11.86549896 -2.18537903 10.90727234 C-2.19104385 10.05194412 -2.19670868 9.19661591 -2.20254517 8.31536865 C-2.2117631 7.57424709 -2.22098103 6.83312553 -2.23047829 6.06954575 C-1.96512327 3.68682954 -1.18082083 2.06935799 0 0 Z " fill="#E3EAAD" transform="translate(482,85)"/>
<path d="M0 0 C8.12990937 0.34743202 8.12990937 0.34743202 11.5 2.875 C13.64750376 5.91729699 14.12499609 8.37799292 14.12025452 12.0052948 C14.12162918 12.81717758 14.12300385 13.62906036 14.12442017 14.46554565 C14.12082489 15.35243073 14.11722961 16.2393158 14.11352539 17.15307617 C14.11367142 18.08985703 14.11381744 19.02663788 14.1139679 19.99180603 C14.1132705 23.09221705 14.10548617 26.19256821 14.09765625 29.29296875 C14.09579146 31.44102445 14.09436784 33.58908057 14.09336853 35.73713684 C14.0895482 41.39408541 14.07972201 47.05100835 14.06866455 52.70794678 C14.05844005 58.47912245 14.05386868 64.25030226 14.04882812 70.02148438 C14.03809934 81.34766752 14.02102869 92.67383163 14 104 C13.67 104 13.34 104 13 104 C12.98786972 102.2247419 12.98786972 102.2247419 12.97549438 100.41362 C12.89809709 89.27433565 12.81037413 78.13517441 12.71247292 66.99605083 C12.66247151 61.26895774 12.61614181 55.54188345 12.578125 49.81469727 C12.54132079 44.29034276 12.49497411 38.76614405 12.44193649 33.24192238 C12.42336665 31.13157693 12.40826833 29.02119805 12.39665604 26.91080284 C12.37983792 23.96079846 12.35081362 21.0111529 12.31884766 18.0612793 C12.31668747 17.18374496 12.31452728 16.30621063 12.31230164 15.40208435 C12.25077886 10.40446528 12.25077886 10.40446528 10 6 C10 5.01 10 4.02 10 3 C6.7 2.34 3.4 1.68 0 1 C0 0.67 0 0.34 0 0 Z " fill="#E1EBA0" transform="translate(274,84)"/>
<path d="M0 0 C0.81700882 0.0028299 1.63401764 0.00565979 2.4757843 0.00857544 C5.08426584 0.01976709 7.69240355 0.0448696 10.30078125 0.0703125 C12.0696565 0.08034362 13.83853713 0.08946924 15.60742188 0.09765625 C19.94284074 0.11970308 24.2780027 0.1542258 28.61328125 0.1953125 C29.10828125 1.6803125 29.10828125 1.6803125 29.61328125 3.1953125 C30.60328125 3.5253125 31.59328125 3.8553125 32.61328125 4.1953125 C34.50945147 9.69420614 34.79197797 13.53756825 33.61328125 19.1953125 C33.28328125 19.1953125 32.95328125 19.1953125 32.61328125 19.1953125 C32.43152344 17.94814453 32.43152344 17.94814453 32.24609375 16.67578125 C31.99472656 15.04576172 31.99472656 15.04576172 31.73828125 13.3828125 C31.49464844 11.76439453 31.49464844 11.76439453 31.24609375 10.11328125 C30.76195787 7.02209457 30.76195787 7.02209457 28.61328125 4.1953125 C24.81451854 2.92905826 21.18906199 2.96232703 17.2265625 2.87890625 C16.40955368 2.85812515 15.59254486 2.83734406 14.7507782 2.81593323 C12.14253091 2.75058171 9.5341835 2.69161977 6.92578125 2.6328125 C5.15689071 2.58961358 3.38801028 2.54599885 1.61914062 2.50195312 C-2.71604338 2.39491507 -7.05132804 2.29360706 -11.38671875 2.1953125 C-7.54999592 -0.36250272 -4.44135888 -0.05775206 0 0 Z " fill="#ECF7AB" transform="translate(67.38671875,102.8046875)"/>
<path d="M0 0 C0.99 0 1.98 0 3 0 C3.99 2.97 4.98 5.94 6 9 C6.66 9 7.32 9 8 9 C8.33 10.32 8.66 11.64 9 13 C12.77043032 13.14496508 16.54014742 13.23395607 20.3125 13.3125 C21.38435547 13.35439453 22.45621094 13.39628906 23.56054688 13.43945312 C25.10258789 13.46362305 25.10258789 13.46362305 26.67578125 13.48828125 C28.0975769 13.52755737 28.0975769 13.52755737 29.5480957 13.56762695 C32.26105664 13.23293206 32.26105664 13.23293206 33.70776367 10.46948242 C34.13420166 9.65455322 34.56063965 8.83962402 35 8 C35.66 8 36.32 8 37 8 C35.71537089 11.96093974 34.69876966 14.0039299 31 16 C27.84794467 16.44405311 24.74073972 16.41837249 21.5625 16.375 C20.2930957 16.39240234 20.2930957 16.39240234 18.99804688 16.41015625 C14.17378491 16.3874894 10.9137861 16.11750716 7 13 C3.7807582 9.49670746 0 4.96076155 0 0 Z " fill="#EAF4AC" transform="translate(394,175)"/>
<path d="M0 0 C1.90845703 0.04060547 1.90845703 0.04060547 3.85546875 0.08203125 C5.31919922 0.13423828 5.31919922 0.13423828 6.8125 0.1875 C6.8125 0.5175 6.8125 0.8475 6.8125 1.1875 C2.5225 1.1875 -1.7675 1.1875 -6.1875 1.1875 C-6.5175 2.5075 -6.8475 3.8275 -7.1875 5.1875 C-7.8475 5.1875 -8.5075 5.1875 -9.1875 5.1875 C-9.1875 23.6675 -9.1875 42.1475 -9.1875 61.1875 C-9.5175 61.1875 -9.8475 61.1875 -10.1875 61.1875 C-10.25699335 53.67712286 -10.31030778 46.16677904 -10.34293652 38.65615368 C-10.35859635 35.16868424 -10.3798398 31.68143468 -10.41381836 28.1940918 C-10.4526328 24.18536257 -10.4672065 20.17686452 -10.48046875 16.16796875 C-10.49595261 14.91477341 -10.51143646 13.66157806 -10.52738953 12.3704071 C-10.52761612 11.20943008 -10.52784271 10.04845306 -10.52807617 8.85229492 C-10.53473801 7.82859299 -10.54139984 6.80489105 -10.54826355 5.75016785 C-10.1875 3.1875 -10.1875 3.1875 -8.87593079 1.35176086 C-6.07893375 -0.5769141 -3.31872471 -0.09134105 0 0 Z " fill="#EAF6AA" transform="translate(422.1875,83.8125)"/>
<path d="M0 0 C1.20628008 2.33214148 2.1654738 4.49642139 3 7 C2.01 7 1.02 7 0 7 C-0.12117187 7.57621094 -0.24234375 8.15242187 -0.3671875 8.74609375 C-1.2231479 11.79479223 -2.72392259 14.34194368 -4.2578125 17.09765625 C-5.29918375 19.16813301 -5.29918375 19.16813301 -4 22 C1.61 22.33 7.22 22.66 13 23 C13 23.33 13 23.66 13 24 C9.85418577 24.02888514 6.70840531 24.04675923 3.5625 24.0625 C2.66466797 24.07087891 1.76683594 24.07925781 0.84179688 24.08789062 C-0.43920898 24.09272461 -0.43920898 24.09272461 -1.74609375 24.09765625 C-2.53685303 24.10289307 -3.3276123 24.10812988 -4.14233398 24.11352539 C-6 24 -6 24 -7 23 C-6.54997897 17.44974069 -4.97051296 12.71814541 -2.9375 7.5625 C-2.65583984 6.83095703 -2.37417969 6.09941406 -2.08398438 5.34570312 C-1.39586753 3.56126454 -0.69885394 1.78026095 0 0 Z " fill="#E9F6A7" transform="translate(625,167)"/>
<path d="M0 0 C2 3 2 3 1.75 6.125 C1.5025 7.07375 1.255 8.0225 1 9 C-1.9219769 10.46098845 -4.49893475 10.11134901 -7.7578125 10.09765625 C-8.75238968 10.09553383 -8.75238968 10.09553383 -9.76705933 10.09336853 C-11.88641863 10.08776754 -14.00567259 10.075215 -16.125 10.0625 C-17.56119639 10.05748512 -18.99739444 10.05292219 -20.43359375 10.04882812 C-23.95576345 10.03779782 -27.47787145 10.02053259 -31 10 C-31.12375 10.969375 -31.2475 11.93875 -31.375 12.9375 C-31.58125 13.948125 -31.7875 14.95875 -32 16 C-32.66 16.33 -33.32 16.66 -34 17 C-33.47731534 14.23723823 -32.89130413 11.6739124 -32 9 C-31.30962646 8.97494385 -30.61925293 8.9498877 -29.90795898 8.92407227 C-26.75098591 8.8073434 -23.59425543 8.68496822 -20.4375 8.5625 C-19.35146484 8.52318359 -18.26542969 8.48386719 -17.14648438 8.44335938 C-11.69589254 8.22798645 -6.37924559 7.91840778 -1 7 C-0.67 4.69 -0.34 2.38 0 0 Z " fill="#E8F4A9" transform="translate(678,160)"/>
<path d="M0 0 C1.90845703 0.04060547 1.90845703 0.04060547 3.85546875 0.08203125 C5.31919922 0.13423828 5.31919922 0.13423828 6.8125 0.1875 C7.1425 0.8475 7.4725 1.5075 7.8125 2.1875 C2.8625 2.5175 -2.0875 2.8475 -7.1875 3.1875 C-7.31125 5.311875 -7.435 7.43625 -7.5625 9.625 C-7.7734375 13.24609375 -7.7734375 13.24609375 -8.1875 16.1875 C-8.8475 16.5175 -9.5075 16.8475 -10.1875 17.1875 C-10.26847324 14.91725032 -10.32667704 12.64617925 -10.375 10.375 C-10.40980469 9.11042969 -10.44460938 7.84585938 -10.48046875 6.54296875 C-10.1875 3.1875 -10.1875 3.1875 -9.125 1.25 C-6.10294145 -0.40725792 -3.40573004 -0.09373569 0 0 Z " fill="#E3EFA6" transform="translate(560.1875,170.8125)"/>
<path d="M0 0 C3.39763165 6.70175051 6.45245457 13.57925005 9.375 20.5 C9.71273437 21.2940625 10.05046875 22.088125 10.3984375 22.90625 C11 25 11 25 10 28 C8.5393715 25.35261084 8 24.10551666 8 21 C7.34 21 6.68 21 6 21 C5.67 18.69 5.34 16.38 5 14 C4.34 14 3.68 14 3 14 C0.56574762 9.03006806 -0.34615998 5.65394631 0 0 Z " fill="#E7F1A2" transform="translate(697,119)"/>
<path d="M0 0 C2.83098181 3.38027678 4.38125887 6.94094213 6.0625 11 C7.9657778 15.65038387 7.9657778 15.65038387 10.14453125 20.171875 C11.61815077 23.32097974 11.65631167 26.56311673 12 30 C6.76544356 22.14816534 0 9.47940759 0 0 Z " fill="#ECF6A6" transform="translate(191,114)"/>
<path d="M0 0 C0.66 0 1.32 0 2 0 C2.10841951 1.91541138 2.18578079 3.83259773 2.25 5.75 C2.29640625 6.81734375 2.3428125 7.8846875 2.390625 8.984375 C2 12 2 12 0.40625 14.375 C-2.80363614 16.54271532 -4.91302729 16.40347891 -8.75 16.25 C-9.92046875 16.21390625 -11.0909375 16.1778125 -12.296875 16.140625 C-13.18890625 16.09421875 -14.0809375 16.0478125 -15 16 C-15.33 15.34 -15.66 14.68 -16 14 C-14.62714844 13.94392578 -14.62714844 13.94392578 -13.2265625 13.88671875 C-12.03804687 13.82097656 -10.84953125 13.75523437 -9.625 13.6875 C-8.44164062 13.62949219 -7.25828125 13.57148438 -6.0390625 13.51171875 C-5.03617188 13.34285156 -4.03328125 13.17398438 -3 13 C-2.34 12.01 -1.68 11.02 -1 10 C-0.34 10 0.32 10 1 10 C0.505 5.05 0.505 5.05 0 0 Z " fill="#E5EFA8" transform="translate(568,175)"/>
<path d="M0 0 C2.95935682 2.69032438 4.30357818 5.467872 5.9375 9.0625 C6.90041958 11.07685218 6.90041958 11.07685218 8.64453125 12.45703125 C10 14 10 14 10.07421875 16.26171875 C9.94660156 17.06222656 9.81898438 17.86273438 9.6875 18.6875 C9.50767578 19.89986328 9.50767578 19.89986328 9.32421875 21.13671875 C9.21722656 21.75160156 9.11023438 22.36648437 9 23 C7.35138475 20.52707713 6.33511416 18.56420889 5.2734375 15.83984375 C4.9640625 15.04642578 4.6546875 14.25300781 4.3359375 13.43554688 C4.01882813 12.61119141 3.70171875 11.78683594 3.375 10.9375 C2.88773438 9.69516602 2.88773438 9.69516602 2.390625 8.42773438 C0 2.25530134 0 2.25530134 0 0 Z " fill="#EAF7A8" transform="translate(686,146)"/>
<path d="M0 0 C1.31223496 3.93670488 0.24296256 6.12488144 -1 10 C-0.34 10.33 0.32 10.66 1 11 C0.67 12.98 0.34 14.96 0 17 C-2 17 -4 17 -6 17 C-4.13236819 11.27789404 -2.14710968 5.62338249 0 0 Z " fill="#EBF7A5" transform="translate(254,90)"/>
<path d="M0 0 C1.21771265 3.75120877 0.51840246 5.55159661 -1.1640625 9.1171875 C-2.44323651 11.99831774 -3.19253811 14.9564898 -4 18 C-4.66 18 -5.32 18 -6 18 C-6.33 20.31 -6.66 22.62 -7 25 C-7.99 25.33 -8.98 25.66 -10 26 C-7.24892128 17.09945121 -3.59701637 8.58356509 0 0 Z " fill="#EBF5A7" transform="translate(241,123)"/>
<path d="M0 0 C2 3.75 2 3.75 2 6 C2.66 6 3.32 6 4 6 C4.33 5.01 4.66 4.02 5 3 C7 5 7 5 7 8 C7.33 8.99 7.66 9.98 8 11 C7.5625 13.6875 7.5625 13.6875 7 16 C4.86790609 13.24709051 2.98643497 10.45583256 1.25 7.4375 C0.80140625 6.67308594 0.3528125 5.90867187 -0.109375 5.12109375 C-1 3 -1 3 0 0 Z " fill="#E8F69F" transform="translate(360,112)"/>
<path d="M0 0 C2.475 0.99 2.475 0.99 5 2 C4.67 2.66 4.34 3.32 4 4 C-1.28 4 -6.56 4 -12 4 C-12 3.01 -12 2.02 -12 1 C-8.04 1.33 -4.08 1.66 0 2 C0 1.34 0 0.68 0 0 Z " fill="#E9F4A9" transform="translate(495,187)"/>
<path d="M0 0 C2.27024968 -0.08097324 4.54132075 -0.13917704 6.8125 -0.1875 C8.07707031 -0.22230469 9.34164062 -0.25710937 10.64453125 -0.29296875 C14 0 14 0 15.94921875 1.51171875 C16.29597656 2.00285156 16.64273438 2.49398437 17 3 C16.67 3.99 16.34 4.98 16 6 C13.36 6 10.72 6 8 6 C8.33 5.34 8.66 4.68 9 4 C10.65 4 12.3 4 14 4 C14 3.34 14 2.68 14 2 C7.07 1.505 7.07 1.505 0 1 C0 0.67 0 0.34 0 0 Z " fill="#E8F3A1" transform="translate(776,84)"/>
<path d="M0 0 C0.66 0.33 1.32 0.66 2 1 C2 1.99 2 2.98 2 4 C-3.28 4 -8.56 4 -14 4 C-14.33 3.34 -14.66 2.68 -15 2 C-11.85126186 1.06051636 -9.08952193 0.92255192 -5.8125 1 C-4.20877332 1.037569 -2.60348584 1.04673183 -1 1 C-0.67 0.67 -0.34 0.34 0 0 Z " fill="#E8F3A8" transform="translate(353,187)"/>
<path d="M0 0 C0.56654297 0.72123047 0.56654297 0.72123047 1.14453125 1.45703125 C3.64531405 3.53662958 5.47306804 3.49841577 8.6875 3.6875 C9.68136719 3.75324219 10.67523438 3.81898438 11.69921875 3.88671875 C12.45847656 3.92410156 13.21773438 3.96148437 14 4 C14.33 3.01 14.66 2.02 15 1 C15.99 1.33 16.98 1.66 18 2 C17.01 3.485 17.01 3.485 16 5 C13.40990446 5.24950462 11.0812871 5.32719737 8.5 5.25 C7.81035156 5.24484375 7.12070312 5.2396875 6.41015625 5.234375 C1.30967052 5.15483526 1.30967052 5.15483526 -1 4 C-0.67 2.68 -0.34 1.36 0 0 Z " fill="#EBF1AC" transform="translate(270,186)"/>
<path d="M0 0 C1.25476971 2.50953942 0.67810745 3.37233363 0 6 C2.11925604 8.11925604 6.6196093 7.41831017 9.5625 7.5625 C10.36880859 7.60568359 11.17511719 7.64886719 12.00585938 7.69335938 C14.00368805 7.79975262 16.0018207 7.90040888 18 8 C18 8.33 18 8.66 18 9 C14.85418577 9.02888514 11.70840531 9.04675923 8.5625 9.0625 C7.21575195 9.07506836 7.21575195 9.07506836 5.84179688 9.08789062 C4.56079102 9.09272461 4.56079102 9.09272461 3.25390625 9.09765625 C2.46314697 9.10289307 1.6723877 9.10812988 0.85766602 9.11352539 C-1 9 -1 9 -2 8 C-1.28 1.28 -1.28 1.28 0 0 Z " fill="#E2EBAA" transform="translate(620,182)"/>
<path d="M0 0 C0.66 0.33 1.32 0.66 2 1 C1.45660208 5.56454251 0.20536179 8.9728176 -2 13 C-2.33333333 11.66666667 -2.66666667 10.33333333 -3 9 C-3.2475 8.319375 -3.495 7.63875 -3.75 6.9375 C-3.8325 6.298125 -3.915 5.65875 -4 5 C-2.625 3.375 -2.625 3.375 -1 2 C-0.67 1.34 -0.34 0.68 0 0 Z " fill="#E7F5A2" transform="translate(669,108)"/>
<path d="M0 0 C0.33 0 0.66 0 1 0 C1.41846009 1.57750424 1.80896389 3.16244248 2.1875 4.75 C2.40792969 5.63171875 2.62835938 6.5134375 2.85546875 7.421875 C3 10 3 10 1.55078125 12.328125 C0.78314453 13.15570313 0.78314453 13.15570313 0 14 C-0.66 13.67 -1.32 13.34 -2 13 C-1.34 8.71 -0.68 4.42 0 0 Z " fill="#EDF8AA" transform="translate(100,155)"/>
<path d="M0 0 C2.49552403 2.27597646 4.06622986 4.60721178 5.6875 7.5625 C6.12449219 8.34753906 6.56148438 9.13257813 7.01171875 9.94140625 C8 12 8 12 8 14 C7.34 14 6.68 14 6 14 C5.67 12.35 5.34 10.7 5 9 C4.01 8.67 3.02 8.34 2 8 C-0.1519437 4.77208445 -0.20086443 3.71599191 0 0 Z " fill="#EDF5B1" transform="translate(389,124)"/>
<path d="M0 0 C0 0.66 0 1.32 0 2 C-3.18824568 3.59412284 -6.62896662 3.10174735 -10.125 3.0625 C-10.87910156 3.05798828 -11.63320313 3.05347656 -12.41015625 3.04882812 C-14.27347127 3.03703499 -16.13674555 3.01909942 -18 3 C-16 1 -16 1 -13.94140625 0.83984375 C-13.15636719 0.87207031 -12.37132812 0.90429688 -11.5625 0.9375 C-7.47807295 1.09226412 -4.0818002 0 0 0 Z " fill="#E8F2B0" transform="translate(793,188)"/>
<path d="M0 0 C1.79068573 2.6860286 2.66055791 4.6626589 3.625 7.6875 C3.88539063 8.49574219 4.14578125 9.30398437 4.4140625 10.13671875 C4.60742188 10.75160156 4.80078125 11.36648437 5 12 C4.34 11.67 3.68 11.34 3 11 C3 10.34 3 9.68 3 9 C1.68 8.67 0.36 8.34 -1 8 C-1.04241723 5.66705225 -1.04092937 3.33297433 -1 1 C-0.67 0.67 -0.34 0.34 0 0 Z " fill="#EDF6A4" transform="translate(210,106)"/>
<path d="M0 0 C1.77074917 -0.02705729 3.54161711 -0.04642195 5.3125 -0.0625 C6.29863281 -0.07410156 7.28476562 -0.08570312 8.30078125 -0.09765625 C11 0 11 0 14 1 C14 1.66 14 2.32 14 3 C12.22992286 3.08114106 10.45877902 3.13925505 8.6875 3.1875 C7.70136719 3.22230469 6.71523438 3.25710937 5.69921875 3.29296875 C3 3 3 3 1.14453125 1.48828125 C0.76683594 0.99714844 0.38914062 0.50601563 0 0 Z " fill="#E8F88F" transform="translate(776,85)"/>
<path d="M0 0 C2.96865509 2.54456151 4.3619751 5.48994665 6 9 C1.25 8.25 1.25 8.25 -1 6 C-0.625 2.875 -0.625 2.875 0 0 Z " fill="#EBF3A1" transform="translate(404,151)"/>
<path d="M0 0 C0.66 0 1.32 0 2 0 C0.87204037 4.10899581 -0.33510818 8.07561214 -2 12 C-3.24674659 8.25976024 -2.76679965 5.83399823 -2 2 C-1.34 1.34 -0.68 0.68 0 0 Z " fill="#E9F5A4" transform="translate(659,135)"/>
<path d="M0 0 C0.66666667 1.33333333 1.33333333 2.66666667 2 4 C2.5775 4.99 3.155 5.98 3.75 7 C5 10 5 10 4.1875 12.375 C3.795625 12.91125 3.40375 13.4475 3 14 C0.56574762 9.03006806 -0.34615998 5.65394631 0 0 Z " fill="#EEF8AD" transform="translate(697,119)"/>
<path d="M0 0 C2.4375 0.625 2.4375 0.625 5 2 C5.75 4.875 5.75 4.875 6 8 C6.31674575 9.33737094 6.64270064 10.67288808 7 12 C3.71534104 9.20803989 1.98678042 5.76803183 0 2 C0 1.34 0 0.68 0 0 Z " fill="#EAF4A4" transform="translate(367,128)"/>
<path d="M0 0 C1.45047396 2.90094791 0.45356803 4.55972596 -0.4375 7.625 C-0.72496094 8.62789062 -1.01242188 9.63078125 -1.30859375 10.6640625 C-1.53675781 11.43492188 -1.76492187 12.20578125 -2 13 C-2.99 13 -3.98 13 -5 13 C-4.54554036 11.58208592 -4.08625056 10.16571954 -3.625 8.75 C-3.24214844 7.56664063 -3.24214844 7.56664063 -2.8515625 6.359375 C-2.04826333 4.13372042 -1.10288338 2.09068328 0 0 Z " fill="#E8F2A8" transform="translate(247,109)"/>
<path d="M0 0 C1.32 0.33 2.64 0.66 4 1 C5.25 3.5625 5.25 3.5625 6 6 C5.34 6 4.68 6 4 6 C3.67 6.99 3.34 7.98 3 9 C2.01 6.03 1.02 3.06 0 0 Z " fill="#EEF8A4" transform="translate(695,169)"/>
<path d="M0 0 C2.39073149 2.93189994 3.84107307 5.72143288 5.1875 9.25 C5.53167969 10.14203125 5.87585938 11.0340625 6.23046875 11.953125 C6.48441406 12.62859375 6.73835937 13.3040625 7 14 C6.01 14.495 6.01 14.495 5 15 C4.16013916 13.06532058 3.32831973 11.12714871 2.5 9.1875 C2.0359375 8.10855469 1.571875 7.02960938 1.09375 5.91796875 C0 3 0 3 0 0 Z " fill="#E3EEA2" transform="translate(191,114)"/>
<path d="M0 0 C0.95465783 2.16967689 1.14401212 3.56328793 0.3984375 5.82421875 C-0.35870385 7.5684743 -1.17609198 9.28627131 -2 11 C-2.97608217 8.07175348 -3.08226668 6.04386724 -3 3 C-2.01 3 -1.02 3 0 3 C0 2.01 0 1.02 0 0 Z " fill="#E5F59C" transform="translate(253,145)"/>
<path d="M0 0 C1.5625 1.125 1.5625 1.125 3 3 C2.6875 6.1875 2.6875 6.1875 2 9 C0.4375 7.3125 0.4375 7.3125 -1 5 C-0.6875 2.25 -0.6875 2.25 0 0 Z " fill="#F0FAA1" transform="translate(371,92)"/>
</svg>
