<svg width="522" height="1131" viewBox="0 0 522 1131" fill="none" xmlns="http://www.w3.org/2000/svg">
<mask id="mask0_316_3374" style="mask-type:luminance" maskUnits="userSpaceOnUse" x="1" y="1" width="1129" height="1129">
<path d="M565.93 1129.57C877.457 1129.57 1130 877.031 1130 565.503C1130 253.976 877.457 1.4325 565.93 1.4325C254.402 1.4325 1.85889 253.976 1.85889 565.503C1.85889 877.031 254.402 1129.57 565.93 1129.57Z" fill="white"/>
</mask>
<g mask="url(#mask0_316_3374)">
<path d="M565.93 2547.38C2509.55 2547.38 4085.17 2105.54 4085.17 1560.51C4085.17 1015.48 2509.55 573.639 565.93 573.639C-1377.69 573.639 -2953.31 1015.48 -2953.31 1560.51C-2953.31 2105.54 -1377.69 2547.38 565.93 2547.38Z" fill="black" stroke="#EDFE9F" stroke-width="2.22" stroke-linecap="round" stroke-linejoin="round"/>
<path d="M565.93 2547.38C1955.13 2547.38 3081.3 2107.64 3081.3 1565.19C3081.3 1022.74 1955.13 583.005 565.93 583.005C-823.271 583.005 -1949.44 1022.74 -1949.44 1565.19C-1949.44 2107.64 -823.271 2547.38 565.93 2547.38Z" fill="black" stroke="#EDFE9F" stroke-width="2.22" stroke-linecap="round" stroke-linejoin="round"/>
<path d="M565.93 2504.1C1614.81 2504.1 2465.1 2076.02 2465.1 1547.95C2465.1 1019.89 1614.81 591.802 565.93 591.802C-482.95 591.802 -1333.24 1019.89 -1333.24 1547.95C-1333.24 2076.02 -482.95 2504.1 565.93 2504.1Z" fill="black" stroke="#EDFE9F" stroke-width="2.22" stroke-linecap="round" stroke-linejoin="round"/>
<path d="M565.93 2338.81C1402.21 2338.81 2080.15 1949.84 2080.15 1470.02C2080.15 990.204 1402.21 601.235 565.93 601.235C-270.348 601.235 -948.286 990.204 -948.286 1470.02C-948.286 1949.84 -270.348 2338.81 565.93 2338.81Z" fill="black" stroke="#EDFE9F" stroke-width="2.22" stroke-linecap="round" stroke-linejoin="round"/>
<path d="M565.93 2189.59C1278.81 2189.59 1856.72 1836 1856.72 1399.83C1856.72 963.658 1278.81 610.072 565.93 610.072C-146.955 610.072 -724.862 963.658 -724.862 1399.83C-724.862 1836 -146.955 2189.59 565.93 2189.59Z" fill="black" stroke="#EDFE9F" stroke-width="2.22" stroke-linecap="round" stroke-linejoin="round"/>
<path d="M565.93 2052.84C1191.05 2052.84 1697.82 1731.9 1697.82 1336.01C1697.82 940.12 1191.05 619.186 565.93 619.186C-59.1927 619.186 -565.955 940.12 -565.955 1336.01C-565.955 1731.9 -59.1927 2052.84 565.93 2052.84Z" fill="black" stroke="#EDFE9F" stroke-width="2.22" stroke-linecap="round" stroke-linejoin="round"/>
<path d="M563.88 1933.5C1104.73 1933.5 1543.18 1641.08 1543.18 1280.36C1543.18 919.638 1104.73 627.216 563.88 627.216C23.026 627.216 -415.422 919.638 -415.422 1280.36C-415.422 1641.08 23.026 1933.5 563.88 1933.5Z" fill="black" stroke="#EDFE9F" stroke-width="2.22" stroke-linecap="round" stroke-linejoin="round"/>
<path d="M563.88 1816.16C1044.9 1816.16 1434.84 1551.76 1434.84 1225.62C1434.84 899.469 1044.9 635.074 563.88 635.074C82.8636 635.074 -307.077 899.469 -307.077 1225.62C-307.077 1551.76 82.8636 1816.16 563.88 1816.16Z" fill="black" stroke="#EDFE9F" stroke-width="2.22" stroke-linecap="round" stroke-linejoin="round"/>
<path d="M563.879 1711.27C991.896 1711.27 1338.87 1472.13 1338.87 1177.13C1338.87 882.138 991.896 642.999 563.879 642.999C135.862 642.999 -211.114 882.138 -211.114 1177.13C-211.114 1472.13 135.862 1711.27 563.879 1711.27Z" fill="black" stroke="#EDFE9F" stroke-width="2.22" stroke-linecap="round" stroke-linejoin="round"/>
<path d="M563.879 1609.56C944.684 1609.56 1253.39 1395.02 1253.39 1130.37C1253.39 865.716 944.684 651.174 563.879 651.174C183.075 651.174 -125.628 865.716 -125.628 1130.37C-125.628 1395.02 183.075 1609.56 563.879 1609.56Z" fill="black" stroke="#EDFE9F" stroke-width="2.22" stroke-linecap="round" stroke-linejoin="round"/>
<path d="M563.879 1510.66C900.343 1510.66 1173.1 1320.1 1173.1 1085.03C1173.1 849.963 900.343 659.403 563.879 659.403C227.416 659.403 -45.3418 849.963 -45.3418 1085.03C-45.3418 1320.1 227.416 1510.66 563.879 1510.66Z" fill="black" stroke="#EDFE9F" stroke-width="2.22" stroke-linecap="round" stroke-linejoin="round"/>
<path d="M563.88 1411.35C860.722 1411.35 1101.36 1244.8 1101.36 1039.34C1101.36 833.882 860.722 667.327 563.88 667.327C267.038 667.327 26.3994 833.882 26.3994 1039.34C26.3994 1244.8 267.038 1411.35 563.88 1411.35Z" fill="black" stroke="#EDFE9F" stroke-width="2.22" stroke-linecap="round" stroke-linejoin="round"/>
<path d="M563.88 1322.33C824.922 1322.33 1036.54 1177.2 1036.54 998.17C1036.54 819.14 824.922 674.007 563.88 674.007C302.838 674.007 91.2212 819.14 91.2212 998.17C91.2212 1177.2 302.838 1322.33 563.88 1322.33Z" fill="black" stroke="#EDFE9F" stroke-width="2.22" stroke-linecap="round" stroke-linejoin="round"/>
<path d="M563.879 1226.25C789.516 1226.25 972.43 1104.09 972.43 953.403C972.43 802.714 789.516 680.556 563.879 680.556C338.243 680.556 155.329 802.714 155.329 953.403C155.329 1104.09 338.243 1226.25 563.879 1226.25Z" fill="black" stroke="#EDFE9F" stroke-width="2.22" stroke-linecap="round" stroke-linejoin="round"/>
<path d="M565.93 557.367C2509.55 557.367 4085.17 115.531 4085.17 -429.502C4085.17 -974.534 2509.55 -1416.37 565.93 -1416.37C-1377.69 -1416.37 -2953.31 -974.534 -2953.31 -429.502C-2953.31 115.531 -1377.69 557.367 565.93 557.367Z" fill="black" stroke="#EDFE9F" stroke-width="2.22" stroke-linecap="round" stroke-linejoin="round"/>
<path d="M565.93 548.001C1955.13 548.001 3081.3 108.262 3081.3 -434.185C3081.3 -976.631 1955.13 -1416.37 565.93 -1416.37C-823.272 -1416.37 -1949.44 -976.631 -1949.44 -434.185C-1949.44 108.262 -823.272 548.001 565.93 548.001Z" fill="black" stroke="#EDFE9F" stroke-width="2.22" stroke-linecap="round" stroke-linejoin="round"/>
<path d="M565.93 539.204C1614.81 539.204 2465.1 111.12 2465.1 -416.947C2465.1 -945.015 1614.81 -1373.1 565.93 -1373.1C-482.95 -1373.1 -1333.24 -945.015 -1333.24 -416.947C-1333.24 111.12 -482.95 539.204 565.93 539.204Z" fill="black" stroke="#EDFE9F" stroke-width="2.22" stroke-linecap="round" stroke-linejoin="round"/>
<path d="M565.93 529.758C1402.21 529.758 2080.15 140.789 2080.15 -339.029C2080.15 -818.846 1402.21 -1207.82 565.93 -1207.82C-270.348 -1207.82 -948.286 -818.846 -948.286 -339.029C-948.286 140.789 -270.348 529.758 565.93 529.758Z" fill="black" stroke="#EDFE9F" stroke-width="2.22" stroke-linecap="round" stroke-linejoin="round"/>
<path d="M565.93 520.935C1278.81 520.935 1856.72 167.348 1856.72 -268.822C1856.72 -704.993 1278.81 -1058.58 565.93 -1058.58C-146.955 -1058.58 -724.862 -704.993 -724.862 -268.822C-724.862 167.348 -146.955 520.935 565.93 520.935Z" fill="black" stroke="#EDFE9F" stroke-width="2.22" stroke-linecap="round" stroke-linejoin="round"/>
<path d="M565.93 511.807C1191.05 511.807 1697.82 190.873 1697.82 -205.019C1697.82 -600.911 1191.05 -921.845 565.93 -921.845C-59.1927 -921.845 -565.955 -600.911 -565.955 -205.019C-565.955 190.873 -59.1927 511.807 565.93 511.807Z" fill="black" stroke="#EDFE9F" stroke-width="2.22" stroke-linecap="round" stroke-linejoin="round"/>
<path d="M563.88 503.79C1104.73 503.79 1543.18 211.369 1543.18 -149.351C1543.18 -510.071 1104.73 -802.493 563.88 -802.493C23.026 -802.493 -415.422 -510.071 -415.422 -149.351C-415.422 211.369 23.026 503.79 563.88 503.79Z" fill="black" stroke="#EDFE9F" stroke-width="2.22" stroke-linecap="round" stroke-linejoin="round"/>
<path d="M563.88 495.932C1044.9 495.932 1434.84 231.537 1434.84 -94.6099C1434.84 -420.757 1044.9 -685.152 563.88 -685.152C82.8636 -685.152 -307.077 -420.757 -307.077 -94.6099C-307.077 231.537 82.8636 495.932 563.88 495.932Z" fill="black" stroke="#EDFE9F" stroke-width="2.22" stroke-linecap="round" stroke-linejoin="round"/>
<path d="M563.879 487.994C991.896 487.994 1338.87 248.855 1338.87 -46.139C1338.87 -341.133 991.896 -580.272 563.879 -580.272C135.862 -580.272 -211.114 -341.133 -211.114 -46.139C-211.114 248.855 135.862 487.994 563.879 487.994Z" fill="black" stroke="#EDFE9F" stroke-width="2.22" stroke-linecap="round" stroke-linejoin="round"/>
<path d="M563.879 479.819C944.684 479.819 1253.39 265.277 1253.39 0.625549C1253.39 -264.026 944.684 -478.568 563.879 -478.568C183.075 -478.568 -125.628 -264.026 -125.628 0.625549C-125.628 265.277 183.075 479.819 563.879 479.819Z" fill="black" stroke="#EDFE9F" stroke-width="2.22" stroke-linecap="round" stroke-linejoin="round"/>
<path d="M563.879 471.59C900.343 471.59 1173.1 281.03 1173.1 45.9612C1173.1 -189.107 900.343 -379.668 563.879 -379.668C227.416 -379.668 -45.3418 -189.107 -45.3418 45.9612C-45.3418 281.03 227.416 471.59 563.879 471.59Z" fill="black" stroke="#EDFE9F" stroke-width="2.22" stroke-linecap="round" stroke-linejoin="round"/>
<path d="M563.88 463.666C860.722 463.666 1101.36 297.111 1101.36 91.6543C1101.36 -113.802 860.722 -280.358 563.88 -280.358C267.038 -280.358 26.3994 -113.802 26.3994 91.6543C26.3994 297.111 267.038 463.666 563.88 463.666Z" fill="black" stroke="#EDFE9F" stroke-width="2.22" stroke-linecap="round" stroke-linejoin="round"/>
<path d="M563.88 456.986C824.922 456.986 1036.54 311.853 1036.54 132.823C1036.54 -46.2076 824.922 -191.34 563.88 -191.34C302.838 -191.34 91.2212 -46.2076 91.2212 132.823C91.2212 311.853 302.838 456.986 563.88 456.986Z" fill="black" stroke="#EDFE9F" stroke-width="2.22" stroke-linecap="round" stroke-linejoin="round"/>
<path d="M563.879 450.438C789.516 450.438 972.43 328.279 972.43 177.59C972.43 26.9001 789.516 -95.2581 563.879 -95.2581C338.243 -95.2581 155.329 26.9001 155.329 177.59C155.329 328.279 338.243 450.438 563.879 450.438Z" fill="black" stroke="#EDFE9F" stroke-width="2.22" stroke-linecap="round" stroke-linejoin="round"/>
<path d="M563.879 1132.81C765.055 1132.81 928.139 1033.92 928.139 911.931C928.139 789.94 765.055 691.046 563.879 691.046C362.704 691.046 199.619 789.94 199.619 911.931C199.619 1033.92 362.704 1132.81 563.879 1132.81Z" fill="black" stroke="#EDFE9F" stroke-width="2.22" stroke-linecap="round" stroke-linejoin="round"/>
<path d="M563.879 861.264C665.15 861.264 747.246 821.16 747.246 771.69C747.246 722.22 665.15 682.117 563.879 682.117C462.609 682.117 380.512 722.22 380.512 771.69C380.512 821.16 462.609 861.264 563.879 861.264Z" stroke="#EDFE9F" stroke-width="2.22" stroke-miterlimit="10"/>
<path d="M563.879 898.278C679.463 898.278 773.162 852.045 773.162 795.013C773.162 737.981 679.463 691.747 563.879 691.747C448.296 691.747 354.597 737.981 354.597 795.013C354.597 852.045 448.296 898.278 563.879 898.278Z" stroke="#EDFE9F" stroke-width="2.22" stroke-miterlimit="10"/>
<path d="M563.879 948.138C697.253 948.138 805.374 890.74 805.374 819.936C805.374 749.132 697.253 691.734 563.879 691.734C430.505 691.734 322.384 749.132 322.384 819.936C322.384 890.74 430.505 948.138 563.879 948.138Z" stroke="#EDFE9F" stroke-width="2.22" stroke-miterlimit="10"/>
<path d="M563.879 1002.89C713.838 1002.89 835.404 933.241 835.404 847.32C835.404 761.4 713.838 691.747 563.879 691.747C413.92 691.747 292.354 761.4 292.354 847.32C292.354 933.241 413.92 1002.89 563.879 1002.89Z" stroke="#EDFE9F" stroke-width="2.22" stroke-miterlimit="10"/>
<path d="M563.879 1068.68C734.274 1068.68 872.406 983.102 872.406 877.535C872.406 771.968 734.274 686.39 563.879 686.39C393.485 686.39 255.353 771.968 255.353 877.535C255.353 983.102 393.485 1068.68 563.879 1068.68Z" stroke="#EDFE9F" stroke-width="2.22" stroke-miterlimit="10"/>
<path d="M563.879 820.399C651.714 820.399 722.918 788.777 722.918 749.77C722.918 710.762 651.714 679.14 563.879 679.14C476.044 679.14 404.84 710.762 404.84 749.77C404.84 788.777 476.044 820.399 563.879 820.399Z" stroke="#EDFE9F" stroke-width="2.22" stroke-miterlimit="10"/>
<path d="M702.479 728.14C702.479 759.824 640.422 785.501 563.866 785.501C487.31 785.501 425.252 759.824 425.252 728.14C425.252 718.139 431.443 708.747 442.304 700.558L451.816 688.586C470.099 663.226 497.694 616.594 497.694 566.125H630.024C630.024 616.607 657.606 663.226 675.902 688.586L685.414 700.558C696.275 708.747 702.466 718.139 702.466 728.14H702.479Z" fill="black" stroke="#EDFE9F" stroke-width="2.22" stroke-linecap="round" stroke-linejoin="round"/>
<path d="M464.926 667.525C464.926 682.487 509.23 694.618 563.866 694.618C618.502 694.618 662.806 682.487 662.806 667.525" stroke="#EDFE9F" stroke-width="2.22" stroke-miterlimit="10"/>
<path d="M451.354 688.652C451.354 708.403 501.73 724.41 563.879 724.41C626.029 724.41 676.405 708.403 676.405 688.652" stroke="#EDFE9F" stroke-width="2.22" stroke-miterlimit="10"/>
<path d="M691.763 708.522C691.763 734.371 634.508 755.339 563.879 755.339C493.249 755.339 435.994 734.384 435.994 708.522L451.843 688.586C470.125 663.226 497.721 616.594 497.721 566.125H630.05C630.05 616.607 657.633 663.226 675.928 688.586L691.777 708.522H691.763Z" stroke="#EDFE9F" stroke-width="2.22" stroke-linecap="round" stroke-linejoin="round"/>
<path d="M495.062 587.556C507.14 588.813 533.413 589.673 563.879 589.673C594.346 589.673 620.605 588.799 632.683 587.556" stroke="#EDFE9F" stroke-width="2.22" stroke-miterlimit="10"/>
<path d="M489.439 609.913C502.51 612.493 530.926 614.279 563.879 614.279C596.832 614.279 625.248 612.493 638.318 609.913" stroke="#EDFE9F" stroke-width="2.22" stroke-miterlimit="10"/>
<path d="M483.143 631.04C497.311 636.106 528.134 639.625 563.879 639.625C599.624 639.625 630.434 636.119 644.616 631.04" stroke="#EDFE9F" stroke-width="2.22" stroke-miterlimit="10"/>
<path d="M474.16 651.968C489.916 661.215 524.166 667.618 563.879 667.618C603.593 667.618 637.842 661.215 653.598 651.968" stroke="#EDFE9F" stroke-width="2.22" stroke-miterlimit="10"/>
<path d="M563.879 440.979C765.055 440.979 928.139 342.085 928.139 220.094C928.139 98.1033 765.055 -0.789917 563.879 -0.789917C362.704 -0.789917 199.619 98.1033 199.619 220.094C199.619 342.085 362.704 440.979 563.879 440.979Z" fill="black" stroke="#EDFE9F" stroke-width="2.22" stroke-linecap="round" stroke-linejoin="round"/>
<path d="M563.879 449.895C665.15 449.895 747.246 409.792 747.246 360.322C747.246 310.852 665.15 270.748 563.879 270.748C462.609 270.748 380.512 310.852 380.512 360.322C380.512 409.792 462.609 449.895 563.879 449.895Z" stroke="#EDFE9F" stroke-width="2.22" stroke-miterlimit="10"/>
<path d="M563.879 440.278C679.463 440.278 773.162 394.044 773.162 337.012C773.162 279.98 679.463 233.747 563.879 233.747C448.296 233.747 354.597 279.98 354.597 337.012C354.597 394.044 448.296 440.278 563.879 440.278Z" stroke="#EDFE9F" stroke-width="2.22" stroke-miterlimit="10"/>
<path d="M563.879 440.278C697.253 440.278 805.374 382.88 805.374 312.076C805.374 241.272 697.253 183.873 563.879 183.873C430.505 183.873 322.384 241.272 322.384 312.076C322.384 382.88 430.505 440.278 563.879 440.278Z" stroke="#EDFE9F" stroke-width="2.22" stroke-miterlimit="10"/>
<path d="M563.879 441.481C715 441.481 837.507 371.29 837.507 284.705C837.507 198.119 715 127.928 563.879 127.928C412.759 127.928 290.251 198.119 290.251 284.705C290.251 371.29 412.759 441.481 563.879 441.481Z" stroke="#EDFE9F" stroke-width="2.22" stroke-miterlimit="10"/>
<path d="M563.879 442.183C736.619 442.183 876.652 357.374 876.652 252.757C876.652 148.14 736.619 63.3309 563.879 63.3309C391.139 63.3309 251.106 148.14 251.106 252.757C251.106 357.374 391.139 442.183 563.879 442.183Z" stroke="#EDFE9F" stroke-width="2.22" stroke-miterlimit="10"/>
<path d="M563.879 452.872C651.714 452.872 722.918 421.25 722.918 382.242C722.918 343.234 651.714 311.613 563.879 311.613C476.044 311.613 404.84 343.234 404.84 382.242C404.84 421.25 476.044 452.872 563.879 452.872Z" stroke="#EDFE9F" stroke-width="2.22" stroke-miterlimit="10"/>
<path d="M702.479 403.872C702.479 372.188 640.422 346.51 563.866 346.51C487.31 346.51 425.252 372.188 425.252 403.872C425.252 413.873 431.443 423.265 442.304 431.454L451.816 443.426C470.099 468.786 497.694 515.418 497.694 565.887H630.024C630.024 515.405 657.606 468.786 675.902 443.426L685.414 431.454C696.275 423.265 702.466 413.873 702.466 403.872H702.479Z" fill="black" stroke="#EDFE9F" stroke-width="2.22" stroke-linecap="round" stroke-linejoin="round"/>
<path d="M464.926 464.487C464.926 449.525 509.23 437.394 563.866 437.394C618.502 437.394 662.806 449.525 662.806 464.487" stroke="#EDFE9F" stroke-width="2.22" stroke-miterlimit="10"/>
<path d="M451.354 443.36C451.354 423.609 501.73 407.602 563.879 407.602C626.029 407.602 676.405 423.609 676.405 443.36" stroke="#EDFE9F" stroke-width="2.22" stroke-miterlimit="10"/>
<path d="M691.763 423.49C691.763 397.641 634.508 376.673 563.879 376.673C493.249 376.673 435.994 397.627 435.994 423.49L451.843 443.426C470.125 468.786 497.721 515.418 497.721 565.887H630.05C630.05 515.405 657.633 468.786 675.928 443.426L691.777 423.49H691.763Z" stroke="#EDFE9F" stroke-width="2.22" stroke-linecap="round" stroke-linejoin="round"/>
<path d="M495.062 544.469C507.14 543.212 533.413 542.353 563.879 542.353C594.346 542.353 620.605 543.226 632.683 544.469" stroke="#EDFE9F" stroke-width="2.22" stroke-miterlimit="10"/>
<path d="M489.439 522.112C502.51 519.532 530.926 517.747 563.879 517.747C596.832 517.747 625.248 519.532 638.318 522.112" stroke="#EDFE9F" stroke-width="2.22" stroke-miterlimit="10"/>
<path d="M483.143 500.985C497.311 495.919 528.134 492.4 563.879 492.4C599.624 492.4 630.434 495.905 644.616 500.985" stroke="#EDFE9F" stroke-width="2.22" stroke-miterlimit="10"/>
<path d="M474.16 480.044C489.916 470.797 524.166 464.394 563.879 464.394C603.593 464.394 637.842 470.797 653.598 480.044" stroke="#EDFE9F" stroke-width="2.22" stroke-miterlimit="10"/>
<path d="M1255.33 565.556H-91.7759" stroke="#EDFE9F" stroke-width="2.22" stroke-linecap="round" stroke-linejoin="round"/>
</g>
<path d="M565.93 1129.57C877.457 1129.57 1130 877.031 1130 565.503C1130 253.976 877.457 1.4325 565.93 1.4325C254.402 1.4325 1.85889 253.976 1.85889 565.503C1.85889 877.031 254.402 1129.57 565.93 1129.57Z" stroke="#EDFE9F" stroke-width="2.22" stroke-linecap="round" stroke-linejoin="round"/>
</svg>
