<?xml version="1.0" encoding="utf-8"?>
<!-- Generator: Adobe Illustrator 27.7.0, SVG Export Plug-In . SVG Version: 6.00 Build 0)  -->
<svg version="1.1" id="Layer_1" xmlns="http://www.w3.org/2000/svg" xmlns:xlink="http://www.w3.org/1999/xlink" x="0px" y="0px"
	 viewBox="0 0 1546.1 1107.6" style="enable-background:new 0 0 1546.1 1107.6;" xml:space="preserve">
<style type="text/css">
	.st0{fill:none;stroke:#ECF992;stroke-width:1.4317;stroke-miterlimit:10;}
	.st1{fill:#031403;stroke:#ECF992;stroke-width:1.6328;stroke-miterlimit:10;}
	.st2{fill:#031403;stroke:#ECF992;stroke-width:1.8488;stroke-miterlimit:10;}
	.st3{enable-background:new    ;}
	.st4{fill:#E3FF8C;}
	.st5{fill:#E9FF92;}
	.st6{fill:#031403;}
	.st7{fill:none;stroke:#E4FF8D;stroke-miterlimit:10;}
	.st8{fill:#031403;stroke:#E4FF8D;stroke-miterlimit:10;}
	.st9{fill:none;stroke:#E4FF8D;stroke-linecap:round;stroke-linejoin:round;stroke-miterlimit:10;}
	.st10{fill:#031403;stroke:#ECF992;stroke-miterlimit:10;}
	.st11{fill:none;stroke:#ECF992;stroke-width:1.5315;stroke-miterlimit:10;}
	.st12{fill:none;stroke:#ECF992;stroke-width:1.2989;stroke-miterlimit:10;}
	.st13{fill:#D40059;stroke:#E4FF8D;stroke-miterlimit:10;}
	.st14{fill:none;stroke:#E4FF8D;stroke-width:1.322;stroke-miterlimit:10;}
</style>
<circle class="st0" cx="765.4" cy="499.7" r="326.2"/>
<path class="st1" d="M579.4,697.8H402.7c-6.1,0-11.1-5-11.1-11.1v-60.2c0-6.1,5-11.1,11.1-11.1h176.7c6.1,0,11.1,5,11.1,11.1v60.2
	C590.4,692.9,585.5,697.8,579.4,697.8z"/>
<path class="st1" d="M1125.9,697.8H949.2c-6.1,0-11.1-5-11.1-11.1v-60.2c0-6.1,5-11.1,11.1-11.1h176.7c6.1,0,11.1,5,11.1,11.1v60.2
	C1137,692.9,1132,697.8,1125.9,697.8z"/>
<path class="st2" d="M880.3,221.1H650.5c-6.9,0-12.5-5.6-12.5-12.5v-57.2c0-6.9,5.6-12.5,12.5-12.5h229.8c6.9,0,12.5,5.6,12.5,12.5
	v57.2C892.8,215.5,887.2,221.1,880.3,221.1z"/>
<g>
	<g class="st3">
		<path class="st4" d="M675.3,172.7h-8.1v-3.6h20v3.6h-8.1v20.9h-3.9V172.7z"/>
		<path class="st4" d="M692.3,175.7h3.6v3.3c0.8-2,3.1-3.6,6.3-3.6c3.7,0,6.8,1.9,7,7h-3.7c0-2.5-1.6-3.7-4.2-3.7
			c-2.7,0-5.3,1.8-5.3,5.6v9.3h-3.7V175.7z"/>
		<path class="st4" d="M712.2,188.6c0-3.9,3-5,6.3-5.4l4.6-0.4c1.5-0.1,2.6-0.5,2.6-1.8c0-1.8-1.5-2.7-4.2-2.7c-2.9,0-4.8,1-5.3,2.8
			h-3.7c0.8-4,4.2-5.8,9.1-5.8c5.3,0,7.8,2.2,7.8,6.3v11.8h-3.5V190c-1.3,2.3-3.6,4-7.3,4C715,194,712.2,192.2,712.2,188.6z
			 M719.5,190.8c3.4,0,6.2-2.1,6.2-5.1v-0.8c-0.8,0.3-1.7,0.5-3,0.6l-3.2,0.3c-1.5,0.1-3.5,0.4-3.5,2.6
			C716,190.2,717.5,190.8,719.5,190.8z"/>
		<path class="st4" d="M735.3,175.7h3.6v3.2c1.1-2.3,3.3-3.5,6.3-3.5c4.1,0,6.2,2.5,6.2,6.4v11.8h-3.7v-11.2c0-2.5-1.6-3.7-3.7-3.7
			c-2.7,0-4.9,1.9-4.9,5.2v9.7h-3.7V175.7z"/>
		<path class="st4" d="M756,188h3.8c0.9,2.1,3.3,2.9,6.6,2.9c2.9,0,4.7-0.8,4.7-2.3c0-1.2-1.2-1.9-3.2-2l-4.8-0.5
			c-3.9-0.3-6.8-1.7-6.8-5.1c0-3.6,3.2-5.7,8.5-5.7c5.1,0,8.5,2,9.2,5.7h-3.7c-0.4-2-2.9-2.8-5.6-2.8c-3.2,0-4.8,0.8-4.8,2.5
			c0,1.4,1.3,2,3.7,2.2l4.9,0.4c3.4,0.3,6.2,1.5,6.2,4.8c0,3.6-3.9,5.7-8.6,5.7C761.4,194,756.9,192.2,756,188z"/>
		<path class="st4" d="M784.5,179h-5.7v-3.3h5.7v-1.1c0-4.3,2.7-6,5.8-6h5.3v3.2h-4.8c-2,0-2.7,1.2-2.7,2.9v0.9h7.4v3.3h-7.4v14.6
			h-3.7V179z"/>
		<path class="st4" d="M800.3,184.7c0-5.8,3.9-9.3,9.2-9.3s9.2,3.4,9.2,9.3c0,5.8-3.9,9.3-9.2,9.3S800.3,190.5,800.3,184.7z
			 M809.5,190.5c3.1,0,5.4-1.9,5.4-5.8c0-3.8-2.3-5.7-5.4-5.7s-5.4,1.9-5.4,5.8C804.1,188.5,806.4,190.5,809.5,190.5z"/>
		<path class="st4" d="M824.6,175.7h3.6v3.3c0.8-2,3.1-3.6,6.3-3.6c3.7,0,6.8,1.9,7,7h-3.7c0-2.5-1.6-3.7-4.2-3.7
			c-2.7,0-5.3,1.8-5.3,5.6v9.3h-3.7V175.7z"/>
		<path class="st4" d="M844.5,175.7h3.4v2.3c0.5-1.4,1.5-2.6,3.6-2.6c1.9,0,3,1,3.5,2.7c0.5-1.5,1.7-2.7,3.9-2.7
			c2.5,0,3.9,1.4,3.9,5.2v13h-3.5v-11.9c0-2.3-0.6-3-1.9-3c-1.5,0-2.1,1.6-2.1,4v10.9h-3.5v-11.9c0-2.3-0.6-3-1.9-3
			c-1.4,0-2.1,1.6-2.1,4v10.9h-3.5V175.7z"/>
	</g>
</g>
<g>
	<g class="st3">
		<path class="st4" d="M428.8,665.5h5.8v-17.3h-5.8v-3.6h15.5v3.6h-5.8v17.3h5.8v3.6h-15.5V665.5z"/>
		<path class="st4" d="M450.6,651.2h3.6v3.2c1.1-2.3,3.3-3.5,6.3-3.5c4.1,0,6.2,2.5,6.2,6.4v11.8H463v-11.2c0-2.5-1.6-3.7-3.7-3.7
			c-2.7,0-4.9,1.9-4.9,5.2v9.7h-3.7V651.2z"/>
		<path class="st4" d="M471.8,669.9h3.8c0.2,1.9,1.8,3.3,4.7,3.3c3.1,0,4.8-1.5,4.8-4.7v-3.3c-1.1,2.2-3.4,3.3-5.8,3.3
			c-4.2,0-7.8-2.9-7.8-8.7c0-6.1,3.8-8.9,8.1-8.9c2.9,0,4.8,1.4,5.6,2.9v-2.6h3.7v16.8c0,5.5-3.6,8.1-8.5,8.1
			C475.6,676.2,472.2,673.9,471.8,669.9z M480.1,665.3c2.5,0,4.9-1.5,4.9-5.5c0-3.7-2.2-5.5-4.8-5.5c-2.6,0-5,1.7-5,5.5
			C475.2,663.5,477.4,665.3,480.1,665.3z"/>
		<path class="st4" d="M493.4,660.2c0-5.4,3.7-9.3,9.4-9.3c4.2,0,9,1.6,9,9v1.4h-14.7c0.4,3.5,2.9,4.9,5.9,4.9
			c2.2,0,4.1-0.7,4.9-2.5h3.6c-1,4.2-5.1,5.7-8.6,5.7C498.4,669.5,493.4,667,493.4,660.2z M508.2,658.3c0-2.4-1.6-4.2-5.1-4.2
			c-3.4,0-5.3,1.5-5.9,4.2H508.2z"/>
		<path class="st4" d="M515.3,663.5h3.8c0.9,2.1,3.3,2.9,6.6,2.9c2.9,0,4.7-0.8,4.7-2.3c0-1.2-1.2-1.9-3.2-2l-4.8-0.5
			c-3.9-0.3-6.8-1.7-6.8-5.1c0-3.6,3.2-5.7,8.5-5.7c5.1,0,8.5,2,9.2,5.7h-3.7c-0.4-2-2.9-2.8-5.6-2.8c-3.2,0-4.8,0.8-4.8,2.5
			c0,1.4,1.3,2,3.7,2.2l4.9,0.4c3.4,0.3,6.2,1.5,6.2,4.8c0,3.6-3.9,5.7-8.6,5.7C520.7,669.5,516.2,667.7,515.3,663.5z"/>
		<path class="st4" d="M541.7,661.8v-7.3h-5v-3.3h5v-4.4l3.7-1.1v5.5h8.1v3.3h-8.1v7.6c0,2.8,1.3,4.1,3.8,4.1c2.3,0,3.5-1.2,3.7-3.5
			h3.5c-0.4,4.6-3.2,6.8-7.3,6.8C544.6,669.5,541.7,667,541.7,661.8z"/>
	</g>
</g>
<g>
	<g class="st3">
		<path class="st4" d="M987.1,643.9h9.1c5.1,0,7.4,3.4,7.4,7.1c0,3-1.5,5.8-4.6,6.9l5.6,10.5h-4.3l-5-9.7H991v9.7h-3.8V643.9z
			 M995.6,655.3c2.7,0,4.1-1.5,4.1-4c0-2.3-1.3-3.9-4-3.9H991v7.9H995.6z"/>
		<path class="st4" d="M1007.6,659.5c0-5.8,3.9-9.3,9.2-9.3c5.3,0,9.2,3.4,9.2,9.3c0,5.8-3.9,9.3-9.2,9.3
			C1011.5,668.7,1007.6,665.3,1007.6,659.5z M1016.8,665.2c3.1,0,5.4-1.9,5.4-5.8c0-3.8-2.3-5.7-5.4-5.7c-3.1,0-5.4,1.9-5.4,5.8
			C1011.4,663.3,1013.7,665.2,1016.8,665.2z"/>
		<path class="st4" d="M1030.7,662.2v-11.7h3.7v11.3c0,2.5,1.6,3.7,3.8,3.7c2.9,0,4.9-2.3,4.9-5.5v-9.6h3.7v17.9h-3.6v-3.3
			c-1.2,2.5-3.4,3.7-6.2,3.7C1033.1,668.7,1030.7,666.2,1030.7,662.2z"/>
		<path class="st4" d="M1055.9,661.1v-7.3h-5v-3.3h5v-4.4l3.7-1.1v5.5h8.1v3.3h-8.1v7.6c0,2.8,1.3,4.1,3.8,4.1
			c2.3,0,3.5-1.2,3.7-3.5h3.5c-0.4,4.6-3.2,6.8-7.3,6.8C1058.8,668.7,1055.9,666.3,1055.9,661.1z"/>
		<path class="st4" d="M1073.8,659.5c0-5.4,3.7-9.3,9.4-9.3c4.2,0,9,1.6,9,9v1.4h-14.7c0.4,3.5,2.9,4.9,5.9,4.9
			c2.2,0,4.1-0.7,4.9-2.5h3.6c-1,4.2-5.1,5.7-8.6,5.7C1078.7,668.7,1073.8,666.3,1073.8,659.5z M1088.5,657.6c0-2.4-1.6-4.2-5.1-4.2
			c-3.4,0-5.3,1.5-5.9,4.2H1088.5z"/>
	</g>
</g>
<g>
	<circle class="st5" cx="765.4" cy="490.7" r="91.5"/>
	<path class="st6" d="M760.2,477.9v36c0,4.6,2.1,7.8,6.9,7.8c3.7,0,6.2-2.8,7.6-6.7l12.8-37.1c1-3.1,2.6-4.8,5.8-4.8
		c2.4,0,4.5,1.7,4.5,4.8v42.2c0,0.5,0.2,0.7,0.7,0.7h9.1c0.5,0,0.7-0.2,0.7-0.7v-42.4c0-8.5-6.5-15.1-14.7-15.1
		c-7.9,0-13.2,4.9-15.7,12.4l-6.1,17.9c-0.2,0.7-0.3,0.9-0.7,0.9s-0.5-0.2-0.5-0.5v-15.6c0-8.5-6.5-15.1-14.7-15.1
		c-7.9,0-13.2,4.9-15.7,12.4l-6.1,17.9c-0.2,0.7-0.3,0.9-0.7,0.9s-0.5-0.2-0.5-0.5v-29.1c0-0.5-0.2-0.7-0.7-0.7h-9.1
		c-0.5,0-0.7,0.2-0.7,0.7V514c0,4.6,2.1,7.8,6.9,7.8c3.7,0,6.2-2.8,7.6-6.7l12.8-37.1c1-2.9,2.9-4.8,5.8-4.8
		C758.1,473.1,760.2,474.8,760.2,477.9z"/>
</g>
<g class="st3">
	<path class="st4" d="M1289.5,155.7h2.7c0.3,3.6,2.7,5.1,5.7,5.1c2.9,0,4.5-1.3,4.5-3.6c0-2.3-1.5-3.2-3.6-3.8l-3.4-1.1
		c-3.6-1.1-5.3-2.8-5.3-5.9c0-4.1,3-6.1,7.3-6.1c4.1,0,7.4,1.9,7.6,6.3h-2.7c-0.2-2.9-2.4-3.9-4.9-3.9c-2.8,0-4.4,1.1-4.4,3.5
		c0,2.3,1.5,3.1,3.8,3.8l3.1,0.9c3.3,1,5.4,2.3,5.4,5.7c0,4.3-3.3,6.4-7.3,6.4C1293,163.2,1289.6,160.3,1289.5,155.7z"/>
	<path class="st4" d="M1310.1,160.2h5.4v-16.8h-5.4v-2.4h13.4v2.4h-5.4v16.8h5.4v2.4h-13.4V160.2z"/>
	<path class="st4" d="M1329.8,140.9h14.5v2.4h-11.9v7.1h11.3v2.4h-11.3v7.3h11.9v2.4h-14.5V140.9z"/>
	<path class="st4" d="M1349,140.9h4.2l2.7,13.1l2.7-13.1h4.2v21.7h-2.5v-18.1l-2.6,11.9h-3.5l-2.6-11.9v18.1h-2.5V140.9z"/>
</g>
<g class="st3">
	<path class="st4" d="M1201.8,402c0-6,1.4-11.3,7.7-11.3c6.2,0,7.7,5.3,7.7,11.5c0,6-1.4,11.3-7.7,11.3
		C1203.2,413.5,1201.8,408.1,1201.8,402z M1209.5,411c4.1,0,5-4.1,5-8.8c0-5.2-0.9-9-5.1-9c-4.1,0-5,4.1-5,8.8
		C1204.5,407.2,1205.3,411,1209.5,411z"/>
	<path class="st4" d="M1223.1,410.5h5.2v-15.8c-1.5,1.2-3.6,1.8-5.2,2v-2.3c1.9-0.2,4.2-1.1,5.6-2.9h2.1v18.9h5.2v2.4h-12.9V410.5z"
		/>
	<path class="st4" d="M1242.7,410.5h5.2v-15.8c-1.5,1.2-3.6,1.8-5.2,2v-2.3c1.9-0.2,4.2-1.1,5.6-2.9h2.1v18.9h5.2v2.4h-12.9V410.5z"
		/>
	<path class="st4" d="M1266.7,404l-7.3-12.8h3.1l5.5,10.4l5.5-10.4h3.1l-7.3,12.8v8.9h-2.6V404z"/>
	<path class="st4" d="M1300.5,391.2h8.1c4.4,0,6.4,3,6.4,6.3c0,3.5-2.2,6.7-6.8,6.7h-5.1v8.7h-2.6V391.2z M1308,401.8
		c2.8,0,4.3-1.5,4.3-4.1c0-2.4-1.4-4-4.2-4h-5v8.1H1308z"/>
	<path class="st4" d="M1319.6,410.7h6v-17.2h-4.7v-2.2h7.3v19.5h5.5v2.2h-14V410.7z"/>
	<path class="st4" d="M1338.2,408.6c0-3.1,2.1-4.3,5.4-4.6l4.4-0.4c1.5-0.2,2.6-0.5,2.6-1.8c0-1.7-1.4-2.7-4.2-2.7
		c-2.9,0-4.8,0.9-5.3,2.8h-2.5c0.7-3.3,3.6-4.9,7.8-4.9c4.5,0,6.7,1.9,6.7,5.3v10.6h-2.4v-3.3c-1.3,2.2-3.4,3.7-6.8,3.7
		C1340.8,413.3,1338.2,411.8,1338.2,408.6z M1344.3,411c3.2,0,6.3-2,6.3-5.1v-1c-0.7,0.3-1.7,0.5-3,0.7l-3.1,0.2
		c-1.5,0.1-3.7,0.4-3.7,2.7C1340.8,410.4,1342.4,411,1344.3,411z"/>
	<path class="st4" d="M1361.5,406.6v-7h-4.6v-2.2h4.6v-4.2l2.5-0.7v4.9h7.4v2.2h-7.4v7.3c0,2.8,1.4,4.2,3.9,4.2
		c2.3,0,3.5-1.1,3.7-3.5h2.4c-0.3,3.8-2.6,5.7-6.3,5.7C1363.9,413.3,1361.5,411,1361.5,406.6z"/>
	<path class="st4" d="M1382.9,399.6h-5.3v-2.2h5.3v-1.3c0-3.9,2.6-5.2,5.2-5.2h4.1v2.2h-4c-2.1,0-2.8,1.3-2.8,3.1v1.1h6.8v2.2h-6.8
		v13.4h-2.5V399.6z"/>
	<path class="st4" d="M1396.7,405.1c0-5.1,3.3-8.1,8-8.1s8,3,8,8.1c0,5.1-3.3,8.1-8,8.1S1396.7,410.2,1396.7,405.1z M1404.7,410.9
		c3.1,0,5.4-2,5.4-5.8s-2.2-5.8-5.4-5.8s-5.4,2-5.4,5.8S1401.5,410.9,1404.7,410.9z"/>
	<path class="st4" d="M1418.2,397.3h2.5v3.1c0.7-1.9,2.7-3.4,5.8-3.4c3.3,0,6.1,1.6,6.4,5.8h-2.5c0-2.3-1.7-3.6-4.2-3.6
		c-2.6,0-5.3,1.7-5.3,5.6v8.1h-2.5V397.3z"/>
	<path class="st4" d="M1435.8,397.3h2.4v2.1c0.5-1.3,1.3-2.4,3.2-2.4c1.6,0,2.8,0.9,3.2,2.5c0.5-1.4,1.7-2.5,3.6-2.5
		c2.2,0,3.6,1.4,3.6,4.8v11.1h-2.4v-10.6c0-2.4-0.7-3.1-2-3.1c-1.5,0-2.3,1.8-2.3,4.4v9.2h-2.4v-10.6c0-2.4-0.7-3.1-2-3.1
		c-1.5,0-2.3,1.8-2.3,4.4v9.2h-2.4V397.3z"/>
</g>
<g class="st3">
	<path class="st4" d="M1241.9,891.8h5.7c6.6,0,8.6,5,8.6,10.5c0,5.6-2,11.2-9.1,11.2h-5.1V891.8z M1247.1,911c4.7,0,6.4-3.4,6.4-8.6
		c0-5.1-1.5-8.2-6.1-8.2h-2.9V911H1247.1z"/>
	<path class="st4" d="M1260.1,909.2c0-3.1,2.1-4.3,5.4-4.6l4.4-0.4c1.5-0.2,2.6-0.5,2.6-1.8c0-1.7-1.4-2.7-4.2-2.7
		c-2.9,0-4.8,0.9-5.3,2.8h-2.5c0.7-3.3,3.6-4.9,7.8-4.9c4.5,0,6.7,1.9,6.7,5.3v10.6h-2.4v-3.3c-1.3,2.2-3.4,3.7-6.8,3.7
		C1262.7,913.8,1260.1,912.3,1260.1,909.2z M1266.2,911.6c3.2,0,6.3-2,6.3-5.1v-1c-0.7,0.3-1.7,0.5-3,0.7l-3.1,0.2
		c-1.5,0.1-3.7,0.4-3.7,2.7C1262.7,911,1264.3,911.6,1266.2,911.6z"/>
	<path class="st4" d="M1283.4,907.1v-7h-4.6v-2.2h4.6v-4.2l2.5-0.7v4.9h7.4v2.2h-7.4v7.3c0,2.8,1.4,4.2,3.9,4.2
		c2.3,0,3.5-1.1,3.7-3.5h2.4c-0.3,3.8-2.6,5.7-6.3,5.7C1285.8,913.8,1283.4,911.5,1283.4,907.1z"/>
	<path class="st4" d="M1299.2,909.2c0-3.1,2.1-4.3,5.4-4.6l4.4-0.4c1.5-0.2,2.6-0.5,2.6-1.8c0-1.7-1.4-2.7-4.2-2.7
		c-2.9,0-4.8,0.9-5.3,2.8h-2.5c0.7-3.3,3.6-4.9,7.8-4.9c4.5,0,6.7,1.9,6.7,5.3v10.6h-2.4v-3.3c-1.3,2.2-3.4,3.7-6.8,3.7
		C1301.7,913.8,1299.2,912.3,1299.2,909.2z M1305.3,911.6c3.2,0,6.3-2,6.3-5.1v-1c-0.7,0.3-1.7,0.5-3,0.7l-3.1,0.2
		c-1.5,0.1-3.7,0.4-3.7,2.7C1301.8,911,1303.4,911.6,1305.3,911.6z"/>
	<path class="st4" d="M1339.5,891.8h2.6V911h12.4v2.4h-15V891.8z"/>
	<path class="st4" d="M1357.7,909.2c0-3.1,2.1-4.3,5.4-4.6l4.4-0.4c1.5-0.2,2.6-0.5,2.6-1.8c0-1.7-1.4-2.7-4.2-2.7
		c-2.9,0-4.8,0.9-5.3,2.8h-2.5c0.7-3.3,3.6-4.9,7.8-4.9c4.5,0,6.7,1.9,6.7,5.3v10.6h-2.4v-3.3c-1.3,2.2-3.4,3.7-6.8,3.7
		C1360.3,913.8,1357.7,912.3,1357.7,909.2z M1363.8,911.6c3.2,0,6.3-2,6.3-5.1v-1c-0.7,0.3-1.7,0.5-3,0.7l-3.1,0.2
		c-1.5,0.1-3.7,0.4-3.7,2.7C1360.3,911,1361.9,911.6,1363.8,911.6z"/>
	<path class="st4" d="M1378.3,891.4h2.5v14.8l8.6-8.4h3.7l-7.2,6.5l7.9,9h-3.3l-6.4-7.4l-3.3,3v4.4h-2.5V891.4z"/>
	<path class="st4" d="M1396.7,905.7c0-5,3.5-8.2,8.1-8.2c3.3,0,7.8,1.1,7.8,7.8v1h-13.4c0.2,3.8,2.9,5.2,5.8,5.2c2,0,4-0.7,4.9-2.6
		h2.4c-1,3.7-4.6,4.9-7.4,4.9C1401.2,913.8,1396.7,911.8,1396.7,905.7z M1410.1,904.2c0-2.4-1.4-4.4-5.1-4.4c-3.3,0-5.2,1.6-5.7,4.4
		H1410.1z"/>
</g>
<g class="st3">
	<path class="st4" d="M1202.9,641.5h2.6v19.2h12.4v2.4h-15V641.5z"/>
	<path class="st4" d="M1221,655.4c0-5.1,3.3-8.1,8-8.1c4.6,0,8,3,8,8.1c0,5.1-3.3,8.1-8,8.1C1224.4,663.5,1221,660.5,1221,655.4z
		 M1229,661.2c3.1,0,5.4-2,5.4-5.8s-2.2-5.8-5.4-5.8c-3.1,0-5.4,2-5.4,5.8S1225.9,661.2,1229,661.2z"/>
	<path class="st4" d="M1240.9,664h2.5c0.3,1.9,1.8,3.3,4.8,3.3c3,0,4.8-1.4,4.8-4.7v-3.1c-1,2.2-3.3,3.1-5.5,3.1
		c-3.8,0-7.1-2.5-7.1-7.6c0-5.4,3.5-7.7,7.3-7.7c2.8,0,4.5,1.4,5.2,2.7v-2.4h2.5v14.8c0,4.7-3.1,7-7.3,7
		C1244.2,669.5,1241.3,667.5,1240.9,664z M1248.1,660.4c2.4,0,5-1.5,5-5.3c0-3.8-2.3-5.5-4.8-5.5c-2.6,0-5.1,1.7-5.1,5.5
		C1243.1,658.7,1245.4,660.4,1248.1,660.4z"/>
	<path class="st4" d="M1285.9,641.5h3.2l6.8,21.7h-2.8l-1.8-5.9h-7.8l-1.8,5.9h-2.8L1285.9,641.5z M1290.7,655l-3.2-10.6l-3.2,10.6
		H1290.7z"/>
	<path class="st4" d="M1300.2,647.6h2.5v3.1c1.1-2.1,3-3.4,5.9-3.4c3.6,0,5.6,2.1,5.6,5.5v10.4h-2.5v-10.1c0-2.4-1.6-3.6-3.8-3.6
		c-2.7,0-5.1,1.9-5.1,5.3v8.4h-2.5V647.6z"/>
	<path class="st4" d="M1318.7,658.9c0-3.1,2.1-4.3,5.4-4.6l4.4-0.4c1.5-0.2,2.6-0.5,2.6-1.8c0-1.7-1.4-2.7-4.2-2.7
		c-2.9,0-4.8,0.9-5.3,2.8h-2.5c0.7-3.3,3.6-4.9,7.8-4.9c4.5,0,6.7,1.9,6.7,5.3v10.6h-2.4v-3.3c-1.3,2.2-3.4,3.7-6.8,3.7
		C1321.3,663.5,1318.7,662.1,1318.7,658.9z M1324.8,661.3c3.2,0,6.3-2,6.3-5.1v-1c-0.7,0.3-1.7,0.5-3,0.7l-3.1,0.2
		c-1.5,0.1-3.7,0.4-3.7,2.7C1321.3,660.7,1322.9,661.3,1324.8,661.3z"/>
	<path class="st4" d="M1339.1,660.9h6v-17.2h-4.7v-2.2h7.3v19.5h5.5v2.2h-14V660.9z"/>
	<path class="st4" d="M1358.6,666h2.2c2.2,0,3.3-0.8,3.8-2.1l0.2-0.5l-8.1-15.8h2.9l6.4,13.1l5.9-13.1h2.6l-7.7,16.6
		c-1.3,2.8-2.6,4.1-6.2,4.1h-2.1V666z"/>
	<path class="st4" d="M1381,656.8v-7h-4.6v-2.2h4.6v-4.2l2.5-0.7v4.9h7.4v2.2h-7.4v7.3c0,2.8,1.4,4.2,3.9,4.2c2.3,0,3.5-1.1,3.7-3.5
		h2.4c-0.3,3.8-2.6,5.7-6.3,5.7C1383.4,663.5,1381,661.2,1381,656.8z"/>
	<path class="st4" d="M1397.8,660.9h6.3v-11.1h-5.1v-2.2h7.6v13.4h5.9v2.2h-14.7V660.9z M1403.5,641.3h2.9v3.1h-2.9V641.3z"/>
	<path class="st4" d="M1416.2,655.6c0-4.8,3.1-8.3,8.5-8.3c4.2,0,7,2.2,7.4,5.6h-2.6c-0.2-2.1-2-3.3-4.9-3.3c-4,0-5.9,2.3-5.9,5.8
		s1.8,5.7,5.8,5.7c2.9,0,4.6-1.2,5-3.5h2.6c-0.5,3.7-3.5,5.8-7.7,5.8C1419.1,663.5,1416.2,660.2,1416.2,655.6z"/>
	<path class="st4" d="M1435.6,658.4h2.6c1,2.2,3.5,3,6.5,3c2.8,0,4.6-0.8,4.6-2.4c0-1.1-1-1.8-2.9-2l-4.6-0.4
		c-3.5-0.3-5.9-1.6-5.9-4.4c0-3.4,3.2-4.8,7.3-4.8c4.4,0,7.3,1.8,8,4.7h-2.6c-0.4-2-2.9-2.7-5.4-2.7c-3.1,0-4.7,0.8-4.7,2.5
		c0,1.5,1.4,2.1,3.8,2.3l4.2,0.3c2.7,0.2,5.5,1.1,5.5,4.1c0,3.1-3.5,4.9-7.3,4.9C1440.1,663.5,1436.5,661.9,1435.6,658.4z"/>
</g>
<g class="st3">
	<path class="st4" d="M131.9,391.2h2.6v11.1l9-11.1h3.3l-7.3,8.8l7.7,12.9H144l-6.4-10.8l-3.1,3.8v7h-2.6V391.2z"/>
	<path class="st4" d="M150.9,407.7v-10.4h2.5v10.1c0,2.4,1.7,3.6,3.8,3.6c3,0,5.1-2.4,5.1-5.5v-8.2h2.5v15.6h-2.5v-3
		c-1.1,2.3-3.2,3.4-5.7,3.4C153.1,413.3,150.9,411.1,150.9,407.7z"/>
	<path class="st4" d="M173,410.2v2.7h-2.4v-22h2.5v9.4c0.8-1.6,2.5-3.2,5.5-3.2c4.9,0,6.8,3.9,6.8,8s-2,8.3-7,8.3
		C175.7,413.3,173.9,411.9,173,410.2z M178.1,411c3.6,0,4.7-2.9,4.7-5.9c0-3-1.1-5.7-4.6-5.7c-3.6,0-5.1,2.7-5.1,5.9
		C173.2,408.2,174.5,411,178.1,411z"/>
	<path class="st4" d="M189,405.2c0-5,3.5-8.2,8.1-8.2c3.3,0,7.8,1.1,7.8,7.8v1h-13.4c0.2,3.8,2.9,5.2,5.8,5.2c2,0,4-0.7,4.9-2.6h2.4
		c-1,3.7-4.6,4.9-7.4,4.9C193.5,413.3,189,411.3,189,405.2z M202.4,403.6c0-2.4-1.4-4.4-5.1-4.4c-3.3,0-5.2,1.6-5.7,4.4H202.4z"/>
	<path class="st4" d="M210.5,397.3h2.5v3.1c0.7-1.9,2.7-3.4,5.8-3.4c3.3,0,6.1,1.6,6.4,5.8h-2.5c0-2.3-1.7-3.6-4.2-3.6
		c-2.6,0-5.3,1.7-5.3,5.6v8.1h-2.5V397.3z"/>
	<path class="st4" d="M229.2,397.3h2.5v3.1c1.1-2.1,3-3.4,5.9-3.4c3.6,0,5.6,2.1,5.6,5.5v10.4h-2.5v-10.1c0-2.4-1.6-3.6-3.8-3.6
		c-2.7,0-5.1,1.9-5.1,5.3v8.4h-2.5V397.3z"/>
	<path class="st4" d="M247.6,405.2c0-5,3.5-8.2,8.1-8.2c3.3,0,7.8,1.1,7.8,7.8v1h-13.4c0.2,3.8,2.9,5.2,5.8,5.2c2,0,4-0.7,4.9-2.6
		h2.4c-1,3.7-4.6,4.9-7.4,4.9C252.1,413.3,247.6,411.3,247.6,405.2z M261,403.6c0-2.4-1.4-4.4-5.1-4.4c-3.3,0-5.2,1.6-5.7,4.4H261z"
		/>
	<path class="st4" d="M271,406.6v-7h-4.6v-2.2h4.6v-4.2l2.5-0.7v4.9h7.4v2.2h-7.4v7.3c0,2.8,1.4,4.2,3.9,4.2c2.3,0,3.5-1.1,3.7-3.5
		h2.4c-0.3,3.8-2.6,5.7-6.3,5.7C273.4,413.3,271,411,271,406.6z"/>
	<path class="st4" d="M286.6,405.2c0-5,3.5-8.2,8.1-8.2c3.3,0,7.8,1.1,7.8,7.8v1h-13.4c0.2,3.8,2.9,5.2,5.8,5.2c2,0,4-0.7,4.9-2.6
		h2.4c-1,3.7-4.6,4.9-7.4,4.9C291.1,413.3,286.6,411.3,286.6,405.2z M300,403.6c0-2.4-1.4-4.4-5.1-4.4c-3.3,0-5.2,1.6-5.7,4.4H300z"
		/>
	<path class="st4" d="M306,408.1h2.6c1,2.2,3.5,3,6.5,3c2.8,0,4.6-0.8,4.6-2.4c0-1.1-1-1.8-2.9-2l-4.6-0.4c-3.5-0.3-5.9-1.6-5.9-4.4
		c0-3.4,3.2-4.8,7.3-4.8c4.4,0,7.3,1.8,8,4.7H319c-0.4-2-2.9-2.7-5.4-2.7c-3.1,0-4.7,0.8-4.7,2.5c0,1.5,1.4,2.1,3.8,2.3l4.2,0.3
		c2.7,0.2,5.5,1.1,5.5,4.1c0,3.1-3.5,4.9-7.3,4.9C310.6,413.3,306.9,411.6,306,408.1z"/>
</g>
<g class="st3">
	<path class="st4" d="M159.9,656.2h2.7c0.3,3.6,2.7,5.1,5.7,5.1c2.9,0,4.5-1.3,4.5-3.6c0-2.3-1.5-3.2-3.6-3.8l-3.4-1.1
		c-3.6-1.1-5.3-2.8-5.3-5.9c0-4.1,3-6.1,7.3-6.1c4.1,0,7.4,1.9,7.6,6.3h-2.7c-0.2-2.9-2.4-3.9-4.9-3.9c-2.8,0-4.4,1.1-4.4,3.5
		c0,2.3,1.5,3.1,3.8,3.8l3.1,0.9c3.3,1,5.4,2.3,5.4,5.7c0,4.3-3.3,6.4-7.3,6.4C163.4,663.7,160,660.8,159.9,656.2z"/>
	<path class="st4" d="M179.3,655.4c0-5,3.5-8.2,8.1-8.2c3.3,0,7.8,1.1,7.8,7.8v1h-13.4c0.2,3.8,2.9,5.2,5.8,5.2c2,0,4-0.7,4.9-2.6
		h2.4c-1,3.7-4.6,4.9-7.4,4.9C183.7,663.5,179.3,661.5,179.3,655.4z M192.7,653.9c0-2.4-1.4-4.4-5.1-4.4c-3.3,0-5.2,1.6-5.7,4.4
		H192.7z"/>
	<path class="st4" d="M200.8,647.6h2.5v3.1c0.7-1.9,2.7-3.4,5.8-3.4c3.3,0,6.1,1.6,6.4,5.8h-2.5c0-2.3-1.7-3.6-4.2-3.6
		c-2.6,0-5.3,1.7-5.3,5.6v8.1h-2.5V647.6z"/>
	<path class="st4" d="M217.4,647.6h2.9l6,13.1l6-13.1h2.9l-7.5,15.6h-2.7L217.4,647.6z"/>
	<path class="st4" d="M237.8,655.4c0-5,3.5-8.2,8.1-8.2c3.3,0,7.8,1.1,7.8,7.8v1h-13.4c0.2,3.8,2.9,5.2,5.8,5.2c2,0,4-0.7,4.9-2.6
		h2.4c-1,3.7-4.6,4.9-7.4,4.9C242.3,663.5,237.8,661.5,237.8,655.4z M251.2,653.9c0-2.4-1.4-4.4-5.1-4.4c-3.3,0-5.2,1.6-5.7,4.4
		H251.2z"/>
	<path class="st4" d="M259.3,647.6h2.5v3.1c0.7-1.9,2.7-3.4,5.8-3.4c3.3,0,6.1,1.6,6.4,5.8h-2.5c0-2.3-1.7-3.6-4.2-3.6
		c-2.6,0-5.3,1.7-5.3,5.6v8.1h-2.5V647.6z"/>
	<path class="st4" d="M276.7,658.4h2.6c1,2.2,3.5,3,6.5,3c2.8,0,4.6-0.8,4.6-2.4c0-1.1-1-1.8-2.9-2l-4.6-0.4
		c-3.5-0.3-5.9-1.6-5.9-4.4c0-3.4,3.2-4.8,7.3-4.8c4.4,0,7.3,1.8,8,4.7h-2.6c-0.4-2-2.9-2.7-5.4-2.7c-3.1,0-4.7,0.8-4.7,2.5
		c0,1.5,1.4,2.1,3.8,2.3l4.2,0.3c2.7,0.2,5.5,1.1,5.5,4.1c0,3.1-3.5,4.9-7.3,4.9C281.3,663.5,277.6,661.9,276.7,658.4z"/>
</g>
<g>
	<g>
		<line class="st7" x1="226.3" y1="570.3" x2="226.3" y2="578.8"/>
		<rect x="218.7" y="578.8" class="st7" width="15.2" height="13.7"/>
		<line class="st7" x1="182.6" y1="587.4" x2="218.7" y2="587.4"/>
		<line class="st7" x1="233.9" y1="587.4" x2="270" y2="587.4"/>
	</g>
	<rect x="198" y="540.1" class="st7" width="56.6" height="15"/>
	<rect x="198" y="555.1" class="st7" width="56.6" height="15"/>
	<ellipse class="st7" cx="209.6" cy="547.6" rx="3.3" ry="3"/>
	<ellipse class="st7" cx="242.9" cy="547.6" rx="1.7" ry="1.5"/>
	<ellipse class="st7" cx="232.9" cy="547.6" rx="1.7" ry="1.5"/>
	<rect x="198" y="525" class="st7" width="56.6" height="15"/>
	<ellipse class="st7" cx="209.6" cy="532.5" rx="3.3" ry="3"/>
	<ellipse class="st7" cx="242.9" cy="532.5" rx="1.7" ry="1.5"/>
	<ellipse class="st7" cx="232.9" cy="532.5" rx="1.7" ry="1.5"/>
	<ellipse class="st7" cx="209.6" cy="562.6" rx="3.3" ry="3"/>
	<ellipse class="st7" cx="242.9" cy="562.6" rx="1.7" ry="1.5"/>
	<ellipse class="st7" cx="232.9" cy="562.6" rx="1.7" ry="1.5"/>
	<path class="st7" d="M252.4,554.2"/>
</g>
<g class="st3">
	<path class="st4" d="M117.3,140.9h3.2l6.8,21.7h-2.8l-1.8-5.9H115l-1.8,5.9h-2.8L117.3,140.9z M122.1,154.5l-3.2-10.6l-3.2,10.6
		H122.1z"/>
	<path class="st4" d="M131.6,147.1h2.5v3.2c0.7-2,2.6-3.5,5.5-3.5c3.8,0,6.9,2.5,6.9,8c0,5.5-3.2,7.9-7.1,7.9
		c-2.9,0-4.4-1.3-5.2-2.7v8.7h-2.5V147.1z M139,160.3c2.8,0,4.8-1.7,4.8-5.6c0-3.9-2-5.6-4.8-5.6c-2.8,0-4.9,1.6-4.9,5.6
		S136.3,160.3,139,160.3z"/>
	<path class="st4" d="M151.1,147.1h2.5v3.2c0.7-2,2.6-3.5,5.5-3.5c3.8,0,6.9,2.5,6.9,8c0,5.5-3.2,7.9-7.1,7.9
		c-2.9,0-4.4-1.3-5.2-2.7v8.7h-2.5V147.1z M158.5,160.3c2.8,0,4.8-1.7,4.8-5.6c0-3.9-2-5.6-4.8-5.6c-2.8,0-4.9,1.6-4.9,5.6
		S155.8,160.3,158.5,160.3z"/>
	<path class="st4" d="M170.5,160.4h6v-17.2h-4.7v-2.2h7.3v19.5h5.5v2.2h-14V160.4z"/>
	<path class="st4" d="M190.1,160.4h6.3v-11.1h-5.1v-2.2h7.6v13.4h5.9v2.2h-14.7V160.4z M195.9,140.8h2.9v3.1h-2.9V140.8z"/>
	<path class="st4" d="M208.6,155c0-4.8,3.1-8.3,8.5-8.3c4.2,0,7,2.2,7.4,5.6h-2.6c-0.2-2.1-2-3.3-4.9-3.3c-4,0-5.9,2.3-5.9,5.8
		s1.8,5.7,5.8,5.7c2.9,0,4.6-1.2,5-3.5h2.6c-0.5,3.7-3.5,5.8-7.7,5.8C211.4,163,208.6,159.6,208.6,155z"/>
	<path class="st4" d="M228.1,158.4c0-3.1,2.1-4.3,5.4-4.6l4.4-0.4c1.5-0.2,2.6-0.5,2.6-1.8c0-1.7-1.4-2.7-4.2-2.7
		c-2.9,0-4.8,0.9-5.3,2.8h-2.5c0.7-3.3,3.6-4.9,7.8-4.9c4.5,0,6.7,1.9,6.7,5.3v10.6h-2.4v-3.3c-1.3,2.2-3.4,3.7-6.8,3.7
		C230.7,163,228.1,161.5,228.1,158.4z M234.2,160.8c3.2,0,6.3-2,6.3-5.1v-1c-0.7,0.3-1.7,0.5-3,0.7l-3.1,0.2
		c-1.5,0.1-3.7,0.4-3.7,2.7C230.7,160.2,232.4,160.8,234.2,160.8z"/>
	<path class="st4" d="M251.4,156.3v-7h-4.6v-2.2h4.6v-4.2l2.5-0.7v4.9h7.4v2.2H254v7.3c0,2.8,1.4,4.2,3.9,4.2c2.3,0,3.5-1.1,3.7-3.5
		h2.4c-0.3,3.8-2.6,5.7-6.3,5.7C253.8,163,251.4,160.7,251.4,156.3z"/>
	<path class="st4" d="M268.2,160.4h6.3v-11.1h-5.1v-2.2h7.6v13.4h5.9v2.2h-14.7V160.4z M274,140.8h2.9v3.1H274V140.8z"/>
	<path class="st4" d="M286.6,154.9c0-5.1,3.3-8.1,8-8.1s8,3,8,8.1c0,5.1-3.3,8.1-8,8.1S286.6,160,286.6,154.9z M294.6,160.6
		c3.1,0,5.4-2,5.4-5.8s-2.2-5.8-5.4-5.8c-3.1,0-5.4,2-5.4,5.8S291.5,160.6,294.6,160.6z"/>
	<path class="st4" d="M307.2,147.1h2.5v3.1c1.1-2.1,3-3.4,5.9-3.4c3.6,0,5.6,2.1,5.6,5.5v10.4h-2.5v-10.1c0-2.4-1.6-3.6-3.8-3.6
		c-2.7,0-5.1,1.9-5.1,5.3v8.4h-2.5V147.1z"/>
	<path class="st4" d="M325.5,157.9h2.6c1,2.2,3.5,3,6.5,3c2.8,0,4.6-0.8,4.6-2.4c0-1.1-1-1.8-2.9-2l-4.6-0.4
		c-3.5-0.3-5.9-1.6-5.9-4.4c0-3.4,3.2-4.8,7.3-4.8c4.4,0,7.3,1.8,8,4.7h-2.6c-0.4-2-2.9-2.7-5.4-2.7c-3.1,0-4.7,0.8-4.7,2.5
		c0,1.5,1.4,2.1,3.8,2.3l4.2,0.3c2.7,0.2,5.5,1.1,5.5,4.1c0,3.1-3.5,4.9-7.3,4.9C330.1,163,326.4,161.3,325.5,157.9z"/>
</g>
<g>
	<g>
		<rect x="187.5" y="69.1" class="st7" width="13" height="22.8"/>
		<path class="st7" d="M200.5,88.6h55.4c0-4.9-11.4-9.8-24.4-9.8h-22.8"/>
		<path class="st7" d="M200.5,72.3h11.4c7.7,0,11.4,4.9,13,6.5"/>
	</g>
	<g>
		<path class="st7" d="M260.9,42.9c0-1.4-0.2-2.7-0.4-4l4.6-2.7L259.2,26l-4.6,2.7c-2-1.8-3.9-3.2-6.8-4v-5.4H236v5.4
			c-2.9,0.8-5,2.2-7,4l-4.7-2.7l-5.9,10.2l4.6,2.7c-0.3,1.3-0.4,2.6-0.4,4s0.1,2.7,0.4,4l-4.6,2.7l5.9,10.2l4.8-2.7
			c2,1.8,4.1,3.2,7,4v5.4h11.8v-5.4c2.9-0.8,4.8-2.2,6.8-4l4.6,2.7l5.9-10.2l-4.6-2.7C260.7,45.7,260.9,44.3,260.9,42.9z"/>
		<circle class="st7" cx="241.7" cy="42.9" r="8.8"/>
	</g>
</g>
<g>
	<path class="st7" d="M1326.6,7.9L1326.6,7.9c-9.6,9.6-38.5,17.4-38.5,17.4c0,30.6,1.9,57.5,38.4,71c36.5-13.5,38.4-40.4,38.4-71
		C1365,25.3,1336.2,17.6,1326.6,7.9z"/>
	<path class="st7" d="M1326.6,89.6c-29.2-11.5-32.5-32.4-32.7-60.6c7.1-2.1,23.5-7.4,32.7-14.4c4.6,3.4,11.4,6.9,20.5,10.2
		c4.9,1.8,9.4,3.2,12.2,4.1C1359.1,57.2,1355.8,78.1,1326.6,89.6z"/>
	<g>
		<rect x="1313" y="46.7" class="st7" width="27.1" height="21.7"/>
		<line class="st7" x1="1326.6" y1="61.6" x2="1326.6" y2="56.2"/>
		<path class="st7" d="M1318.5,46.7V44c0-4.5,3.6-8.1,8.1-8.1s8.1,3.6,8.1,8.1v2.7"/>
	</g>
</g>
<g>
	<path class="st8" d="M1380.6,829.9v5.3c0,10.4-24.2,18.9-54,18.9s-54-8.5-54-18.9V830"/>
	<ellipse class="st8" cx="1326.6" cy="829.6" rx="54" ry="18.9"/>
	<path class="st8" d="M1306.7,843.5h2.8c0,0,6.8-9.6,16.9,0h2.7"/>
	<g>
		<rect x="1298.8" y="799.3" class="st8" width="56.9" height="15.6"/>
		<rect x="1298.8" y="814.9" class="st8" width="56.9" height="15.6"/>
		<ellipse class="st8" cx="1310.5" cy="807.1" rx="3.3" ry="3.1"/>
		<ellipse class="st8" cx="1344" cy="807.1" rx="1.7" ry="1.6"/>
		<ellipse class="st8" cx="1334" cy="807.1" rx="1.7" ry="1.6"/>
		<rect x="1298.8" y="783.7" class="st8" width="56.9" height="15.6"/>
		<ellipse class="st8" cx="1310.5" cy="791.5" rx="3.3" ry="3.1"/>
		<ellipse class="st8" cx="1344" cy="791.5" rx="1.7" ry="1.6"/>
		<ellipse class="st8" cx="1334" cy="791.5" rx="1.7" ry="1.6"/>
		<ellipse class="st8" cx="1310.5" cy="822.7" rx="3.3" ry="3.1"/>
		<ellipse class="st8" cx="1344" cy="822.7" rx="1.7" ry="1.6"/>
		<ellipse class="st8" cx="1334" cy="822.7" rx="1.7" ry="1.6"/>
		<path class="st8" d="M1353.5,813.9"/>
	</g>
	<path class="st8" d="M1293.1,833.9c0,0,3.7,0.1,5.7-1.6c0,0,11.6-11.8,24.7,0c0,0,6.1,5.7,12,0c1.6-1.5,9.7-8,19.2,0
		c0.1,0,2,1.8,5.7,1.5"/>
</g>
<g>
	<g>
		<circle class="st7" cx="1325.4" cy="306.1" r="22.2"/>
		<path class="st7" d="M1360.5,349.3l-17.7-17.7c-0.7-0.7-0.7-1.8,0-2.4l4.1-4.1c0.7-0.7,1.8-0.7,2.4,0l17.7,17.7
			c0.7,0.7,0.7,1.8,0,2.4l-4.1,4.1C1362.3,350,1361.2,350,1360.5,349.3z"/>
		<line class="st7" x1="1340.5" y1="322.1" x2="1345.2" y2="326.8"/>
		<g>
			<g>
				<polyline class="st9" points="1289,335.7 1290.7,325 1301.5,327.5 				"/>
				<path class="st9" d="M1356.9,326.1c3.7-5.6,5.9-12,6.4-18.7"/>
				<path class="st9" d="M1290.8,325c10.9,17.9,34.2,23.2,51.8,13.9"/>
			</g>
			<g>
				<polyline class="st9" points="1363.2,276.4 1361.3,287.7 1349.6,285.1 				"/>
				<path class="st9" d="M1361.2,287.4c-10.7-20.3-35.8-27.3-54.8-17.2c-13.1,6.9-20.6,20.3-20.7,34.1"/>
			</g>
		</g>
	</g>
	<rect x="1314.7" y="308.4" class="st7" width="4.5" height="7"/>
	<rect x="1324" y="303.1" class="st7" width="4.5" height="12.2"/>
	<rect x="1333.3" y="296.9" class="st7" width="4.5" height="18.4"/>
</g>
<g class="st3">
	<path class="st4" d="M175,1043.7h3.5c0.3,3.2,2.3,4.7,5.1,4.7c2.6,0,3.9-1.1,3.9-3.1c0-2-1.3-2.8-3.2-3.3l-3.1-1
		c-3.6-1.1-5.6-2.8-5.6-6c0-4.3,3.2-6.3,7.4-6.3c4.3,0,7.6,2.1,7.8,6.6h-3.5c-0.2-2.6-2-3.5-4.3-3.5c-2.5,0-3.8,1-3.8,3
		c0,2,1.4,2.7,3.5,3.4l3,0.9c3.3,1,5.4,2.4,5.4,5.9c0,4.4-3.3,6.6-7.6,6.6C178.7,1051.4,175.1,1048.5,175,1043.7z"/>
	<path class="st4" d="M194.4,1042.9c0-5.1,3.4-8.2,8.2-8.2s8.2,3,8.2,8.2c0,5.1-3.4,8.2-8.2,8.2S194.4,1048.1,194.4,1042.9z
		 M202.5,1048.1c2.8,0,4.8-1.7,4.8-5.1c0-3.4-2-5.1-4.8-5.1c-2.8,0-4.8,1.7-4.8,5.1C197.8,1046.3,199.8,1048.1,202.5,1048.1z"/>
	<path class="st4" d="M214.8,1045.4V1035h3.3v10c0,2.2,1.5,3.3,3.3,3.3c2.5,0,4.3-2,4.3-4.8v-8.5h3.3v15.8H226v-2.9
		c-1,2.2-3,3.3-5.5,3.3C216.9,1051.2,214.8,1048.9,214.8,1045.4z"/>
	<path class="st4" d="M235.5,1035h3.2v2.9c0.7-1.8,2.7-3.2,5.6-3.2c3.3,0,6,1.7,6.2,6.2h-3.3c0-2.2-1.5-3.3-3.7-3.3
		c-2.4,0-4.7,1.6-4.7,5v8.2h-3.3V1035z"/>
	<path class="st4" d="M253,1043.1c0-4.8,3.1-8.4,8.6-8.4c4.5,0,7.3,2.4,7.7,5.9h-3.4c-0.2-1.9-1.7-2.9-4.3-2.9
		c-3.7,0-5.2,2.2-5.2,5.3c0,3.2,1.6,5.2,5.2,5.2c2.6,0,4.1-1.1,4.4-3.1h3.4c-0.4,3.7-3.5,6-8,6C255.8,1051.2,253,1047.7,253,1043.1z
		"/>
	<path class="st4" d="M272.5,1043c0-4.8,3.3-8.2,8.3-8.2c3.7,0,8,1.4,8,8v1.2h-13.1c0.4,3.1,2.5,4.3,5.2,4.3c2,0,3.7-0.6,4.4-2.2
		h3.2c-0.9,3.7-4.5,5.1-7.7,5.1C276.9,1051.2,272.5,1049,272.5,1043z M285.5,1041.3c0-2.1-1.4-3.7-4.5-3.7c-3,0-4.7,1.3-5.2,3.7
		H285.5z"/>
</g>
<g class="st3">
	<path class="st4" d="M605,1035.6h-7.2v-3.2h17.7v3.2h-7.2v18.5H605V1035.6z"/>
	<path class="st4" d="M619.5,1032.4h14.8v3.2h-11.4v6h10.9v3.2h-10.9v6.2h11.5v3.2h-14.9V1032.4z"/>
	<path class="st4" d="M639,1032.4h3.4v18.5h12v3.2H639V1032.4z"/>
	<path class="st4" d="M658.5,1032.4h14.8v3.2h-11.4v6h10.9v3.2h-10.9v6.2h11.5v3.2h-14.9V1032.4z"/>
	<path class="st4" d="M677.5,1032.4h4.9l2.4,12.5l2.4-12.5h4.9v21.7h-3.1v-17.4l-2.4,11.2h-3.8l-2.4-11.2v17.4h-3.1V1032.4z"/>
	<path class="st4" d="M697.6,1032.4h14.8v3.2H701v6h10.9v3.2H701v6.2h11.5v3.2h-14.9V1032.4z"/>
	<path class="st4" d="M722.2,1035.6H715v-3.2h17.7v3.2h-7.2v18.5h-3.4V1035.6z"/>
	<path class="st4" d="M736.6,1032.4h8.1c4.6,0,6.5,3,6.5,6.3c0,2.7-1.3,5.1-4.1,6.1l5,9.3h-3.8l-4.5-8.6H740v8.6h-3.4V1032.4z
		 M744.1,1042.5c2.4,0,3.6-1.4,3.6-3.5c0-2.1-1.1-3.4-3.5-3.4H740v7H744.1z"/>
	<path class="st4" d="M761.2,1045.5l-7.1-13.1h3.9l4.8,9.8l4.8-9.8h3.9l-7.1,13.1v8.6h-3.4V1045.5z"/>
	<path class="st4" d="M795.2,1032.4h8.3c4.6,0,6.6,3.1,6.6,6.6c0,3.7-2.3,7-7,7h-4.5v8.1h-3.4V1032.4z M802.9,1042.9
		c2.4,0,3.8-1.4,3.8-3.7c0-2.2-1.2-3.6-3.7-3.6h-4.4v7.3H802.9z"/>
	<path class="st4" d="M814.7,1050.9h5.1v-15.3h-5.1v-3.2h13.7v3.2h-5.1v15.3h5.1v3.2h-13.7V1050.9z"/>
	<path class="st4" d="M834.3,1032.4h8.3c4.6,0,6.6,3.1,6.6,6.6c0,3.7-2.3,7-7,7h-4.5v8.1h-3.4V1032.4z M842,1042.9
		c2.4,0,3.8-1.4,3.8-3.7c0-2.2-1.2-3.6-3.7-3.6h-4.4v7.3H842z"/>
	<path class="st4" d="M853.8,1032.4h14.8v3.2h-11.4v6h10.9v3.2h-10.9v6.2h11.5v3.2h-14.9V1032.4z"/>
	<path class="st4" d="M873.3,1032.4h3.4v18.5h12v3.2h-15.4V1032.4z"/>
	<path class="st4" d="M892.8,1050.9h5.1v-15.3h-5.1v-3.2h13.7v3.2h-5.1v15.3h5.1v3.2h-13.7V1050.9z"/>
	<path class="st4" d="M912.1,1032.4h4.2l6.2,15.2v-15.2h3.4v21.7H922l-6.4-15.8v15.8h-3.4V1032.4z"/>
	<path class="st4" d="M931.9,1032.4h14.8v3.2h-11.4v6h10.9v3.2h-10.9v6.2h11.5v3.2h-14.9V1032.4z"/>
</g>
<g class="st3">
	<path class="st4" d="M1189.4,1032h6.2c6.5,0,8.4,5.1,8.4,10.4c0,5.6-2,11.3-9,11.3h-5.6V1032z M1195.1,1050.5c4,0,5.5-3,5.5-7.9
		c0-4.8-1.3-7.4-5.1-7.4h-2.6v15.3H1195.1z"/>
	<path class="st4" d="M1207.5,1045.8c0-4.8,3.3-8.2,8.3-8.2c3.7,0,8,1.4,8,8v1.2h-13.1c0.4,3.1,2.5,4.3,5.2,4.3c2,0,3.7-0.6,4.4-2.2
		h3.2c-0.9,3.7-4.5,5.1-7.7,5.1C1211.9,1054,1207.5,1051.8,1207.5,1045.8z M1220.6,1044.1c0-2.1-1.4-3.7-4.5-3.7
		c-3,0-4.7,1.3-5.2,3.7H1220.6z"/>
	<path class="st4" d="M1226.9,1048.8h3.4c0.8,1.8,2.9,2.6,5.9,2.6c2.6,0,4.2-0.7,4.2-2c0-1.1-1-1.6-2.9-1.8l-4.2-0.4
		c-3.5-0.3-6-1.5-6-4.5c0-3.2,2.9-5,7.5-5c4.5,0,7.6,1.8,8.2,5h-3.3c-0.4-1.8-2.6-2.4-5-2.4c-2.8,0-4.2,0.7-4.2,2.2
		c0,1.2,1.1,1.8,3.3,2l4.4,0.4c3,0.3,5.5,1.3,5.5,4.2c0,3.2-3.4,5.1-7.6,5.1C1231.7,1054,1227.7,1052.4,1226.9,1048.8z"/>
	<path class="st4" d="M1250.3,1047.2v-6.4h-4.4v-2.9h4.4v-3.9l3.3-1v4.8h7.1v2.9h-7.1v6.7c0,2.5,1.2,3.7,3.3,3.7
		c2.1,0,3.1-1.1,3.3-3.1h3.1c-0.3,4.1-2.8,6-6.5,6C1252.9,1054,1250.3,1051.8,1250.3,1047.2z"/>
	<path class="st4" d="M1267.3,1050.8h6v-10h-4.9v-2.9h8.2v12.9h5.5v2.9h-14.8V1050.8z M1272.9,1031.6h3.5v3.6h-3.5V1031.6z"/>
	<path class="st4" d="M1286.7,1037.9h3.2v2.8c1-2,2.9-3.1,5.6-3.1c3.6,0,5.5,2.2,5.5,5.7v10.4h-3.3v-9.9c0-2.2-1.4-3.3-3.3-3.3
		c-2.4,0-4.3,1.6-4.3,4.6v8.6h-3.3V1037.9z"/>
	<path class="st4" d="M1305.3,1049.3c0-3.4,2.7-4.4,5.6-4.7l4.1-0.4c1.3-0.1,2.3-0.4,2.3-1.6c0-1.6-1.3-2.4-3.7-2.4
		c-2.6,0-4.2,0.9-4.7,2.5h-3.3c0.7-3.5,3.7-5.1,8.1-5.1c4.7,0,6.9,1.9,6.9,5.6v10.5h-3.1v-3.2c-1.1,2-3.2,3.5-6.4,3.5
		C1307.7,1054,1305.3,1052.4,1305.3,1049.3z M1311.7,1051.2c3,0,5.5-1.9,5.5-4.6v-0.7c-0.7,0.3-1.5,0.5-2.7,0.6l-2.8,0.3
		c-1.3,0.1-3.1,0.4-3.1,2.3C1308.6,1050.7,1309.9,1051.2,1311.7,1051.2z"/>
	<path class="st4" d="M1328.4,1047.2v-6.4h-4.4v-2.9h4.4v-3.9l3.3-1v4.8h7.1v2.9h-7.1v6.7c0,2.5,1.2,3.7,3.3,3.7
		c2.1,0,3.1-1.1,3.3-3.1h3.1c-0.3,4.1-2.8,6-6.5,6C1331,1054,1328.4,1051.8,1328.4,1047.2z"/>
	<path class="st4" d="M1345.4,1050.8h6v-10h-4.9v-2.9h8.2v12.9h5.5v2.9h-14.8V1050.8z M1351,1031.6h3.5v3.6h-3.5V1031.6z"/>
	<path class="st4" d="M1363.8,1045.8c0-5.1,3.4-8.2,8.2-8.2s8.2,3,8.2,8.2c0,5.1-3.4,8.2-8.2,8.2S1363.8,1050.9,1363.8,1045.8z
		 M1371.9,1050.9c2.8,0,4.8-1.7,4.8-5.1c0-3.4-2-5.1-4.8-5.1s-4.8,1.7-4.8,5.1C1367.1,1049.2,1369.2,1050.9,1371.9,1050.9z"/>
	<path class="st4" d="M1384.4,1037.9h3.2v2.8c1-2,2.9-3.1,5.6-3.1c3.6,0,5.5,2.2,5.5,5.7v10.4h-3.3v-9.9c0-2.2-1.4-3.3-3.3-3.3
		c-2.4,0-4.3,1.6-4.3,4.6v8.6h-3.3V1037.9z"/>
</g>
<path class="st10" d="M458.4,400l-15.5-4.2c-3.6-1-4.8-5.5-2.2-8.1l11.3-11.3l11.3-11.3c2.6-2.6,7.2-1.4,8.1,2.2l4.1,15.5l4.1,15.5
	c1,3.6-2.3,6.9-6,5.9L458.4,400z"/>
<path class="st10" d="M1052.2,361.5l13.1-9.2c3.1-2.2,7.3-0.2,7.6,3.5l1.5,15.9l1.5,15.9c0.3,3.7-3.5,6.4-6.9,4.9l-14.5-6.7
	l-14.5-6.7c-3.4-1.6-3.8-6.2-0.8-8.4L1052.2,361.5z"/>
<path class="st10" d="M783.9,825.6l-0.4,16c-0.1,3.7-4.2,6-7.4,4l-13.7-8.4l-13.7-8.4c-3.2-2-3.1-6.6,0.2-8.4l14.1-7.6l14.1-7.6
	c3.3-1.8,7.3,0.7,7.2,4.4L783.9,825.6z"/>
<line class="st11" x1="4.1" y1="997.6" x2="1539.5" y2="997.6"/>
<line class="st11" x1="4.1" y1="1086.2" x2="1539.5" y2="1086.2"/>
<line class="st12" x1="491.4" y1="996.5" x2="491.4" y2="1086.3"/>
<line class="st12" x1="1043" y1="996.5" x2="1043" y2="1086.3"/>
<g>
	<path class="st9" d="M1342.7,589.8l8.4,8.4l10.3-10.3l-8.4-8.4c1.7-2.7,2.9-7.5,3.7-10.7h11.9v-11h-11.9c-0.8-3.2-2-8-3.7-10.7
		l8.4-8.4l-10.3-10.3l-8.4,8.4c-2.7-1.7-7.5-2.9-10.7-3.7v-11.9h-11v11.9c-3.2,0.8-8,2-10.7,3.7l-8.4-8.4l-10.3,10.3l8.4,8.4
		c-1.7,2.7-2.9,7.5-3.7,10.7h-11.9v11h11.9c0.8,3.2,2,8,3.7,10.7l-8.4,8.4l10.3,10.3l8.4-8.4"/>
	<line class="st9" x1="1321.1" y1="594.4" x2="1332.1" y2="594.4"/>
	<line class="st9" x1="1321.1" y1="601.7" x2="1332.1" y2="601.7"/>
	<line class="st9" x1="1326.6" y1="601.7" x2="1326.6" y2="605.4"/>
	<path class="st9" d="M1348,563.5c0-11.2-9.6-20.3-21.5-20.3s-21.5,9.1-21.5,20.3c0,9.2,7,17,16,19.5v4.1h11V583
		C1341,580.5,1348,572.7,1348,563.5z"/>
</g>
<g class="st3">
	<path class="st4" d="M160.9,891.8h3.4l7.6,16.9v-16.9h2.6v21.7h-3l-7.9-17.6v17.6h-2.6V891.8z"/>
	<path class="st4" d="M179.3,905.7c0-5,3.5-8.2,8.1-8.2c3.3,0,7.8,1.1,7.8,7.8v1h-13.4c0.2,3.8,2.9,5.2,5.8,5.2c2,0,4-0.7,4.9-2.6
		h2.4c-1,3.7-4.6,4.9-7.4,4.9C183.7,913.8,179.3,911.8,179.3,905.7z M192.7,904.2c0-2.4-1.4-4.4-5.1-4.4c-3.3,0-5.2,1.6-5.7,4.4
		H192.7z"/>
	<path class="st4" d="M202.6,907.1v-7H198v-2.2h4.6v-4.2l2.5-0.7v4.9h7.4v2.2h-7.4v7.3c0,2.8,1.4,4.2,3.9,4.2c2.3,0,3.5-1.1,3.7-3.5
		h2.4c-0.3,3.8-2.6,5.7-6.3,5.7C205,913.8,202.6,911.5,202.6,907.1z"/>
	<path class="st4" d="M217.2,897.9h2.6l2.5,12.9l2.2-9.8h3.5l2.2,9.8l2.5-12.9h2.6l-3.4,15.6h-3.4l-2.3-10l-2.3,10h-3.4L217.2,897.9
		z"/>
	<path class="st4" d="M237.8,905.7c0-5.1,3.3-8.1,8-8.1s8,3,8,8.1s-3.3,8.1-8,8.1S237.8,910.8,237.8,905.7z M245.8,911.4
		c3.1,0,5.4-2,5.4-5.8s-2.2-5.8-5.4-5.8c-3.1,0-5.4,2-5.4,5.8S242.7,911.4,245.8,911.4z"/>
	<path class="st4" d="M259.3,897.9h2.5v3.1c0.7-1.9,2.7-3.4,5.8-3.4c3.3,0,6.1,1.6,6.4,5.8h-2.5c0-2.3-1.7-3.6-4.2-3.6
		c-2.6,0-5.3,1.7-5.3,5.6v8.1h-2.5V897.9z"/>
	<path class="st4" d="M278,891.4h2.5v14.8l8.6-8.4h3.7l-7.2,6.5l7.9,9h-3.3l-6.4-7.4l-3.3,3v4.4H278V891.4z"/>
</g>
<g>
	<g>
		<line class="st9" x1="250.6" y1="791.4" x2="262.4" y2="779.7"/>
		<circle class="st9" cx="267.7" cy="774.3" r="7.6"/>
		<line class="st9" x1="251.6" y1="830.5" x2="262.3" y2="841.2"/>
		<circle class="st9" cx="267.7" cy="846.5" r="7.6"/>
		<line class="st9" x1="248.7" y1="808.5" x2="260.1" y2="808.5"/>
		<circle class="st9" cx="267.7" cy="808.5" r="7.6"/>
	</g>
	<g>
		<line class="st9" x1="202" y1="791.4" x2="190.2" y2="779.7"/>
		<circle class="st9" cx="184.9" cy="774.3" r="7.6"/>
		<line class="st9" x1="201.1" y1="830.3" x2="190.3" y2="841.2"/>
		<circle class="st9" cx="184.8" cy="846.5" r="7.6"/>
		<line class="st9" x1="203.9" y1="808.5" x2="192.5" y2="808.5"/>
		<circle class="st9" cx="184.9" cy="808.5" r="7.6"/>
	</g>
	<g>
		<line class="st9" x1="236.5" y1="808.2" x2="222.1" y2="808.2"/>
		<line class="st9" x1="215.7" y1="808.2" x2="217.3" y2="808.2"/>
		<line class="st9" x1="236.5" y1="813" x2="222.1" y2="813"/>
		<line class="st9" x1="215.7" y1="813" x2="217.3" y2="813"/>
		<line class="st9" x1="236.5" y1="817.8" x2="222.1" y2="817.8"/>
		<line class="st9" x1="215.7" y1="817.8" x2="217.3" y2="817.8"/>
		<circle class="st13" cx="213.2" cy="799.4" r="0.8"/>
		<circle class="st13" cx="218" cy="799.4" r="0.8"/>
		<circle class="st13" cx="222.7" cy="799.4" r="0.8"/>
		<rect x="207.8" y="795.5" class="st9" width="36.7" height="30.3"/>
		<line class="st9" x1="207.8" y1="803.4" x2="244.4" y2="803.4"/>
	</g>
</g>
<g>
	<line class="st14" x1="232.8" y1="339" x2="270.4" y2="339"/>
	<g>
		<path class="st7" d="M241,303.9h14.7c5.1,0,9.2-4.1,9.2-9.2c0-4.5-3.3-8.3-7.6-9.1c0.2-0.9,0.3-1.9,0.3-2.9c0-7.2-5.8-13-13-13
			c-4.4,0-8.3,2.2-10.7,5.6c-0.8-0.2-2.1-0.3-2.9-0.3c-5.4,0-10.3,4.1-10.9,9.4"/>
		<g>
			<g>
				<path class="st7" d="M231.5,294.8c-0.6-3.6-3.7-6.4-7.4-6.4c-0.8,0-1.6,0.1-2.3,0.4c-1.1-5.8-6.1-10.1-12.2-10.1
					c-5.4,0-10.1,3.5-11.7,8.4h-0.1c-4.5,0-8.2,3.8-8.2,8.4c0,4.3,3.4,7.6,7.6,8.5l0,0H212"/>
			</g>
		</g>
		<line class="st7" x1="226.5" y1="325.5" x2="226.5" y2="331.1"/>
		<rect x="219.7" y="331.1" class="st7" width="13.6" height="13.6"/>
		<line class="st7" x1="182.2" y1="339" x2="219.8" y2="339"/>
		<path class="st7" d="M244.6,306.3c-1,0-2,0.2-2.9,0.5c-1.3-7.2-7.6-12.6-15.2-12.6c-6.8,0-12.5,4.4-14.6,10.4h-0.1
			c-5.6,0-10.2,4.7-10.2,10.4c0,5.4,4.2,9.4,9.5,10.6l0,0h33.5c5.2,0,9.4-4.4,9.4-9.6S249.8,306.3,244.6,306.3z"/>
	</g>
</g>
</svg>
