<?xml version="1.0" encoding="utf-8"?>
<!-- Generator: Adobe Illustrator 27.7.0, SVG Export Plug-In . SVG Version: 6.00 Build 0)  -->
<svg version="1.1" xmlns="http://www.w3.org/2000/svg" xmlns:xlink="http://www.w3.org/1999/xlink" x="0px" y="0px"
	 viewBox="0 0 1280 525.9" style="enable-background:new 0 0 1280 525.9;" xml:space="preserve">
<style type="text/css">
	.st0{display:none;}
	.st1{display:inline;fill:#031403;}
	.st2{fill:none;stroke:#EBF891;stroke-width:0.7025;stroke-miterlimit:10;}
	.st3{fill:#031403;stroke:#EBF891;stroke-width:0.8011;stroke-miterlimit:10;}
	.st4{fill:#031403;stroke:#EBF891;stroke-width:0.9071;stroke-miterlimit:10;}
	.st5{fill:#E2FF8B;}
	.st6{fill:#E8FF91;}
	.st7{fill:#031403;}
	.st8{fill:none;stroke:#E3FF8C;stroke-width:0.4907;stroke-miterlimit:10;}
	.st9{fill:#031403;stroke:#E3FF8C;stroke-width:0.4907;stroke-miterlimit:10;}
	.st10{fill:none;stroke:#E3FF8C;stroke-width:0.4907;stroke-linecap:round;stroke-linejoin:round;stroke-miterlimit:10;}
	.st11{fill:#031403;stroke:#EBF891;stroke-width:0.4907;stroke-miterlimit:10;}
	.st12{fill:none;stroke:#EBF891;stroke-width:0.9901;stroke-miterlimit:10;}
	.st13{fill:none;stroke:#EBF891;stroke-width:0.6373;stroke-miterlimit:10;}
	.st14{fill:#D30059;stroke:#E3FF8C;stroke-width:0.4907;stroke-miterlimit:10;}
	.st15{fill:none;stroke:#E3FF8C;stroke-width:0.6487;stroke-miterlimit:10;}
</style>
<g id="Layer_2" class="st0">
	<rect x="-680.8" y="-580.7" class="st1" width="2659.7" height="1160.2"/>
	
		<image style="display:inline;overflow:visible;" width="4468" height="1918" xlink:href="../../../../Desktop/Screenshot 2023-07-13 at 3.17.56 PM.png"  transform="matrix(0.5938 0 0 0.5938 -672.4518 -1754.7966)">
	</image>
</g>
<g id="Layer_1">
	<circle class="st2" cx="618.3" cy="223.8" r="160"/>
	<path class="st3" d="M527.1,321.1h-86.7c-3,0-5.4-2.4-5.4-5.4v-29.5c0-3,2.4-5.4,5.4-5.4h86.7c3,0,5.4,2.4,5.4,5.4v29.5
		C532.5,318.6,530.1,321.1,527.1,321.1z"/>
	<path class="st3" d="M795.2,321.1h-86.7c-3,0-5.4-2.4-5.4-5.4v-29.5c0-3,2.4-5.4,5.4-5.4h86.7c3,0,5.4,2.4,5.4,5.4v29.5
		C800.7,318.6,798.2,321.1,795.2,321.1z"/>
	<path class="st4" d="M674.7,87.1H562c-3.4,0-6.1-2.8-6.1-6.1V52.9c0-3.4,2.8-6.1,6.1-6.1h112.8c3.4,0,6.1,2.8,6.1,6.1V81
		C680.9,84.4,678.1,87.1,674.7,87.1z"/>
	<g>
		<g>
			<path class="st5" d="M574.1,63.4h-4v-1.8h9.8v1.8h-4v10.2h-1.9V63.4z"/>
			<path class="st5" d="M582.1,61.6h4.5c2.5,0,3.6,1.7,3.6,3.5c0,1.5-0.7,2.8-2.2,3.4l2.8,5.2h-2.1l-2.5-4.8H584v4.8h-1.9V61.6z
				 M586.3,67.2c1.3,0,2-0.8,2-2c0-1.2-0.6-1.9-1.9-1.9H584v3.9H586.3z"/>
			<path class="st5" d="M595.5,61.6h2.4l3.6,12h-2l-0.9-3h-3.9l-0.8,3h-2L595.5,61.6z M598.2,69l-1.5-5.3l-1.5,5.3H598.2z"/>
			<path class="st5" d="M603.6,61.6h2.3l3.5,8.4v-8.4h1.9v12h-2.2l-3.6-8.7v8.7h-1.9V61.6z"/>
			<path class="st5" d="M613.9,69.7h1.9c0.2,1.8,1.3,2.6,2.8,2.6c1.4,0,2.2-0.6,2.2-1.7c0-1.1-0.7-1.5-1.8-1.9l-1.7-0.5
				c-2-0.6-3.1-1.5-3.1-3.3c0-2.4,1.8-3.5,4.1-3.5s4.2,1.2,4.3,3.6h-1.9c-0.1-1.5-1.1-2-2.4-2c-1.4,0-2.1,0.6-2.1,1.7
				c0,1.1,0.8,1.5,1.9,1.9l1.7,0.5c1.9,0.6,3,1.3,3,3.2c0,2.4-1.9,3.6-4.2,3.6C615.9,73.9,614,72.4,613.9,69.7z"/>
			<path class="st5" d="M625.4,61.6h8.8v1.8h-6.9v3.3h6.6v1.8h-6.6v5.1h-1.9V61.6z"/>
			<path class="st5" d="M635.6,67.6c0-3.4,0.9-6.3,4.3-6.3s4.3,2.9,4.3,6.3c0,3.4-0.9,6.3-4.3,6.3S635.6,71.1,635.6,67.6z M640,72.2
				c2,0,2.4-1.9,2.4-4.5c0-2.8-0.5-4.6-2.5-4.6c-2,0-2.4,1.9-2.4,4.5C637.5,70.4,638,72.2,640,72.2z"/>
			<path class="st5" d="M647.1,61.6h4.5c2.5,0,3.6,1.7,3.6,3.5c0,1.5-0.7,2.8-2.2,3.4l2.8,5.2h-2.1l-2.5-4.8h-2.1v4.8h-1.9V61.6z
				 M651.2,67.2c1.3,0,2-0.8,2-2c0-1.2-0.6-1.9-1.9-1.9h-2.3v3.9H651.2z"/>
			<path class="st5" d="M657.6,61.6h2.7l1.3,6.9l1.3-6.9h2.7v12H664V64l-1.3,6.2h-2.1l-1.3-6.2v9.6h-1.7V61.6z"/>
		</g>
	</g>
	<g>
		<g>
			<path class="st5" d="M453.2,305.2h2.8v-8.5h-2.8v-1.8h7.6v1.8h-2.8v8.5h2.8v1.8h-7.6V305.2z"/>
			<path class="st5" d="M463.9,294.9h2.3l3.5,8.4v-8.4h1.9v12h-2.2l-3.6-8.7v8.7h-1.9V294.9z"/>
			<path class="st5" d="M474.3,301.1c0-4.2,1.2-6.5,4.3-6.5c2.5,0,3.8,1.5,3.8,4.3h-1.9c-0.1-1.6-0.6-2.5-2-2.5
				c-1.8,0-2.4,1.6-2.4,4.5c0,2.9,0.4,4.7,2.3,4.7c1.5,0,2.1-1.1,2.1-3v-0.2h-2.2v-1.7h4.1v6.3h-1.6v-1.5c-0.4,1.2-1.4,1.8-2.8,1.8
				C475,307.3,474.3,304.5,474.3,301.1z"/>
			<path class="st5" d="M485.7,294.9h8.2v1.8h-6.3v3.3h6v1.8h-6v3.4h6.4v1.8h-8.3V294.9z"/>
			<path class="st5" d="M495.8,303h1.9c0.2,1.8,1.3,2.6,2.8,2.6c1.4,0,2.2-0.6,2.2-1.7c0-1.1-0.7-1.5-1.8-1.9l-1.7-0.5
				c-2-0.6-3.1-1.5-3.1-3.3c0-2.4,1.8-3.5,4.1-3.5c2.4,0,4.2,1.2,4.3,3.6h-1.9c-0.1-1.5-1.1-2-2.4-2c-1.4,0-2.1,0.6-2.1,1.7
				c0,1.1,0.8,1.5,1.9,1.9l1.7,0.5c1.9,0.6,3,1.3,3,3.2c0,2.4-1.9,3.6-4.2,3.6C497.8,307.3,495.9,305.7,495.8,303z"/>
			<path class="st5" d="M510.1,296.7h-4v-1.8h9.8v1.8h-4v10.2h-1.9V296.7z"/>
		</g>
	</g>
	<g>
		<g>
			<path class="st5" d="M727.2,294.6h4.5c2.5,0,3.6,1.7,3.6,3.5c0,1.5-0.7,2.8-2.2,3.4l2.8,5.2h-2.1l-2.5-4.8H729v4.8h-1.9V294.6z
				 M731.3,300.2c1.3,0,2-0.8,2-2c0-1.2-0.6-1.9-1.9-1.9H729v3.9H731.3z"/>
			<path class="st5" d="M737.4,300.6c0-3.4,0.9-6.3,4.3-6.3s4.3,2.9,4.3,6.3c0,3.4-0.9,6.3-4.3,6.3S737.4,304,737.4,300.6z
				 M741.7,305.2c2,0,2.4-1.9,2.4-4.5c0-2.8-0.5-4.6-2.5-4.6c-2,0-2.4,1.9-2.4,4.5C739.3,303.4,739.7,305.2,741.7,305.2z"/>
			<path class="st5" d="M748.6,302.6v-8.1h1.9v8.1c0,1.7,0.7,2.5,2,2.5s2-0.7,2-2.5v-8.1h1.9v8.1c0,2.9-1.4,4.3-3.9,4.3
				C750,306.9,748.6,305.5,748.6,302.6z"/>
			<path class="st5" d="M762.4,296.3h-4v-1.8h9.8v1.8h-4v10.2h-1.9V296.3z"/>
			<path class="st5" d="M770.4,294.6h8.2v1.8h-6.3v3.3h6v1.8h-6v3.4h6.4v1.8h-8.3V294.6z"/>
		</g>
	</g>
	<g>
		<circle class="st6" cx="618.3" cy="219.4" r="44.9"/>
		<path class="st7" d="M615.8,213.1v17.7c0,2.3,1,3.8,3.4,3.8c1.8,0,3-1.4,3.7-3.3l6.3-18.2c0.5-1.5,1.3-2.4,2.9-2.4
			c1.2,0,2.2,0.8,2.2,2.4v20.7c0,0.2,0.1,0.3,0.3,0.3h4.4c0.2,0,0.3-0.1,0.3-0.3V213c0-4.2-3.2-7.4-7.2-7.4c-3.9,0-6.5,2.4-7.7,6.1
			l-3,8.8c-0.1,0.3-0.2,0.5-0.3,0.5c-0.2,0-0.2-0.1-0.2-0.2V213c0-4.2-3.2-7.4-7.2-7.4c-3.9,0-6.5,2.4-7.7,6.1l-3,8.8
			c-0.1,0.3-0.2,0.5-0.3,0.5c-0.2,0-0.2-0.1-0.2-0.2v-14.3c0-0.2-0.1-0.3-0.3-0.3h-4.4c-0.2,0-0.3,0.1-0.3,0.3v24.4
			c0,2.3,1,3.8,3.4,3.8c1.8,0,3-1.4,3.7-3.3l6.3-18.2c0.5-1.4,1.4-2.4,2.9-2.4C614.8,210.8,615.8,211.6,615.8,213.1z"/>
	</g>
	<g>
		<path class="st5" d="M172.6,293.5h1.5c0.2,2,1.5,2.8,3.1,2.8c1.6,0,2.5-0.7,2.5-2s-0.8-1.7-2-2.1l-1.9-0.6c-2-0.6-2.9-1.5-2.9-3.2
			c0-2.2,1.6-3.3,4-3.3c2.2,0,4.1,1,4.1,3.4h-1.5c-0.1-1.6-1.3-2.1-2.7-2.1c-1.5,0-2.4,0.6-2.4,1.9c0,1.3,0.8,1.7,2.1,2.1l1.7,0.5
			c1.8,0.5,3,1.3,3,3.1c0,2.3-1.8,3.5-4,3.5C174.5,297.6,172.7,296,172.6,293.5z"/>
		<path class="st5" d="M183.2,293.1c0-2.7,1.9-4.5,4.4-4.5c1.8,0,4.3,0.6,4.3,4.3v0.5h-7.4c0.1,2.1,1.6,2.8,3.2,2.8
			c1.1,0,2.2-0.4,2.7-1.4h1.3c-0.5,2-2.5,2.7-4.1,2.7C185.7,297.5,183.2,296.4,183.2,293.1z M190.6,292.2c0-1.3-0.8-2.4-2.8-2.4
			c-1.8,0-2.9,0.9-3.1,2.4H190.6z"/>
		<path class="st5" d="M195,288.8h1.4v1.7c0.4-1.1,1.5-1.9,3.2-1.9c1.8,0,3.4,0.9,3.5,3.2h-1.4c0-1.3-1-2-2.3-2
			c-1.4,0-2.9,1-2.9,3.1v4.4H195V288.8z"/>
		<path class="st5" d="M204.1,288.8h1.6l3.3,7.2l3.3-7.2h1.6l-4.1,8.5h-1.5L204.1,288.8z"/>
		<path class="st5" d="M215.4,293.1c0-2.7,1.9-4.5,4.4-4.5c1.8,0,4.3,0.6,4.3,4.3v0.5h-7.4c0.1,2.1,1.6,2.8,3.2,2.8
			c1.1,0,2.2-0.4,2.7-1.4h1.3c-0.5,2-2.5,2.7-4.1,2.7C217.8,297.5,215.4,296.4,215.4,293.1z M222.7,292.2c0-1.3-0.8-2.4-2.8-2.4
			c-1.8,0-2.9,0.9-3.1,2.4H222.7z"/>
		<path class="st5" d="M227.1,288.8h1.4v1.7c0.4-1.1,1.5-1.9,3.2-1.9c1.8,0,3.4,0.9,3.5,3.2h-1.4c0-1.3-1-2-2.3-2
			c-1.4,0-2.9,1-2.9,3.1v4.4h-1.4V288.8z"/>
		<path class="st5" d="M236.7,294.7h1.4c0.5,1.2,1.9,1.6,3.6,1.6c1.5,0,2.5-0.5,2.5-1.3c0-0.6-0.5-1-1.6-1.1l-2.5-0.2
			c-1.9-0.2-3.2-0.9-3.2-2.4c0-1.9,1.7-2.7,4-2.7c2.4,0,4,1,4.4,2.6h-1.4c-0.2-1.1-1.6-1.5-3-1.5c-1.7,0-2.6,0.4-2.6,1.4
			c0,0.8,0.8,1.1,2.1,1.2l2.3,0.2c1.5,0.1,3,0.6,3,2.3c0,1.7-1.9,2.7-4,2.7C239.2,297.5,237.2,296.6,236.7,294.7z"/>
	</g>
	<g>
		<g>
			<line class="st8" x1="209" y1="266.1" x2="209" y2="270.3"/>
			<rect x="205.3" y="270.3" class="st8" width="7.5" height="6.7"/>
			<line class="st8" x1="187.6" y1="274.5" x2="205.3" y2="274.5"/>
			<line class="st8" x1="212.7" y1="274.5" x2="230.5" y2="274.5"/>
		</g>
		<rect x="195.1" y="251.3" class="st8" width="27.8" height="7.4"/>
		<rect x="195.1" y="258.7" class="st8" width="27.8" height="7.4"/>
		<ellipse class="st8" cx="200.8" cy="255" rx="1.6" ry="1.5"/>
		<ellipse class="st8" cx="217.2" cy="255" rx="0.8" ry="0.7"/>
		<ellipse class="st8" cx="212.3" cy="255" rx="0.8" ry="0.7"/>
		<rect x="195.1" y="243.9" class="st8" width="27.8" height="7.4"/>
		<ellipse class="st8" cx="200.8" cy="247.6" rx="1.6" ry="1.5"/>
		<ellipse class="st8" cx="217.2" cy="247.6" rx="0.8" ry="0.7"/>
		<ellipse class="st8" cx="212.3" cy="247.6" rx="0.8" ry="0.7"/>
		<ellipse class="st8" cx="200.8" cy="262.4" rx="1.6" ry="1.5"/>
		<ellipse class="st8" cx="217.2" cy="262.4" rx="0.8" ry="0.7"/>
		<ellipse class="st8" cx="212.3" cy="262.4" rx="0.8" ry="0.7"/>
		<path class="st8" d="M221.8,258.2"/>
	</g>
	<g>
		<path class="st5" d="M149.2,82.5h1.8l3.8,11.9h-1.5l-1-3.2H148l-1,3.2h-1.5L149.2,82.5z M151.9,89.9l-1.8-5.8l-1.8,5.8H151.9z"/>
		<path class="st5" d="M157,85.8h1.4v1.7c0.4-1.1,1.4-1.9,3-1.9c2.1,0,3.8,1.4,3.8,4.4c0,3-1.7,4.4-3.9,4.4c-1.6,0-2.4-0.7-2.9-1.5
			v4.8H157V85.8z M161.1,93.1c1.5,0,2.6-1,2.6-3.1c0-2.1-1.1-3.1-2.6-3.1c-1.5,0-2.7,0.9-2.7,3.1C158.4,92.2,159.6,93.1,161.1,93.1z
			"/>
		<path class="st5" d="M167.8,85.8h1.4v1.7c0.4-1.1,1.4-1.9,3-1.9c2.1,0,3.8,1.4,3.8,4.4c0,3-1.7,4.4-3.9,4.4
			c-1.6,0-2.4-0.7-2.9-1.5v4.8h-1.4V85.8z M171.8,93.1c1.5,0,2.6-1,2.6-3.1c0-2.1-1.1-3.1-2.6-3.1c-1.5,0-2.7,0.9-2.7,3.1
			C169.1,92.2,170.3,93.1,171.8,93.1z"/>
		<path class="st5" d="M178.4,93.1h3.3v-9.5h-2.6v-1.2h4v10.7h3v1.2h-7.7V93.1z"/>
		<path class="st5" d="M189.2,93.1h3.5V87h-2.8v-1.2h4.1v7.3h3.2v1.2h-8V93.1z M192.3,82.4h1.6v1.7h-1.6V82.4z"/>
		<path class="st5" d="M199.3,90.2c0-2.7,1.7-4.6,4.7-4.6c2.3,0,3.9,1.2,4.1,3.1h-1.4c-0.1-1.2-1.1-1.8-2.7-1.8
			c-2.2,0-3.2,1.3-3.2,3.2s1,3.1,3.2,3.1c1.6,0,2.5-0.7,2.7-1.9h1.4c-0.3,2-1.9,3.2-4.2,3.2C200.8,94.5,199.3,92.7,199.3,90.2z"/>
		<path class="st5" d="M210,92c0-1.7,1.2-2.3,3-2.5l2.4-0.2c0.9-0.1,1.4-0.3,1.4-1c0-0.9-0.8-1.5-2.3-1.5c-1.6,0-2.7,0.5-2.9,1.5
			h-1.4c0.4-1.8,2-2.7,4.3-2.7c2.5,0,3.7,1,3.7,2.9v5.8h-1.3v-1.8c-0.7,1.2-1.9,2-3.7,2C211.4,94.5,210,93.7,210,92z M213.4,93.3
			c1.8,0,3.5-1.1,3.5-2.8V90c-0.4,0.2-0.9,0.3-1.7,0.4l-1.7,0.1c-0.8,0.1-2,0.2-2,1.5C211.5,93,212.3,93.3,213.4,93.3z"/>
		<path class="st5" d="M222.8,90.9V87h-2.5v-1.2h2.5v-2.3l1.4-0.4v2.7h4V87h-4v4c0,1.5,0.8,2.3,2.1,2.3c1.3,0,1.9-0.6,2-1.9h1.3
			c-0.2,2.1-1.4,3.1-3.4,3.1C224.1,94.5,222.8,93.3,222.8,90.9z"/>
		<path class="st5" d="M232,93.1h3.5V87h-2.8v-1.2h4.1v7.3h3.2v1.2h-8V93.1z M235.2,82.4h1.6v1.7h-1.6V82.4z"/>
		<path class="st5" d="M242.1,90.1c0-2.8,1.8-4.5,4.4-4.5s4.4,1.6,4.4,4.5s-1.8,4.5-4.4,4.5S242.1,92.9,242.1,90.1z M246.5,93.3
			c1.7,0,2.9-1.1,2.9-3.2s-1.2-3.2-2.9-3.2s-2.9,1.1-2.9,3.2S244.8,93.3,246.5,93.3z"/>
		<path class="st5" d="M253.4,85.8h1.4v1.7c0.6-1.2,1.6-1.9,3.2-1.9c2,0,3.1,1.2,3.1,3v5.7h-1.4v-5.5c0-1.3-0.9-2-2.1-2
			c-1.5,0-2.8,1-2.8,2.9v4.6h-1.4V85.8z"/>
		<path class="st5" d="M263.5,91.7h1.4c0.5,1.2,1.9,1.6,3.6,1.6c1.5,0,2.5-0.5,2.5-1.3c0-0.6-0.5-1-1.6-1.1l-2.5-0.2
			c-1.9-0.2-3.2-0.9-3.2-2.4c0-1.9,1.7-2.7,4-2.7c2.4,0,4,1,4.4,2.6h-1.4c-0.2-1.1-1.6-1.5-3-1.5c-1.7,0-2.6,0.4-2.6,1.4
			c0,0.8,0.8,1.1,2.1,1.2l2.3,0.2c1.5,0.1,3,0.6,3,2.3c0,1.7-1.9,2.7-4,2.7C266,94.5,263.9,93.6,263.5,91.7z"/>
	</g>
	<g>
		<g>
			<rect x="190" y="58.5" class="st8" width="6.4" height="11.2"/>
			<path class="st8" d="M196.4,68.1h27.2c0-2.4-5.6-4.8-12-4.8h-11.2"/>
			<path class="st8" d="M196.4,60.1h5.6c3.8,0,5.6,2.4,6.4,3.2"/>
		</g>
		<g>
			<path class="st8" d="M226,45.7c0-0.7-0.1-1.3-0.2-2l2.3-1.3l-2.9-5l-2.2,1.3c-1-0.9-1.9-1.6-3.3-2v-2.6h-5.8v2.6
				c-1.4,0.4-2.5,1.1-3.4,2l-2.3-1.3l-2.9,5l2.3,1.3c-0.1,0.6-0.2,1.3-0.2,2c0,0.7,0.1,1.3,0.2,2l-2.3,1.3l2.9,5l2.3-1.3
				c1,0.9,2,1.6,3.4,2v2.6h5.8v-2.6c1.4-0.4,2.4-1.1,3.3-2l2.3,1.3l2.9-5l-2.3-1.3C225.9,47,226,46.3,226,45.7z"/>
			<circle class="st8" cx="216.6" cy="45.7" r="4.3"/>
		</g>
	</g>
	<g>
		<g>
			<path class="st5" d="M1026.8,90.6h1.5c0.2,2,1.5,2.8,3.1,2.8c1.6,0,2.5-0.7,2.5-2s-0.8-1.7-2-2.1l-1.9-0.6
				c-2-0.6-2.9-1.5-2.9-3.2c0-2.2,1.6-3.3,4-3.3c2.2,0,4.1,1,4.1,3.4h-1.5c-0.1-1.6-1.3-2.1-2.7-2.1c-1.5,0-2.4,0.6-2.4,1.9
				c0,1.3,0.8,1.7,2.1,2.1l1.7,0.5c1.8,0.5,3,1.3,3,3.1c0,2.3-1.8,3.5-4,3.5C1028.7,94.7,1026.8,93.1,1026.8,90.6z"/>
			<path class="st5" d="M1038.1,93h3v-9.2h-3v-1.3h7.3v1.3h-3V93h3v1.3h-7.3V93z"/>
			<path class="st5" d="M1048.9,82.5h7.9v1.3h-6.5v3.9h6.2V89h-6.2v4h6.5v1.3h-8V82.5z"/>
			<path class="st5" d="M1059.4,82.5h2.3l1.5,7.2l1.5-7.2h2.3v11.9h-1.4v-9.9l-1.4,6.5h-1.9l-1.4-6.5v9.9h-1.4V82.5z"/>
		</g>
		<g>
			<path class="st8" d="M1049.4,27.7L1049.4,27.7c-4.7,4.7-18.9,8.5-18.9,8.5c0,15,0.9,28.2,18.9,34.8c17.9-6.6,18.9-19.8,18.9-34.8
				C1068.3,36.2,1054.1,32.4,1049.4,27.7z"/>
			<path class="st8" d="M1049.4,67.7c-14.3-5.6-15.9-15.9-16-29.7c3.5-1,11.5-3.6,16-7c2.2,1.7,5.6,3.4,10,5c2.4,0.9,4.6,1.6,6,2
				C1065.3,51.8,1063.7,62.1,1049.4,67.7z"/>
			<g>
				<rect x="1042.7" y="46.7" class="st8" width="13.3" height="10.6"/>
				<line class="st8" x1="1049.4" y1="54" x2="1049.4" y2="51.4"/>
				<path class="st8" d="M1045.4,46.7v-1.3c0-2.2,1.8-4,4-4c2.2,0,4,1.8,4,4v1.3"/>
			</g>
		</g>
	</g>
	<g>
		<g>
			<path class="st5" d="M1000.7,388.7h3.1c3.6,0,4.7,2.8,4.7,5.7c0,3.1-1.1,6.2-5,6.2h-2.8V388.7z M1003.5,399.2
				c2.6,0,3.5-1.9,3.5-4.7c0-2.8-0.8-4.5-3.3-4.5h-1.6v9.2H1003.5z"/>
			<path class="st5" d="M1010.7,398.2c0-1.7,1.2-2.3,3-2.5l2.4-0.2c0.8-0.1,1.4-0.3,1.4-1c0-0.9-0.8-1.5-2.3-1.5
				c-1.6,0-2.7,0.5-2.9,1.5h-1.4c0.4-1.8,2-2.7,4.3-2.7c2.5,0,3.7,1,3.7,2.9v5.8h-1.3v-1.8c-0.7,1.2-1.9,2-3.7,2
				C1012.1,400.7,1010.7,399.9,1010.7,398.2z M1014,399.5c1.8,0,3.5-1.1,3.5-2.8v-0.5c-0.4,0.2-0.9,0.3-1.7,0.4l-1.7,0.1
				c-0.8,0.1-2,0.2-2,1.5C1012.1,399.2,1013,399.5,1014,399.5z"/>
			<path class="st5" d="M1023.4,397.1v-3.8h-2.5V392h2.5v-2.3l1.4-0.4v2.7h4v1.2h-4v4c0,1.5,0.8,2.3,2.1,2.3c1.3,0,1.9-0.6,2-1.9
				h1.3c-0.2,2.1-1.4,3.1-3.4,3.1C1024.8,400.7,1023.4,399.5,1023.4,397.1z"/>
			<path class="st5" d="M1032.1,398.2c0-1.7,1.2-2.3,3-2.5l2.4-0.2c0.8-0.1,1.4-0.3,1.4-1c0-0.9-0.8-1.5-2.3-1.5
				c-1.6,0-2.7,0.5-2.9,1.5h-1.4c0.4-1.8,2-2.7,4.3-2.7c2.5,0,3.7,1,3.7,2.9v5.8h-1.3v-1.8c-0.7,1.2-1.9,2-3.7,2
				C1033.5,400.7,1032.1,399.9,1032.1,398.2z M1035.4,399.5c1.8,0,3.5-1.1,3.5-2.8v-0.5c-0.4,0.2-0.9,0.3-1.7,0.4l-1.7,0.1
				c-0.8,0.1-2,0.2-2,1.5C1033.5,399.2,1034.4,399.5,1035.4,399.5z"/>
			<path class="st5" d="M1054.2,388.7h1.4v10.6h6.8v1.3h-8.2V388.7z"/>
			<path class="st5" d="M1064.2,398.2c0-1.7,1.2-2.3,3-2.5l2.4-0.2c0.8-0.1,1.4-0.3,1.4-1c0-0.9-0.8-1.5-2.3-1.5
				c-1.6,0-2.7,0.5-2.9,1.5h-1.4c0.4-1.8,2-2.7,4.3-2.7c2.5,0,3.7,1,3.7,2.9v5.8h-1.3v-1.8c-0.7,1.2-1.9,2-3.7,2
				C1065.6,400.7,1064.2,399.9,1064.2,398.2z M1067.6,399.5c1.8,0,3.5-1.1,3.5-2.8v-0.5c-0.4,0.2-0.9,0.3-1.7,0.4l-1.7,0.1
				c-0.8,0.1-2,0.2-2,1.5C1065.6,399.2,1066.5,399.5,1067.6,399.5z"/>
			<path class="st5" d="M1075.5,388.5h1.4v8.1l4.7-4.6h2l-3.9,3.6l4.4,5h-1.8l-3.5-4.1l-1.8,1.7v2.4h-1.4V388.5z"/>
			<path class="st5" d="M1085.6,396.3c0-2.7,1.9-4.5,4.4-4.5c1.8,0,4.3,0.6,4.3,4.3v0.5h-7.4c0.1,2.1,1.6,2.8,3.2,2.8
				c1.1,0,2.2-0.4,2.7-1.4h1.3c-0.5,2-2.5,2.7-4.1,2.7C1088,400.7,1085.6,399.6,1085.6,396.3z M1092.9,395.5c0-1.3-0.8-2.4-2.8-2.4
				c-1.8,0-2.9,0.9-3.1,2.4H1092.9z"/>
		</g>
		<g>
			<path class="st9" d="M1078.7,365.2v2.6c0,5.1-11.9,9.3-26.5,9.3c-14.6,0-26.5-4.2-26.5-9.3v-2.5"/>
			<ellipse class="st9" cx="1052.2" cy="365.1" rx="26.5" ry="9.3"/>
			<path class="st9" d="M1042.5,371.9h1.4c0,0,3.3-4.7,8.3,0h1.3"/>
			<g>
				<rect x="1038.6" y="350.2" class="st9" width="27.9" height="7.7"/>
				<rect x="1038.6" y="357.9" class="st9" width="27.9" height="7.7"/>
				<ellipse class="st9" cx="1044.3" cy="354.1" rx="1.6" ry="1.5"/>
				<ellipse class="st9" cx="1060.8" cy="354.1" rx="0.8" ry="0.8"/>
				<ellipse class="st9" cx="1055.8" cy="354.1" rx="0.8" ry="0.8"/>
				<rect x="1038.6" y="342.6" class="st9" width="27.9" height="7.7"/>
				<ellipse class="st9" cx="1044.3" cy="346.4" rx="1.6" ry="1.5"/>
				<ellipse class="st9" cx="1060.8" cy="346.4" rx="0.8" ry="0.8"/>
				<ellipse class="st9" cx="1055.8" cy="346.4" rx="0.8" ry="0.8"/>
				<ellipse class="st9" cx="1044.3" cy="361.7" rx="1.6" ry="1.5"/>
				<ellipse class="st9" cx="1060.8" cy="361.7" rx="0.8" ry="0.8"/>
				<ellipse class="st9" cx="1055.8" cy="361.7" rx="0.8" ry="0.8"/>
				<path class="st9" d="M1065.4,357.4"/>
			</g>
			<path class="st9" d="M1035.8,367.2c0,0,1.8,0.1,2.8-0.8c0,0,5.7-5.8,12.1,0c0,0,3,2.8,5.9,0c0.8-0.7,4.7-3.9,9.4,0
				c0,0,1,0.9,2.8,0.7"/>
		</g>
	</g>
	<g>
		<g>
			<path class="st5" d="M978.7,189.6c0-3.3,0.8-6.2,4.2-6.2s4.2,2.9,4.2,6.3c0,3.3-0.8,6.2-4.2,6.2S978.7,192.9,978.7,189.6z
				 M982.9,194.5c2.3,0,2.7-2.2,2.7-4.8c0-2.9-0.5-5-2.8-5c-2.3,0-2.7,2.2-2.7,4.8C980.1,192.4,980.6,194.5,982.9,194.5z"/>
			<path class="st5" d="M990.4,194.2h2.9v-8.7c-0.8,0.7-2,1-2.9,1.1v-1.2c1.1-0.1,2.3-0.6,3.1-1.6h1.2v10.4h2.9v1.3h-7.1V194.2z"/>
			<path class="st5" d="M1001.1,194.2h2.9v-8.7c-0.8,0.7-2,1-2.9,1.1v-1.2c1.1-0.1,2.3-0.6,3.1-1.6h1.2v10.4h2.9v1.3h-7.1V194.2z"/>
			<path class="st5" d="M1014.3,190.7l-4-7h1.7l3,5.7l3-5.7h1.7l-4,7v4.9h-1.4V190.7z"/>
			<path class="st5" d="M1032.8,183.7h4.4c2.4,0,3.5,1.7,3.5,3.5c0,1.9-1.2,3.7-3.7,3.7h-2.8v4.8h-1.4V183.7z M1036.9,189.4
				c1.5,0,2.4-0.8,2.4-2.2c0-1.3-0.8-2.2-2.3-2.2h-2.8v4.5H1036.9z"/>
			<path class="st5" d="M1043.3,194.3h3.3v-9.5h-2.6v-1.2h4v10.7h3v1.2h-7.7V194.3z"/>
			<path class="st5" d="M1053.5,193.2c0-1.7,1.2-2.3,3-2.5l2.4-0.2c0.8-0.1,1.4-0.3,1.4-1c0-0.9-0.8-1.5-2.3-1.5
				c-1.6,0-2.7,0.5-2.9,1.5h-1.4c0.4-1.8,2-2.7,4.3-2.7c2.5,0,3.7,1,3.7,2.9v5.8h-1.3v-1.8c-0.7,1.2-1.9,2-3.7,2
				C1054.9,195.7,1053.5,194.9,1053.5,193.2z M1056.9,194.5c1.8,0,3.5-1.1,3.5-2.8v-0.5c-0.4,0.2-0.9,0.3-1.7,0.4l-1.7,0.1
				c-0.8,0.1-2,0.2-2,1.5C1054.9,194.2,1055.8,194.5,1056.9,194.5z"/>
			<path class="st5" d="M1066.3,192.1v-3.8h-2.5V187h2.5v-2.3l1.4-0.4v2.7h4v1.2h-4v4c0,1.5,0.8,2.3,2.1,2.3c1.3,0,1.9-0.6,2-1.9
				h1.3c-0.2,2.1-1.4,3.1-3.4,3.1C1067.6,195.7,1066.3,194.5,1066.3,192.1z"/>
			<path class="st5" d="M1078,188.2h-2.9V187h2.9v-0.7c0-2.1,1.4-2.8,2.8-2.8h2.3v1.2h-2.2c-1.2,0-1.5,0.7-1.5,1.7v0.6h3.7v1.2h-3.7
				v7.3h-1.4V188.2z"/>
			<path class="st5" d="M1085.6,191.3c0-2.8,1.8-4.5,4.4-4.5c2.5,0,4.4,1.6,4.4,4.5s-1.8,4.5-4.4,4.5
				C1087.4,195.7,1085.6,194.1,1085.6,191.3z M1090,194.4c1.7,0,2.9-1.1,2.9-3.2s-1.2-3.2-2.9-3.2s-2.9,1.1-2.9,3.2
				S1088.2,194.4,1090,194.4z"/>
			<path class="st5" d="M1097.4,187h1.4v1.7c0.4-1.1,1.5-1.9,3.2-1.9c1.8,0,3.4,0.9,3.5,3.2h-1.4c0-1.3-1-2-2.3-2
				c-1.4,0-2.9,1-2.9,3.1v4.4h-1.4V187z"/>
			<path class="st5" d="M1107.1,187h1.3v1.1c0.3-0.7,0.7-1.3,1.8-1.3c0.9,0,1.5,0.5,1.8,1.4c0.3-0.8,0.9-1.4,2-1.4
				c1.2,0,2,0.8,2,2.6v6.1h-1.3v-5.8c0-1.3-0.4-1.7-1.1-1.7c-0.8,0-1.2,1-1.2,2.4v5.1h-1.3v-5.8c0-1.3-0.4-1.7-1.1-1.7
				c-0.8,0-1.2,1-1.2,2.4v5.1h-1.3V187z"/>
		</g>
		<g>
			<g>
				<circle class="st8" cx="1053.9" cy="152.3" r="10.9"/>
				<path class="st8" d="M1071.1,173.5l-8.7-8.7c-0.3-0.3-0.3-0.9,0-1.2l2-2c0.3-0.3,0.9-0.3,1.2,0l8.7,8.7c0.3,0.3,0.3,0.9,0,1.2
					l-2,2C1072,173.8,1071.5,173.8,1071.1,173.5z"/>
				<line class="st8" x1="1061.3" y1="160.1" x2="1063.6" y2="162.4"/>
				<g>
					<g>
						<polyline class="st10" points="1036,166.8 1036.9,161.5 1042.2,162.8 						"/>
						<path class="st10" d="M1069.3,162.1c1.8-2.7,2.9-5.9,3.1-9.2"/>
						<path class="st10" d="M1036.9,161.6c5.4,8.8,16.8,11.4,25.4,6.8"/>
					</g>
					<g>
						<polyline class="st10" points="1072.4,137.7 1071.5,143.2 1065.8,142 						"/>
						<path class="st10" d="M1071.5,143.1c-5.2-10-17.6-13.4-26.9-8.5c-6.4,3.4-10.1,9.9-10.2,16.7"/>
					</g>
				</g>
			</g>
			<rect x="1048.7" y="153.4" class="st8" width="2.2" height="3.4"/>
			<rect x="1053.2" y="150.8" class="st8" width="2.2" height="6"/>
			<rect x="1057.8" y="147.8" class="st8" width="2.2" height="9"/>
		</g>
	</g>
	<g>
		<path class="st5" d="M177.8,472.6h1.9c0.2,1.8,1.2,2.6,2.8,2.6c1.4,0,2.2-0.6,2.2-1.7c0-1.1-0.7-1.5-1.8-1.8l-1.7-0.5
			c-2-0.6-3-1.5-3-3.3c0-2.3,1.7-3.5,4.1-3.5s4.2,1.1,4.2,3.6h-1.9c-0.1-1.4-1.1-1.9-2.4-1.9c-1.4,0-2.1,0.6-2.1,1.7
			c0,1.1,0.8,1.5,1.9,1.9l1.6,0.5c1.8,0.6,3,1.3,3,3.2c0,2.4-1.8,3.6-4.1,3.6C179.9,476.8,177.9,475.3,177.8,472.6z"/>
		<path class="st5" d="M188.6,470.5c0-3.4,0.9-6.2,4.3-6.2s4.3,2.9,4.3,6.3c0,3.4-0.8,6.2-4.3,6.2S188.6,474,188.6,470.5z
			 M193,475.1c2,0,2.4-1.9,2.4-4.5c0-2.8-0.5-4.6-2.4-4.6c-2,0-2.4,1.9-2.4,4.5C190.5,473.3,191,475.1,193,475.1z"/>
		<path class="st5" d="M199.8,472.6v-8h1.9v8c0,1.7,0.7,2.4,2,2.4s2-0.7,2-2.4v-8h1.9v8c0,2.9-1.4,4.2-3.9,4.2
			S199.8,475.5,199.8,472.6z"/>
		<path class="st5" d="M210.7,464.6h4.4c2.5,0,3.6,1.7,3.6,3.5c0,1.5-0.7,2.8-2.2,3.3l2.7,5.1h-2.1l-2.4-4.7h-2.1v4.7h-1.9V464.6z
			 M214.8,470.1c1.3,0,2-0.7,2-1.9c0-1.1-0.6-1.9-1.9-1.9h-2.3v3.8H214.8z"/>
		<path class="st5" d="M220.8,470.7c0-4.1,1.4-6.4,4.6-6.4c2.5,0,4,1.5,4,4.2h-1.9c-0.1-1.6-0.7-2.5-2.2-2.5c-1.9,0-2.6,1.6-2.6,4.5
			c0,2.7,0.6,4.5,2.6,4.5c1.5,0,2.2-1,2.3-2.8h1.9c-0.1,3-1.7,4.6-4.2,4.6C221.8,476.8,220.8,474.1,220.8,470.7z"/>
		<path class="st5" d="M232.1,464.6h8.1v1.8h-6.2v3.3h5.9v1.8h-5.9v3.4h6.3v1.8h-8.2V464.6z"/>
	</g>
	<g>
		<path class="st5" d="M530,465.1H526v-1.8h9.7v1.8h-3.9v10.1H530V465.1z"/>
		<path class="st5" d="M537.9,463.4h8.1v1.8h-6.2v3.3h5.9v1.8h-5.9v3.4h6.3v1.8h-8.2V463.4z"/>
		<path class="st5" d="M548.6,463.4h1.9v10.1h6.6v1.8h-8.4V463.4z"/>
		<path class="st5" d="M559.3,463.4h8.1v1.8h-6.2v3.3h5.9v1.8h-5.9v3.4h6.3v1.8h-8.2V463.4z"/>
		<path class="st5" d="M569.7,463.4h2.7l1.3,6.8l1.3-6.8h2.7v11.9h-1.7v-9.5l-1.3,6.1h-2.1l-1.3-6.1v9.5h-1.7V463.4z"/>
		<path class="st5" d="M580.7,463.4h8.1v1.8h-6.2v3.3h5.9v1.8h-5.9v3.4h6.3v1.8h-8.2V463.4z"/>
		<path class="st5" d="M594.2,465.1h-3.9v-1.8h9.7v1.8h-3.9v10.1h-1.9V465.1z"/>
		<path class="st5" d="M602.2,463.4h4.4c2.5,0,3.6,1.7,3.6,3.5c0,1.5-0.7,2.8-2.2,3.3l2.7,5.1h-2.1l-2.4-4.7H604v4.7h-1.9V463.4z
			 M606.3,468.9c1.3,0,2-0.7,2-1.9c0-1.1-0.6-1.9-1.9-1.9H604v3.8H606.3z"/>
		<path class="st5" d="M615.6,470.6l-3.9-7.2h2.2l2.7,5.4l2.7-5.4h2.2l-3.9,7.2v4.7h-1.9V470.6z"/>
		<path class="st5" d="M634.3,463.4h4.6c2.5,0,3.6,1.7,3.6,3.6c0,2-1.2,3.8-3.8,3.8h-2.5v4.4h-1.9V463.4z M638.5,469.1
			c1.3,0,2.1-0.8,2.1-2c0-1.2-0.6-2-2-2h-2.4v4H638.5z"/>
		<path class="st5" d="M644.9,473.5h2.8v-8.4h-2.8v-1.8h7.5v1.8h-2.8v8.4h2.8v1.8h-7.5V473.5z"/>
		<path class="st5" d="M655.7,463.4h4.6c2.5,0,3.6,1.7,3.6,3.6c0,2-1.2,3.8-3.8,3.8h-2.5v4.4h-1.9V463.4z M659.9,469.1
			c1.3,0,2.1-0.8,2.1-2c0-1.2-0.6-2-2-2h-2.4v4H659.9z"/>
		<path class="st5" d="M666.4,463.4h8.1v1.8h-6.2v3.3h5.9v1.8h-5.9v3.4h6.3v1.8h-8.2V463.4z"/>
		<path class="st5" d="M677.1,463.4h1.9v10.1h6.6v1.8h-8.4V463.4z"/>
		<path class="st5" d="M687.8,473.5h2.8v-8.4h-2.8v-1.8h7.5v1.8h-2.8v8.4h2.8v1.8h-7.5V473.5z"/>
		<path class="st5" d="M698.4,463.4h2.3l3.4,8.3v-8.3h1.9v11.9h-2.2l-3.5-8.6v8.6h-1.9V463.4z"/>
		<path class="st5" d="M709.3,463.4h8.1v1.8h-6.2v3.3h5.9v1.8h-5.9v3.4h6.3v1.8h-8.2V463.4z"/>
	</g>
	<g>
		<path class="st5" d="M989.9,463.2h3.4c3.6,0,4.6,2.8,4.6,5.7c0,3.1-1.1,6.2-4.9,6.2h-3.1V463.2z M993,473.3c2.2,0,3-1.6,3-4.4
			c0-2.6-0.7-4-2.8-4h-1.4v8.4H993z"/>
		<path class="st5" d="M1000.6,463.2h8.1v1.8h-6.2v3.3h5.9v1.8h-5.9v3.4h6.3v1.8h-8.2V463.2z"/>
		<path class="st5" d="M1010.6,471.1h1.9c0.2,1.8,1.2,2.6,2.8,2.6c1.4,0,2.2-0.6,2.2-1.7c0-1.1-0.7-1.5-1.8-1.8l-1.7-0.5
			c-2-0.6-3-1.5-3-3.3c0-2.3,1.7-3.5,4.1-3.5s4.2,1.1,4.2,3.6h-1.9c-0.1-1.4-1.1-1.9-2.4-1.9c-1.4,0-2.1,0.6-2.1,1.7
			c0,1.1,0.8,1.5,1.9,1.9l1.6,0.5c1.8,0.6,3,1.3,3,3.2c0,2.4-1.8,3.6-4.1,3.6C1012.6,475.4,1010.7,473.8,1010.6,471.1z"/>
		<path class="st5" d="M1024.8,464.9h-3.9v-1.8h9.7v1.8h-3.9v10.1h-1.9V464.9z"/>
		<path class="st5" d="M1032.7,473.3h2.8v-8.4h-2.8v-1.8h7.5v1.8h-2.8v8.4h2.8v1.8h-7.5V473.3z"/>
		<path class="st5" d="M1043.3,463.2h2.3l3.4,8.3v-8.3h1.9v11.9h-2.2l-3.5-8.6v8.6h-1.9V463.2z"/>
		<path class="st5" d="M1056.7,463.2h2.3l3.6,11.9h-2l-0.9-3h-3.8l-0.8,3h-2L1056.7,463.2z M1059.3,470.5l-1.5-5.3l-1.5,5.3H1059.3z
			"/>
		<path class="st5" d="M1067.6,464.9h-3.9v-1.8h9.7v1.8h-3.9v10.1h-1.9V464.9z"/>
		<path class="st5" d="M1075.5,473.3h2.8v-8.4h-2.8v-1.8h7.5v1.8h-2.8v8.4h2.8v1.8h-7.5V473.3z"/>
		<path class="st5" d="M1085.7,469.1c0-3.4,0.9-6.2,4.3-6.2s4.3,2.9,4.3,6.3c0,3.4-0.9,6.2-4.3,6.2S1085.7,472.5,1085.7,469.1z
			 M1090,473.6c2,0,2.4-1.9,2.4-4.5c0-2.8-0.5-4.6-2.4-4.6c-2,0-2.4,1.9-2.4,4.5C1087.6,471.8,1088,473.6,1090,473.6z"/>
		<path class="st5" d="M1096.8,463.2h2.3l3.4,8.3v-8.3h1.9v11.9h-2.2l-3.5-8.6v8.6h-1.9V463.2z"/>
	</g>
	<path class="st11" d="M466.8,174.6l-7.3-2.9c-1.7-0.7-2.1-2.9-0.6-4.1l6.1-4.9l6.1-4.9c1.4-1.1,3.6-0.3,3.8,1.5l1.2,7.8l1.2,7.8
		c0.3,1.8-1.5,3.2-3.2,2.6L466.8,174.6z"/>
	<path class="st11" d="M759.1,156l6.4-4.5c1.5-1.1,3.6-0.1,3.7,1.7l0.7,7.8l0.7,7.8c0.2,1.8-1.7,3.2-3.4,2.4l-7.1-3.3l-7.1-3.3
		c-1.7-0.8-1.9-3.1-0.4-4.1L759.1,156z"/>
	<path class="st11" d="M627.4,383.8l-0.2,7.9c0,1.8-2.1,2.9-3.6,2l-6.7-4.1l-6.7-4.1c-1.6-1-1.5-3.2,0.1-4.1l6.9-3.8l6.9-3.8
		c1.6-0.9,3.6,0.3,3.5,2.2L627.4,383.8z"/>
	<line class="st12" x1="-7.9" y1="447.5" x2="1300" y2="447.5"/>
	<line class="st12" x1="-7.9" y1="491" x2="1300" y2="491"/>
	<line class="st13" x1="435" y1="447" x2="435" y2="491.1"/>
	<line class="st13" x1="800.7" y1="447" x2="800.7" y2="491.1"/>
	<g>
		<g>
			<path class="st5" d="M979.3,285.4h1.4V296h6.8v1.3h-8.2V285.4z"/>
			<path class="st5" d="M989.2,293c0-2.8,1.8-4.5,4.4-4.5s4.4,1.6,4.4,4.5s-1.8,4.5-4.4,4.5S989.2,295.8,989.2,293z M993.6,296.2
				c1.7,0,2.9-1.1,2.9-3.2s-1.2-3.2-2.9-3.2s-2.9,1.1-2.9,3.2S991.9,296.2,993.6,296.2z"/>
			<path class="st5" d="M1000.1,297.8h1.4c0.2,1.1,1,1.8,2.6,1.8c1.7,0,2.7-0.8,2.7-2.6v-1.7c-0.6,1.2-1.8,1.7-3,1.7
				c-2.1,0-3.9-1.4-3.9-4.2c0-2.9,1.9-4.2,4-4.2c1.5,0,2.5,0.8,2.9,1.5v-1.3h1.4v8.1c0,2.6-1.7,3.9-4,3.9
				C1001.9,300.8,1000.3,299.7,1000.1,297.8z M1004,295.8c1.3,0,2.7-0.8,2.7-2.9c0-2.1-1.3-3-2.7-3c-1.4,0-2.8,0.9-2.8,3
				C1001.3,294.8,1002.6,295.8,1004,295.8z"/>
			<path class="st5" d="M1024.8,285.4h1.8l3.8,11.9h-1.5l-1-3.2h-4.3l-1,3.2h-1.5L1024.8,285.4z M1027.5,292.8l-1.8-5.8l-1.8,5.8
				H1027.5z"/>
			<path class="st5" d="M1032.6,288.8h1.4v1.7c0.6-1.2,1.6-1.9,3.2-1.9c2,0,3.1,1.2,3.1,3v5.7h-1.4v-5.5c0-1.3-0.9-2-2.1-2
				c-1.5,0-2.8,1-2.8,2.9v4.6h-1.4V288.8z"/>
			<path class="st5" d="M1042.8,295c0-1.7,1.2-2.3,3-2.5l2.4-0.2c0.8-0.1,1.4-0.3,1.4-1c0-0.9-0.8-1.5-2.3-1.5
				c-1.6,0-2.7,0.5-2.9,1.5h-1.4c0.4-1.8,2-2.7,4.3-2.7c2.5,0,3.7,1,3.7,2.9v5.8h-1.3v-1.8c-0.7,1.2-1.9,2-3.7,2
				C1044.2,297.5,1042.8,296.7,1042.8,295z M1046.1,296.3c1.8,0,3.5-1.1,3.5-2.8v-0.5c-0.4,0.2-0.9,0.3-1.7,0.4l-1.7,0.1
				c-0.8,0.1-2,0.2-2,1.5C1044.2,295.9,1045.1,296.3,1046.1,296.3z"/>
			<path class="st5" d="M1054,296.1h3.3v-9.5h-2.6v-1.2h4v10.7h3v1.2h-7.7V296.1z"/>
			<path class="st5" d="M1064.7,298.9h1.2c1.2,0,1.8-0.5,2.1-1.2l0.1-0.3l-4.4-8.7h1.6l3.5,7.2l3.2-7.2h1.4l-4.2,9.1
				c-0.7,1.5-1.4,2.2-3.4,2.2h-1.1V298.9z"/>
			<path class="st5" d="M1077,293.8V290h-2.5v-1.2h2.5v-2.3l1.4-0.4v2.7h4v1.2h-4v4c0,1.5,0.8,2.3,2.1,2.3c1.3,0,1.9-0.6,2-1.9h1.3
				c-0.2,2.1-1.4,3.1-3.4,3.1C1078.3,297.5,1077,296.2,1077,293.8z"/>
			<path class="st5" d="M1086.2,296.1h3.5V290h-2.8v-1.2h4.1v7.3h3.2v1.2h-8V296.1z M1089.4,285.3h1.6v1.7h-1.6V285.3z"/>
			<path class="st5" d="M1096.3,293.1c0-2.7,1.7-4.6,4.7-4.6c2.3,0,3.9,1.2,4.1,3.1h-1.4c-0.1-1.2-1.1-1.8-2.7-1.8
				c-2.2,0-3.2,1.3-3.2,3.2c0,1.9,1,3.1,3.2,3.1c1.6,0,2.5-0.7,2.7-1.9h1.4c-0.3,2-1.9,3.2-4.2,3.2
				C1097.9,297.5,1096.3,295.7,1096.3,293.1z"/>
			<path class="st5" d="M1106.9,294.7h1.4c0.5,1.2,1.9,1.6,3.6,1.6c1.5,0,2.5-0.5,2.5-1.3c0-0.6-0.5-1-1.6-1.1l-2.5-0.2
				c-1.9-0.2-3.2-0.9-3.2-2.4c0-1.9,1.7-2.7,4-2.7c2.4,0,4,1,4.4,2.6h-1.4c-0.2-1.1-1.6-1.5-3-1.5c-1.7,0-2.6,0.4-2.6,1.4
				c0,0.8,0.8,1.1,2.1,1.2l2.3,0.2c1.5,0.1,3,0.6,3,2.3c0,1.7-1.9,2.7-4,2.7C1109.4,297.5,1107.4,296.6,1106.9,294.7z"/>
		</g>
		<g>
			<path class="st10" d="M1062.4,270.3l4.1,4.1l5.1-5.1l-4.1-4.1c0.8-1.3,1.4-3.7,1.8-5.2h5.8v-5.4h-5.8c-0.4-1.6-1-3.9-1.8-5.2
				l4.1-4.1l-5.1-5.1l-4.1,4.1c-1.3-0.8-3.7-1.4-5.2-1.8v-5.8h-5.4v5.8c-1.6,0.4-3.9,1-5.2,1.8l-4.1-4.1l-5.1,5.1l4.1,4.1
				c-0.8,1.3-1.4,3.7-1.8,5.2h-5.8v5.4h5.8c0.4,1.6,1,3.9,1.8,5.2l-4.1,4.1l5.1,5.1l4.1-4.1"/>
			<line class="st10" x1="1051.8" y1="272.6" x2="1057.2" y2="272.6"/>
			<line class="st10" x1="1051.8" y1="276.1" x2="1057.2" y2="276.1"/>
			<line class="st10" x1="1054.5" y1="276.1" x2="1054.5" y2="277.9"/>
			<path class="st10" d="M1065,257.4c0-5.5-4.7-9.9-10.5-9.9c-5.8,0-10.5,4.5-10.5,9.9c0,4.5,3.4,8.4,7.8,9.6v2h5.4v-2
				C1061.6,265.7,1065,261.9,1065,257.4z"/>
		</g>
	</g>
	<g>
		<path class="st5" d="M173.1,397.2h1.9l4.1,9.3v-9.3h1.4v11.9h-1.7l-4.4-9.6v9.6h-1.4V397.2z"/>
		<path class="st5" d="M183.2,404.9c0-2.7,1.9-4.5,4.4-4.5c1.8,0,4.3,0.6,4.3,4.3v0.5h-7.4c0.1,2.1,1.6,2.8,3.2,2.8
			c1.1,0,2.2-0.4,2.7-1.4h1.3c-0.5,2-2.5,2.7-4.1,2.7C185.7,409.3,183.2,408.2,183.2,404.9z M190.6,404c0-1.3-0.8-2.4-2.8-2.4
			c-1.8,0-2.9,0.9-3.1,2.4H190.6z"/>
		<path class="st5" d="M196,405.6v-3.8h-2.5v-1.2h2.5v-2.3l1.4-0.4v2.7h4v1.2h-4v4c0,1.5,0.8,2.3,2.1,2.3c1.3,0,1.9-0.6,2-1.9h1.3
			c-0.2,2.1-1.4,3.1-3.4,3.1C197.3,409.3,196,408,196,405.6z"/>
		<path class="st5" d="M204,400.6h1.4l1.4,7.1l1.2-5.4h1.9l1.2,5.4l1.4-7.1h1.4l-1.9,8.5h-1.9l-1.2-5.5l-1.2,5.5h-1.9L204,400.6z"/>
		<path class="st5" d="M215.4,404.8c0-2.8,1.8-4.5,4.4-4.5s4.4,1.6,4.4,4.5s-1.8,4.5-4.4,4.5S215.4,407.6,215.4,404.8z M219.7,408
			c1.7,0,2.9-1.1,2.9-3.2s-1.2-3.2-2.9-3.2s-2.9,1.1-2.9,3.2S218,408,219.7,408z"/>
		<path class="st5" d="M227.1,400.6h1.4v1.7c0.4-1.1,1.5-1.9,3.2-1.9c1.8,0,3.4,0.9,3.5,3.2h-1.4c0-1.3-1-2-2.3-2
			c-1.4,0-2.9,1-2.9,3.1v4.4h-1.4V400.6z"/>
		<path class="st5" d="M237.4,397h1.4v8.1l4.7-4.6h2l-3.9,3.6l4.4,5h-1.8l-3.5-4.1l-1.8,1.7v2.4h-1.4V397z"/>
	</g>
	<g>
		<g>
			<line class="st10" x1="220.9" y1="354.9" x2="226.7" y2="349.2"/>
			<circle class="st10" cx="229.3" cy="346.5" r="3.7"/>
			<line class="st10" x1="221.4" y1="374.1" x2="226.7" y2="379.4"/>
			<circle class="st10" cx="229.4" cy="382" r="3.7"/>
			<line class="st10" x1="220" y1="363.3" x2="225.6" y2="363.3"/>
			<circle class="st10" cx="229.3" cy="363.3" r="3.7"/>
		</g>
		<g>
			<line class="st10" x1="197.1" y1="354.9" x2="191.3" y2="349.2"/>
			<circle class="st10" cx="188.7" cy="346.5" r="3.7"/>
			<line class="st10" x1="196.7" y1="374" x2="191.3" y2="379.4"/>
			<circle class="st10" cx="188.7" cy="382" r="3.7"/>
			<line class="st10" x1="198" y1="363.3" x2="192.4" y2="363.3"/>
			<circle class="st10" cx="188.7" cy="363.3" r="3.7"/>
		</g>
		<g>
			<line class="st10" x1="214" y1="363.2" x2="207" y2="363.2"/>
			<line class="st10" x1="203.8" y1="363.2" x2="204.6" y2="363.2"/>
			<line class="st10" x1="214" y1="365.5" x2="207" y2="365.5"/>
			<line class="st10" x1="203.8" y1="365.5" x2="204.6" y2="365.5"/>
			<line class="st10" x1="214" y1="367.9" x2="207" y2="367.9"/>
			<line class="st10" x1="203.8" y1="367.9" x2="204.6" y2="367.9"/>
			<circle class="st14" cx="202.6" cy="358.9" r="0.4"/>
			<circle class="st14" cx="204.9" cy="358.9" r="0.4"/>
			<circle class="st14" cx="207.3" cy="358.9" r="0.4"/>
			<rect x="199.9" y="356.9" class="st10" width="18" height="14.9"/>
			<line class="st10" x1="199.9" y1="360.8" x2="217.9" y2="360.8"/>
		</g>
	</g>
	<g>
		<path class="st5" d="M157.2,183.7h1.4v6.1l4.9-6.1h1.8l-4,4.8l4.2,7.1h-1.7l-3.5-5.9l-1.7,2.1v3.9h-1.4V183.7z"/>
		<path class="st5" d="M167.7,192.7V187h1.4v5.6c0,1.3,0.9,2,2.1,2c1.6,0,2.8-1.3,2.8-3V187h1.4v8.5h-1.4v-1.7
			c-0.6,1.2-1.7,1.9-3.1,1.9C168.9,195.7,167.7,194.5,167.7,192.7z"/>
		<path class="st5" d="M179.8,194.1v1.5h-1.3v-12.1h1.4v5.1c0.4-0.9,1.4-1.8,3-1.8c2.7,0,3.8,2.1,3.8,4.4c0,2.2-1.1,4.5-3.8,4.5
			C181.3,195.7,180.3,195,179.8,194.1z M182.6,194.5c2,0,2.6-1.6,2.6-3.2c0-1.6-0.6-3.1-2.5-3.1c-2,0-2.8,1.5-2.8,3.2
			C179.9,193,180.6,194.5,182.6,194.5z"/>
		<path class="st5" d="M188.6,191.3c0-2.7,1.9-4.5,4.4-4.5c1.8,0,4.3,0.6,4.3,4.3v0.5H190c0.1,2.1,1.6,2.8,3.2,2.8
			c1.1,0,2.2-0.4,2.7-1.4h1.3c-0.5,2-2.5,2.7-4.1,2.7C191,195.7,188.6,194.7,188.6,191.3z M195.9,190.5c0-1.3-0.8-2.4-2.8-2.4
			c-1.8,0-2.9,0.9-3.1,2.4H195.9z"/>
		<path class="st5" d="M200.4,187h1.4v1.7c0.4-1.1,1.5-1.9,3.2-1.9c1.8,0,3.4,0.9,3.5,3.2H207c0-1.3-1-2-2.3-2c-1.4,0-2.9,1-2.9,3.1
			v4.4h-1.4V187z"/>
		<path class="st5" d="M210.6,187h1.4v1.7c0.6-1.2,1.6-1.9,3.2-1.9c2,0,3.1,1.2,3.1,3v5.7h-1.4V190c0-1.3-0.9-2-2.1-2
			c-1.5,0-2.8,1-2.8,2.9v4.6h-1.4V187z"/>
		<path class="st5" d="M220.7,191.3c0-2.7,1.9-4.5,4.4-4.5c1.8,0,4.3,0.6,4.3,4.3v0.5h-7.4c0.1,2.1,1.6,2.8,3.2,2.8
			c1.1,0,2.2-0.4,2.7-1.4h1.3c-0.5,2-2.5,2.7-4.1,2.7C223.2,195.7,220.7,194.7,220.7,191.3z M228,190.5c0-1.3-0.8-2.4-2.8-2.4
			c-1.8,0-2.9,0.9-3.1,2.4H228z"/>
		<path class="st5" d="M233.5,192.1v-3.8H231V187h2.5v-2.3l1.4-0.4v2.7h4v1.2h-4v4c0,1.5,0.8,2.3,2.1,2.3c1.3,0,1.9-0.6,2-1.9h1.3
			c-0.2,2.1-1.4,3.1-3.4,3.1C234.8,195.7,233.5,194.5,233.5,192.1z"/>
		<path class="st5" d="M242.1,191.3c0-2.7,1.9-4.5,4.4-4.5c1.8,0,4.3,0.6,4.3,4.3v0.5h-7.4c0.1,2.1,1.6,2.8,3.2,2.8
			c1.1,0,2.2-0.4,2.7-1.4h1.3c-0.5,2-2.5,2.7-4.1,2.7C244.6,195.7,242.1,194.7,242.1,191.3z M249.5,190.5c0-1.3-0.8-2.4-2.8-2.4
			c-1.8,0-2.9,0.9-3.1,2.4H249.5z"/>
		<path class="st5" d="M252.7,192.9h1.4c0.5,1.2,1.9,1.6,3.6,1.6c1.5,0,2.5-0.5,2.5-1.3c0-0.6-0.5-1-1.6-1.1l-2.5-0.2
			c-1.9-0.2-3.2-0.9-3.2-2.4c0-1.9,1.7-2.7,4-2.7c2.4,0,4,1,4.4,2.6h-1.4c-0.2-1.1-1.6-1.5-3-1.5c-1.7,0-2.6,0.4-2.6,1.4
			c0,0.8,0.8,1.1,2.1,1.2l2.3,0.2c1.5,0.1,3,0.6,3,2.3c0,1.7-1.9,2.7-4,2.7C255.2,195.7,253.2,194.8,252.7,192.9z"/>
	</g>
	<g>
		<line class="st15" x1="212.2" y1="172.3" x2="230.6" y2="172.3"/>
		<g>
			<path class="st8" d="M216.2,155h7.2c2.5,0,4.5-2,4.5-4.5c0-2.2-1.6-4.1-3.7-4.5c0.1-0.5,0.2-0.9,0.2-1.4c0-3.5-2.9-6.4-6.4-6.4
				c-2.2,0-4.1,1.1-5.3,2.7c-0.4-0.1-1-0.1-1.4-0.1c-2.6,0-5.1,2-5.4,4.6"/>
			<g>
				<g>
					<path class="st8" d="M211.6,150.6c-0.3-1.7-1.8-3.1-3.6-3.1c-0.4,0-0.8,0.1-1.1,0.2c-0.5-2.8-3-5-6-5c-2.7,0-4.9,1.7-5.8,4.1
						c0,0,0,0,0,0c-2.2,0-4,1.9-4,4.1c0,2.1,1.7,3.7,3.7,4.2l0,0h7.3"/>
				</g>
			</g>
			<line class="st8" x1="209.1" y1="165.6" x2="209.1" y2="168.4"/>
			<rect x="205.8" y="168.4" class="st8" width="6.7" height="6.7"/>
			<line class="st8" x1="187.4" y1="172.3" x2="205.8" y2="172.3"/>
			<path class="st8" d="M218,156.2c-0.5,0-1,0.1-1.4,0.2c-0.7-3.5-3.7-6.2-7.4-6.2c-3.3,0-6.1,2.1-7.2,5.1c0,0,0,0-0.1,0
				c-2.8,0-5,2.3-5,5.1c0,2.6,2.1,4.6,4.7,5.2l0,0H218c2.5,0,4.6-2.2,4.6-4.7S220.5,156.2,218,156.2z"/>
		</g>
	</g>
	<g>
		<line class="st2" x1="336.9" y1="234.6" x2="383.8" y2="234.6"/>
		<path class="st11" d="M365.8,234.4l0.1-7.9c0-1.8,2-3,3.6-2l6.8,4l6.8,4c1.6,0.9,1.6,3.2,0,4.1l-6.8,3.9l-6.8,3.9
			c-1.6,0.9-3.6-0.3-3.6-2.1L365.8,234.4z"/>
	</g>
	<g>
		<line class="st2" x1="861.7" y1="234.6" x2="908.6" y2="234.6"/>
		<path class="st11" d="M890.6,234.4l0.1-7.9c0-1.8,2-3,3.6-2l6.8,4l6.8,4c1.6,0.9,1.6,3.2,0,4.1l-6.8,3.9l-6.8,3.9
			c-1.6,0.9-3.6-0.3-3.6-2.1L890.6,234.4z"/>
	</g>
</g>
</svg>
